<svg width="70" height="45" viewBox="0 0 70 45" fill="none" xmlns="http://www.w3.org/2000/svg">
<path d="M63.2849 0H4.91329C4.49335 0 4.03142 0.041994 3.61148 0.125982C3.19154 0.20997 2.7716 0.335952 2.35166 0.545921C1.97372 0.713897 1.59577 1.00785 1.30181 1.30181C1.00785 1.59577 0.713897 1.97372 0.545921 2.35166C0.335952 2.72961 0.20997 3.14955 0.125982 3.61148C0.041994 4.03142 0.041994 4.49335 0 4.91329V39.5583C0 39.9782 0.041994 40.4402 0.125982 40.8601C0.20997 41.2801 0.335952 41.7 0.545921 42.1199C0.755891 42.4979 1.00785 42.8758 1.30181 43.1698C1.59577 43.4637 1.97372 43.7577 2.35166 43.9257C2.72961 44.1356 3.14955 44.2616 3.61148 44.3456C4.03142 44.4296 4.49335 44.4296 4.91329 44.4716H64.5867C65.0066 44.4716 65.4686 44.4296 65.8885 44.3456C66.3085 44.2616 66.7284 44.1356 67.1483 43.9257C67.5263 43.7157 67.9042 43.4637 68.1982 43.1698C68.4921 42.8758 68.7861 42.4979 68.9541 42.1199C69.164 41.742 69.29 41.3221 69.374 40.8601C69.458 40.4402 69.458 39.9782 69.5 39.5583V38.9704V6.21511V5.50121V4.91329C69.5 4.49335 69.458 4.03142 69.374 3.61148C69.29 3.19154 69.164 2.7716 68.9541 2.35166C68.7441 1.97372 68.4921 1.59577 68.1982 1.30181C67.9042 1.00785 67.5263 0.713897 67.1483 0.545921C66.7704 0.335952 66.3505 0.20997 65.8885 0.125982C65.4686 0.041994 65.0066 0.041994 64.5867 0L63.2849 0Z" fill="black"/>
<path d="M63.2849 1.46985H64.5867C64.9227 1.46985 65.3006 1.51184 65.6785 1.55384C66.0145 1.59583 66.2665 1.67982 66.5184 1.8058C66.7704 1.93178 66.9804 2.09976 67.1903 2.30973C67.4003 2.5197 67.5683 2.72967 67.6943 2.98163C67.8202 3.23359 67.9042 3.48556 67.9462 3.82151C68.0302 4.19946 68.0302 4.5774 68.0302 4.91335V39.5584C68.0302 39.8943 67.9882 40.2723 67.9462 40.6502C67.9042 40.9442 67.8202 41.2381 67.6943 41.4901C67.5683 41.7421 67.4003 41.952 67.1903 42.162C66.9804 42.372 66.7704 42.5399 66.5184 42.6659C66.2665 42.7919 66.0145 42.8759 65.6785 42.9179C65.3006 43.0019 64.9227 43.0019 64.5867 43.0019H4.91329C4.61933 43.0019 4.1994 42.9599 3.82145 42.9179C3.52749 42.8759 3.23353 42.7919 2.98157 42.6239C2.72961 42.4979 2.51964 42.33 2.30967 42.12C2.0997 41.91 1.93172 41.7001 1.80574 41.4481C1.67976 41.1961 1.59577 40.9442 1.55378 40.6082C1.46979 40.2303 1.46979 39.8523 1.46979 39.5164V5.50127V4.91335C1.46979 4.5774 1.51178 4.19946 1.55378 3.82151C1.59577 3.52755 1.67976 3.23359 1.80574 2.98163C1.93172 2.72967 2.0997 2.5197 2.30967 2.30973C2.51964 2.09976 2.72961 1.93178 2.98157 1.8058C3.23353 1.67982 3.4855 1.59583 3.82145 1.55384C4.1994 1.46985 4.57734 1.46985 4.91329 1.46985H63.2849Z" fill="white"/>
<path d="M18.9812 14.9499C19.5692 14.1941 19.9891 13.1862 19.8631 12.1783C18.9812 12.2203 17.9314 12.7663 17.3015 13.4802C16.7556 14.1101 16.2516 15.1599 16.3776 16.1258C17.3855 16.2518 18.3513 15.7058 18.9812 14.9499ZM19.8631 16.3777C18.4353 16.2938 17.2175 17.1756 16.5456 17.1756C15.8737 17.1756 14.8238 16.4197 13.69 16.4197C12.2202 16.4617 10.8764 17.2596 10.1205 18.6034C8.60874 21.249 9.70058 25.1545 11.2124 27.2962C11.9263 28.346 12.8081 29.5218 13.942 29.4799C15.0338 29.4379 15.4538 28.766 16.7556 28.766C18.0574 28.766 18.4353 29.4799 19.6112 29.4379C20.787 29.3959 21.5429 28.388 22.2568 27.2962C23.0967 26.0783 23.4326 24.9025 23.4326 24.8605C23.3906 24.8185 21.1229 23.9786 21.1229 21.375C21.0809 19.1913 22.8867 18.1415 22.9707 18.0995C22.0048 16.5877 20.409 16.4197 19.8631 16.3777Z" fill="black"/>
<path d="M32.2094 13.3961C35.3169 13.3961 37.4586 15.5378 37.4586 18.6034C37.4586 21.7109 35.2749 23.8526 32.1254 23.8526H28.7239V29.2698H26.2462V13.3961H32.2094ZM28.7239 21.7949H31.5375C33.6791 21.7949 34.897 20.6191 34.897 18.6454C34.897 16.6297 33.6791 15.4958 31.5375 15.4958H28.6819V21.7949H28.7239ZM38.0885 26.0363C38.0885 24.0206 39.6423 22.7608 42.4139 22.5928L45.6054 22.4248V21.5429C45.6054 20.2411 44.7236 19.4852 43.2958 19.4852C41.91 19.4852 41.0701 20.1571 40.8601 21.165H38.5924C38.7184 19.0653 40.5242 17.5115 43.3798 17.5115C46.1933 17.5115 47.9991 18.9813 47.9991 21.333V29.3118H45.7314V27.4221H45.6894C45.0175 28.7239 43.5477 29.5218 42.0359 29.5218C39.6843 29.5218 38.0885 28.094 38.0885 26.0363ZM45.6054 24.9865V24.0626L42.7498 24.2306C41.322 24.3145 40.5242 24.9445 40.5242 25.9523C40.5242 26.9602 41.364 27.6321 42.6239 27.6321C44.3036 27.6321 45.6054 26.4982 45.6054 24.9865ZM50.0988 33.5952V31.6635C50.2668 31.7055 50.6867 31.7055 50.8547 31.7055C51.9465 31.7055 52.5344 31.2435 52.9124 30.0677C52.9124 30.0257 53.1223 29.3538 53.1223 29.3538L48.923 17.7635H51.4846L54.4242 27.2121H54.4662L57.4057 17.7635H59.9254L55.6 29.9837C54.5921 32.7973 53.4583 33.6792 51.0646 33.6792C50.8967 33.6372 50.3088 33.6372 50.0988 33.5952Z" fill="black"/>
</svg>
