<svg width="13" height="15" viewBox="0 0 13 15" fill="none" xmlns="http://www.w3.org/2000/svg">
<path d="M3.19936 2.3743C2.47478 2.37483 2.09498 2.38346 1.80058 2.52406C1.52469 2.65581 1.30038 2.86604 1.15981 3.12463C1 3.4186 1 3.80343 1 4.5731V11.1696C1 11.9392 1 12.3241 1.15981 12.6181C1.30038 12.8766 1.52469 13.0869 1.80058 13.2186C2.11422 13.3684 2.52481 13.3684 3.34598 13.3684H8.91769C9.73886 13.3684 10.1495 13.3684 10.4631 13.2186C10.739 13.0869 10.9633 12.8766 11.1039 12.6181C11.2637 12.3241 11.2637 11.9392 11.2637 11.1696V4.5731C11.2637 3.80343 11.2637 3.4186 11.1039 3.12463C10.9633 2.86604 10.739 2.65581 10.4631 2.52406C10.1687 2.38346 9.78893 2.37483 9.06431 2.3743M3.19936 2.3743V3.74854H9.06431V2.3743M3.19936 2.3743V2.17301C3.19936 1.86191 3.33122 1.56355 3.56592 1.34357C3.80062 1.12359 4.11895 1 4.45087 1H7.81281C8.14469 1 8.46308 1.12359 8.69775 1.34357C8.93243 1.56355 9.06431 1.86191 9.06431 2.17301V2.3743" stroke="#707070" stroke-width="2" stroke-linecap="round" stroke-linejoin="round"/>
</svg>
