<svg width="13" height="13" viewBox="0 0 13 13" fill="none" xmlns="http://www.w3.org/2000/svg">
<path fill-rule="evenodd" clip-rule="evenodd" d="M4.80586 0.759753C4.65172 0.891116 4.57464 0.956807 4.49232 1.01198C4.30363 1.13845 4.09171 1.22622 3.86886 1.27022C3.77164 1.28942 3.67069 1.29747 3.4688 1.31358C2.96154 1.35407 2.7079 1.3743 2.4963 1.44905C2.00688 1.62191 1.62191 2.00688 1.44905 2.4963C1.3743 2.7079 1.35407 2.96154 1.31358 3.4688C1.29747 3.67069 1.28942 3.77164 1.27022 3.86886C1.22622 4.09171 1.13845 4.30363 1.01198 4.49232C0.956807 4.57464 0.891122 4.65171 0.759753 4.80586C0.42969 5.19319 0.264652 5.38682 0.167881 5.58931C-0.0559605 6.05765 -0.0559605 6.60202 0.167881 7.07036C0.264658 7.27285 0.42969 7.46649 0.759753 7.85381C0.891103 8.00794 0.956807 8.08504 1.01198 8.16732C1.13845 8.35602 1.22622 8.56794 1.27022 8.79081C1.28942 8.88804 1.29747 8.989 1.31358 9.19086C1.35407 9.69813 1.3743 9.95177 1.44905 10.1634C1.62191 10.6528 2.00688 11.0378 2.4963 11.2106C2.7079 11.2853 2.96154 11.3056 3.4688 11.3461C3.67069 11.3622 3.77164 11.3703 3.86886 11.3895C4.09171 11.4335 4.30363 11.5212 4.49232 11.6477C4.57464 11.7029 4.65171 11.7686 4.80586 11.8999C5.19319 12.23 5.38682 12.395 5.58931 12.4918C6.05765 12.7156 6.60202 12.7156 7.07036 12.4918C7.27285 12.395 7.46649 12.23 7.85381 11.8999C8.00794 11.7686 8.08504 11.7029 8.16732 11.6477C8.35602 11.5212 8.56794 11.4335 8.79081 11.3895C8.88804 11.3703 8.989 11.3622 9.19086 11.3461C9.69813 11.3056 9.95177 11.2853 10.1634 11.2106C10.6528 11.0378 11.0378 10.6528 11.2106 10.1634C11.2853 9.95177 11.3056 9.69813 11.3461 9.19086C11.3622 8.989 11.3703 8.88804 11.3895 8.79081C11.4335 8.56794 11.5212 8.35602 11.6477 8.16732C11.7029 8.08504 11.7686 8.00794 11.8999 7.85381C12.23 7.46649 12.395 7.27285 12.4918 7.07036C12.7156 6.60202 12.7156 6.05765 12.4918 5.58931C12.395 5.38682 12.23 5.19319 11.8999 4.80586C11.7686 4.65171 11.7029 4.57464 11.6477 4.49232C11.5212 4.30363 11.4335 4.09171 11.3895 3.86886C11.3703 3.77164 11.3622 3.67069 11.3461 3.4688C11.3056 2.96154 11.2853 2.7079 11.2106 2.4963C11.0378 2.00688 10.6528 1.62191 10.1634 1.44905C9.95177 1.3743 9.69813 1.35407 9.19086 1.31358C8.989 1.29747 8.88804 1.28942 8.79081 1.27022C8.56794 1.22622 8.35602 1.13845 8.16732 1.01198C8.08504 0.956807 8.00794 0.891122 7.85381 0.759753C7.46649 0.42969 7.27285 0.264658 7.07036 0.167881C6.60202 -0.0559605 6.05765 -0.0559605 5.58931 0.167881C5.38682 0.264652 5.19319 0.42969 4.80586 0.759753ZM9.09819 4.97724C9.29935 4.77605 9.29935 4.44988 9.09819 4.24869C8.89703 4.04751 8.57079 4.04751 8.36963 4.24869L5.29953 7.31881L4.29002 6.30933C4.08884 6.10817 3.76266 6.10817 3.56148 6.30933C3.3603 6.51049 3.3603 6.83667 3.56148 7.03789L4.93523 8.41166C5.13641 8.61282 5.46259 8.61282 5.66381 8.41166L9.09819 4.97724Z" fill="#177500"/>
</svg>
