<svg width="14" height="14" viewBox="0 0 14 14" fill="none" xmlns="http://www.w3.org/2000/svg">
<path d="M5.30544 1.47016C5.67257 1.15729 5.85612 1.00086 6.04806 0.909132C6.49197 0.696956 7.00802 0.696956 7.45193 0.909132C7.64387 1.00086 7.82742 1.15729 8.19456 1.47016C8.34067 1.59468 8.41372 1.65695 8.49179 1.70924C8.67064 1.82913 8.8715 1.91233 9.08271 1.95403C9.17491 1.97223 9.27055 1.97987 9.46197 1.99513C9.9428 2.0335 10.1832 2.05269 10.3838 2.12354C10.8477 2.2874 11.2126 2.6523 11.3765 3.11622C11.4473 3.3168 11.4665 3.55722 11.5049 4.03805C11.5201 4.22942 11.5277 4.32511 11.546 4.41726C11.5876 4.62851 11.6709 4.82937 11.7908 5.00824C11.8431 5.08627 11.9053 5.15932 12.0299 5.30544C12.3427 5.67256 12.4992 5.85617 12.5909 6.04805C12.803 6.49196 12.803 7.00801 12.5909 7.45192C12.4992 7.64386 12.3427 7.82741 12.0299 8.19455C11.9053 8.34066 11.8431 8.41371 11.7908 8.49178C11.6709 8.67063 11.5876 8.87149 11.546 9.08277C11.5277 9.1749 11.5201 9.27061 11.5049 9.46196C11.4665 9.94279 11.4473 10.1832 11.3765 10.3838C11.2126 10.8477 10.8477 11.2126 10.3838 11.3765C10.1832 11.4473 9.9428 11.4665 9.46197 11.5049C9.27055 11.5201 9.17491 11.5278 9.08271 11.546C8.8715 11.5877 8.67064 11.6708 8.49179 11.7908C8.41372 11.8431 8.34067 11.9053 8.19456 12.0299C7.82742 12.3427 7.64387 12.4992 7.45193 12.5909C7.00802 12.803 6.49197 12.803 6.04806 12.5909C5.85612 12.4992 5.67257 12.3427 5.30544 12.0299C5.15933 11.9053 5.08626 11.8431 5.00824 11.7908C4.82938 11.6708 4.62851 11.5877 4.41726 11.546C4.32511 11.5278 4.22942 11.5201 4.03805 11.5049C3.55722 11.4665 3.3168 11.4473 3.11623 11.3765C2.65231 11.2126 2.2874 10.8477 2.12354 10.3838C2.05269 10.1832 2.0335 9.94279 1.99514 9.46196C1.97986 9.27061 1.97223 9.1749 1.95403 9.08277C1.91233 8.87149 1.82913 8.67063 1.70924 8.49178C1.65695 8.41371 1.59468 8.34066 1.47016 8.19455C1.1573 7.82741 1.00087 7.64386 0.909128 7.45192C0.696957 7.00801 0.696957 6.49196 0.909128 6.04805C1.00087 5.85611 1.1573 5.67256 1.47016 5.30544C1.59468 5.15932 1.65695 5.08627 1.70924 5.00824C1.82913 4.82937 1.91233 4.62851 1.95403 4.41726C1.97223 4.32511 1.97986 4.22942 1.99514 4.03805C2.0335 3.55722 2.05269 3.3168 2.12354 3.11622C2.2874 2.6523 2.65231 2.2874 3.11623 2.12354C3.3168 2.05269 3.55722 2.0335 4.03805 1.99513C4.22942 1.97987 4.32511 1.97223 4.41726 1.95403C4.62851 1.91233 4.82938 1.82913 5.00824 1.70924C5.08627 1.65695 5.15933 1.59468 5.30544 1.47016Z" stroke="#BFAF00" stroke-width="1.5"/>
<path d="M5.20312 5.19415L6.74993 6.7502M8.29674 8.30775L6.74993 6.7502M6.74993 6.7502L8.29674 5.19416M6.74993 6.7502L5.20312 8.30775" stroke="#BFAF00" stroke-width="1.5" stroke-linecap="round" stroke-linejoin="round"/>
</svg>
