<svg width="13" height="13" viewBox="0 0 13 13" fill="none" xmlns="http://www.w3.org/2000/svg">
<path d="M8.2167 2.21592L9.90623 3.87657M0.75 11.3163L0.778344 11.1212C0.878644 10.4312 0.928797 10.0861 1.04287 9.76396C1.1441 9.47809 1.28238 9.20625 1.45431 8.95519C1.64806 8.6722 1.89881 8.42572 2.40031 7.93283L9.35817 1.09393C9.82475 0.635356 10.5812 0.635356 11.0478 1.09393C11.5143 1.55251 11.5143 2.29601 11.0478 2.75458L3.96219 9.71893C3.50722 10.1661 3.27974 10.3897 3.02063 10.5675C2.79064 10.7253 2.54259 10.8561 2.28158 10.9571C1.98753 11.0709 1.67215 11.1334 1.04146 11.2584L0.75 11.3163Z" stroke="#082109" stroke-width="1.5" stroke-linecap="round" stroke-linejoin="round"/>
</svg>
