<svg width="202" height="44" viewBox="0 0 202 44" fill="none" xmlns="http://www.w3.org/2000/svg">
<rect x="2" y="2" width="197.721" height="39.9537" stroke="#F4EAE1" stroke-width="4"/>
<path d="M27.2624 30.9768V28.9261L29.0788 28.5745V16.3284L27.2624 15.9768V13.9143H29.0788H35.3835C36.6882 13.9143 37.8132 14.1448 38.7585 14.6057C39.7038 15.0589 40.4304 15.6956 40.9382 16.5159C41.446 17.3284 41.6999 18.2776 41.6999 19.3636C41.6999 20.4495 41.446 21.4026 40.9382 22.2229C40.4304 23.0354 39.7038 23.6682 38.7585 24.1214C37.8132 24.5667 36.6882 24.7893 35.3835 24.7893H32.5007V28.5745L34.3288 28.9261V30.9768H27.2624ZM32.5007 22.1526H35.3835C36.3366 22.1526 37.0554 21.8948 37.5397 21.3792C38.0319 20.8557 38.278 20.1917 38.278 19.387C38.278 18.5667 38.0319 17.8909 37.5397 17.3596C37.0554 16.8206 36.3366 16.5511 35.3835 16.5511H32.5007V22.1526ZM44.7214 30.9768V28.9261L46.5379 28.5745V16.3284L44.7214 15.9768V13.9143H51.7761V15.9768L49.9597 16.3284V28.5745L51.7761 28.9261V30.9768H44.7214ZM71.5068 30.9768V28.7268L79.8271 16.5511H74.6357L74.3661 18.7307H71.7528L71.8935 13.9143H84.0341V16.094L75.6786 28.3518H81.62L81.9013 26.1721H84.5028L84.2919 30.9768H71.5068ZM120.497 30.9768L116.536 16.1526L114.79 15.9768V13.9143H121.657V15.9768L119.818 16.2464L121.821 24.5432L122.185 26.0667H122.255L122.689 24.5432L126.064 13.9143H128.583L132.087 24.8362L132.497 26.1839H132.568L132.919 24.8362L134.993 16.2464L133.048 15.9768V13.9143H139.786V15.9768L138.157 16.1526L134.15 30.9768H131.056L127.821 21.0042L127.411 19.5979H127.341L126.884 21.0511L123.614 30.9768H120.497ZM142.773 30.9768V28.9261L144.589 28.5745V16.3284L142.773 15.9768V13.9143H156.015V18.5198H153.39L153.238 16.5511H148.011V20.8401H153.788V23.4768H148.011V28.3518H153.519L153.671 26.3128H156.273V30.9768H142.773ZM160.021 30.9768V28.9261L161.837 28.5745V16.3284L160.021 15.9768V13.9143H161.837H167.603C169.611 13.9143 171.177 14.305 172.302 15.0862C173.427 15.8675 173.99 17.0354 173.99 18.5901C173.99 19.3792 173.779 20.0862 173.357 20.7112C172.943 21.3284 172.337 21.7932 171.54 22.1057C172.22 22.2542 172.786 22.5159 173.24 22.8909C173.701 23.2659 174.044 23.7229 174.271 24.262C174.497 24.7932 174.611 25.3753 174.611 26.0081C174.611 27.6409 174.072 28.8792 172.993 29.7229C171.915 30.5589 170.388 30.9768 168.411 30.9768H160.021ZM165.259 28.3518H168.411C169.318 28.3518 170.009 28.1565 170.486 27.7659C170.962 27.3675 171.201 26.7815 171.201 26.0081C171.201 25.1721 170.997 24.5354 170.591 24.0979C170.185 23.6526 169.544 23.43 168.669 23.43H165.259V28.3518ZM165.259 21.0628H167.72C168.634 21.0628 169.337 20.8753 169.829 20.5003C170.322 20.1253 170.568 19.5784 170.568 18.8596C170.568 18.0706 170.318 17.4886 169.818 17.1136C169.326 16.7386 168.587 16.5511 167.603 16.5511H165.259V21.0628Z" fill="#F4EAE1"/>
<path d="M55.2196 30.9768V28.7268L63.5399 16.5511H58.3485L58.0789 18.7307H55.4657L55.6063 13.9143H67.7469V16.094L59.3914 28.3518H65.3329L65.6141 26.1721H68.2157L68.0047 30.9768H55.2196Z" fill="#75A843"/>
<path d="M87.4307 30.9768V28.9261L88.6494 28.7503L94.0752 13.9143H97.5791L102.97 28.7503L104.188 28.9261V30.9768H98.376V28.9261L99.5596 28.7151L98.8096 26.3714H92.8096L92.0596 28.7151L93.2432 28.9261V30.9768H87.4307ZM93.6182 23.8518H98.001L96.0088 18.0042L95.8447 17.4886H95.7744L95.5986 18.0393L93.6182 23.8518Z" fill="#ED4C5C"/>
</svg>
