<svg width="140" height="35" viewBox="0 0 140 35" fill="none" xmlns="http://www.w3.org/2000/svg">
<rect x="1.5" y="1.5" width="136.783" height="31.0357" fill="#0C260D" stroke="#F4EAE1" stroke-width="3"/>
<path d="M24.3929 22.5175V21.2357L25.5281 21.016V13.3622L24.3929 13.1425V11.8534H25.5281H29.4686C30.284 11.8534 30.9871 11.9974 31.5779 12.2855C32.1688 12.5687 32.6229 12.9667 32.9402 13.4794C33.2576 13.9872 33.4163 14.5804 33.4163 15.2592C33.4163 15.9379 33.2576 16.5336 32.9402 17.0463C32.6229 17.5541 32.1688 17.9496 31.5779 18.2328C30.9871 18.5111 30.284 18.6503 29.4686 18.6503H27.6668V21.016L28.8094 21.2357V22.5175H24.3929ZM27.6668 17.0023H29.4686C30.0643 17.0023 30.5135 16.8412 30.8162 16.5189C31.1238 16.1918 31.2776 15.7767 31.2776 15.2738C31.2776 14.7611 31.1238 14.3387 30.8162 14.0067C30.5135 13.6698 30.0643 13.5013 29.4686 13.5013H27.6668V17.0023ZM35.3048 22.5175V21.2357L36.44 21.016V13.3622L35.3048 13.1425V11.8534H39.714V13.1425L38.5787 13.3622V21.016L39.714 21.2357V22.5175H35.3048ZM52.0456 22.5175V21.1112L57.2458 13.5013H54.0012L53.8327 14.8636H52.1994L52.2873 11.8534H59.8752V13.2157L54.653 20.8768H58.3664L58.5422 19.5145H60.1682L60.0363 22.5175H52.0456ZM82.6646 22.5175L80.1891 13.2523L79.0978 13.1425V11.8534H83.3897V13.1425L82.2398 13.3109L83.4923 18.4965L83.7193 19.4486H83.7633L84.0343 18.4965L86.1437 11.8534H87.7184L89.9083 18.6796L90.1646 19.5219H90.2086L90.4283 18.6796L91.7247 13.3109L90.5089 13.1425V11.8534H94.7203V13.1425L93.7022 13.2523L91.1974 22.5175H89.2638L87.2423 16.2845L86.9859 15.4056H86.942L86.6563 16.3138L84.6129 22.5175H82.6646ZM96.5868 22.5175V21.2357L97.7221 21.016V13.3622L96.5868 13.1425V11.8534H104.863V14.7318H103.223L103.127 13.5013H99.8607V16.182H103.472V17.83H99.8607V20.8768H103.303L103.398 19.6024H105.024V22.5175H96.5868ZM107.367 22.5175V21.2357L108.502 21.016V13.3622L107.367 13.1425V11.8534H108.502H112.106C113.361 11.8534 114.34 12.0975 115.043 12.5858C115.746 13.0741 116.097 13.8041 116.097 14.7758C116.097 15.2689 115.966 15.7108 115.702 16.1014C115.443 16.4872 115.065 16.7777 114.567 16.973C114.991 17.0658 115.345 17.2294 115.629 17.4637C115.917 17.6981 116.132 17.9838 116.273 18.3207C116.415 18.6527 116.486 19.0165 116.486 19.412C116.486 20.4325 116.149 21.2064 115.475 21.7338C114.801 22.2562 113.846 22.5175 112.611 22.5175H107.367ZM110.641 20.8768H112.611C113.177 20.8768 113.61 20.7548 113.907 20.5106C114.205 20.2616 114.354 19.8954 114.354 19.412C114.354 18.8895 114.227 18.4916 113.973 18.2181C113.719 17.9398 113.319 17.8007 112.772 17.8007H110.641V20.8768ZM110.641 16.3212H112.179C112.75 16.3212 113.19 16.204 113.497 15.9696C113.805 15.7352 113.959 15.3934 113.959 14.9442C113.959 14.451 113.802 14.0873 113.49 13.8529C113.182 13.6185 112.721 13.5013 112.106 13.5013H110.641V16.3212Z" fill="#F4EAE1"/>
<path d="M41.8661 22.5175V21.1112L47.0663 13.5013H43.8217L43.6532 14.8636H42.0199L42.1078 11.8534H49.6957V13.2157L44.4735 20.8768H48.1869L48.3627 19.5145H49.9887L49.8568 22.5175H41.8661Z" fill="#75A843"/>
<path d="M61.998 22.5175V21.2357L62.7598 21.1259L66.1509 11.8534H68.3408L71.71 21.1259L72.4717 21.2357V22.5175H68.8389V21.2357L69.5786 21.1039L69.1099 19.639H65.3599L64.8911 21.1039L65.6309 21.2357V22.5175H61.998ZM65.8652 18.0643H68.6045L67.3594 14.4095L67.2568 14.0873H67.2129L67.103 14.4315L65.8652 18.0643Z" fill="#ED4C5C"/>
</svg>
