<svg width="20" height="20" viewBox="0 0 20 20" fill="none" xmlns="http://www.w3.org/2000/svg">
<path d="M5.10512 5.10518H5.11526M8.61441 1.00006H5.86557C4.16246 1.00006 3.3109 1.00006 2.66041 1.33151C2.0882 1.62306 1.623 2.08827 1.33145 2.66047C1 3.31096 1 4.16252 1 5.86563V8.61447C1 9.35819 1 9.7301 1.08402 10.0801C1.15852 10.3904 1.28138 10.687 1.44812 10.9592C1.63617 11.266 1.89915 11.5289 2.42509 12.0549L7.18929 16.8191C8.39353 18.0234 8.99575 18.6256 9.69 18.8511C10.3008 19.0496 10.9587 19.0496 11.5695 18.8511C12.2638 18.6256 12.866 18.0234 14.0702 16.8191L16.8191 14.0703C18.0233 12.8661 18.6255 12.2638 18.8511 11.5696C19.0495 10.9588 19.0495 10.3009 18.8511 9.69006C18.6255 8.99581 18.0233 8.39359 16.8191 7.18936L12.0549 2.42516C11.5289 1.89921 11.2659 1.63623 10.9591 1.44818C10.6869 1.28144 10.3903 1.15858 10.0801 1.08408C9.73004 1.00006 9.35813 1.00006 8.61441 1.00006ZM5.61195 5.10518C5.61195 5.3851 5.38504 5.61201 5.10512 5.61201C4.82521 5.61201 4.59829 5.3851 4.59829 5.10518C4.59829 4.82527 4.82521 4.59835 5.10512 4.59835C5.38504 4.59835 5.61195 4.82527 5.61195 5.10518Z" stroke="#FDF8E2" stroke-width="2" stroke-linecap="round" stroke-linejoin="round"/>
</svg>
