<svg width="16" height="18" viewBox="0 0 16 18" fill="none" xmlns="http://www.w3.org/2000/svg">
<path d="M13.3205 0H1.80042C0.807351 0 0 0.806815 0 1.79935V16.2009C0 17.1932 0.807351 18 1.80042 18H13.3205C14.3133 18 15.1206 17.1932 15.1206 16.2009V1.79935C15.1212 0.806815 14.3138 0 13.3205 0ZM13.3205 17.2808H1.80042C1.20487 17.2808 0.720383 16.7963 0.720383 16.2009V1.79935C0.720383 1.20424 1.20487 0.719848 1.80042 0.719848H13.3205C13.9159 0.719848 14.4003 1.20433 14.4003 1.79935V16.2009H14.4009C14.4008 16.7963 13.9163 17.2808 13.3205 17.2808ZM2.32098 3.19012C2.32098 3.0069 2.46857 2.85876 2.65126 2.85876H10.2431C10.4257 2.85876 10.5736 3.0069 10.5736 3.19012C10.5736 3.3728 10.4257 3.52093 10.2431 3.52093H2.65126C2.46857 3.52093 2.32098 3.37334 2.32098 3.19012ZM2.32098 4.69722C2.32098 4.51454 2.46857 4.36632 2.65126 4.36632H10.2431C10.4257 4.36632 10.5736 4.51445 10.5736 4.69722C10.5736 4.87991 10.4257 5.02804 10.2431 5.02804H2.65126C2.46857 5.02804 2.32098 4.87991 2.32098 4.69722ZM2.32098 6.20433C2.32098 6.02165 2.46857 5.87352 2.65126 5.87352H10.2431C10.4257 5.87352 10.5736 6.02165 10.5736 6.20433C10.5736 6.38755 10.4257 6.53568 10.2431 6.53568H2.65126C2.46857 6.53568 2.32098 6.38809 2.32098 6.20433ZM6.77793 7.71314C6.77793 7.89582 6.63033 8.04395 6.44765 8.04395H2.65179C2.46911 8.04395 2.32098 7.89582 2.32098 7.71314C2.32098 7.52992 2.46911 7.38179 2.65179 7.38179H6.44765C6.63033 7.3817 6.77793 7.52929 6.77793 7.71314ZM5.63913 10.6896C5.63913 10.8717 5.49181 11.0201 5.30912 11.0201H2.65179C2.46857 11.0201 2.32098 10.8717 2.32098 10.6896C2.32098 10.5064 2.46857 10.3585 2.65179 10.3585H5.30912C5.49181 10.3585 5.63913 10.5064 5.63913 10.6896ZM13.0122 9.01113C12.0792 7.39643 10.0061 6.84186 8.39013 7.77323C6.77543 8.70648 6.21924 10.7793 7.15249 12.3924C8.08458 14.0104 10.1572 14.5634 11.7719 13.6315C13.389 12.6996 13.9446 10.626 13.0122 9.01113ZM7.63858 12.1135C6.85918 10.7651 7.32303 9.03622 8.67085 8.25762C10.0181 7.48036 11.747 7.94422 12.5268 9.29177C13.3042 10.6402 12.8411 12.368 11.4937 13.1482C10.1441 13.9272 8.41638 13.4619 7.63858 12.1135ZM13.7424 15.3615L12.2891 16.202L11.1685 14.2649L12.6223 13.4238L13.7424 15.3615ZM13.8946 15.6269C14.1272 16.0292 13.9892 16.543 13.5875 16.7746C13.1857 17.0062 12.6724 16.8698 12.4386 16.4669L13.8946 15.6269Z" fill="black"/>
</svg>
