<svg width="13" height="13" viewBox="0 0 13 13" fill="none" xmlns="http://www.w3.org/2000/svg">
<path d="M3.33209 3.33215H3.33846M5.5394 0.750061H3.8104C2.73916 0.750061 2.20354 0.750061 1.79438 0.958538C1.43447 1.14192 1.14186 1.43453 0.958477 1.79444C0.75 2.2036 0.75 2.73922 0.75 3.81046V5.53947C0.75 6.00726 0.75 6.24119 0.802849 6.46135C0.849705 6.65651 0.926987 6.84307 1.03186 7.01426C1.15015 7.20726 1.31556 7.37265 1.64637 7.70349L4.64302 10.7001C5.40047 11.4576 5.77926 11.8364 6.21594 11.9782C6.60015 12.1031 7.01395 12.1031 7.39815 11.9782C7.83483 11.8364 8.21362 11.4576 8.97107 10.7001L10.7001 8.97113C11.4575 8.21368 11.8363 7.8349 11.9782 7.39821C12.103 7.01401 12.103 6.60021 11.9782 6.21601C11.8363 5.77932 11.4575 5.40054 10.7001 4.64308L7.70343 1.64643C7.37259 1.31562 7.2072 1.15021 7.0142 1.03192C6.84301 0.927048 6.65645 0.849766 6.46129 0.80291C6.24113 0.750061 6.0072 0.750061 5.5394 0.750061ZM3.65088 3.33215C3.65088 3.50822 3.50816 3.65094 3.33209 3.65094C3.15603 3.65094 3.0133 3.50822 3.0133 3.33215C3.0133 3.15609 3.15603 3.01336 3.33209 3.01336C3.50816 3.01336 3.65088 3.15609 3.65088 3.33215Z" stroke="#009C22" stroke-width="1.5" stroke-linecap="round" stroke-linejoin="round"/>
</svg>
