<svg width="36" height="36" viewBox="0 0 36 36" fill="none" xmlns="http://www.w3.org/2000/svg">
<path d="M34.6121 2.19117L33.5338 1.11295C32.8486 0.429148 31.6498 0.429148 30.9666 1.11295L20.3073 11.7708L21.5789 13.0423L18.1796 16.4413C16.3028 14.6774 13.9779 13.5489 11.4223 13.1854L11.2412 14.4615C13.6498 14.8037 15.8348 15.8967 17.5602 17.6214C19.2857 19.3473 20.3788 21.5321 20.7204 23.9412L21.9966 23.7601C21.6569 21.3684 20.6508 19.1765 19.0768 17.3662L22.4897 13.9536L23.9521 15.4166L34.6121 4.75879C34.9537 4.41657 35.1425 3.96092 35.1425 3.47498C35.1425 2.98904 34.9543 2.53274 34.6121 2.19117ZM25.0388 8.86286L27.7736 9.77416L27.4255 10.1222L24.6907 9.21088L25.0388 8.86286ZM22.13 11.7708L23.6717 10.2298L26.4065 11.1411L23.9534 13.594L22.13 11.7708ZM33.7007 3.84684L28.7919 8.75523L26.0572 7.84393L31.878 2.02424C32.0745 1.82639 32.4239 1.82639 32.6211 2.02424L33.7001 3.10246C33.7987 3.20107 33.8528 3.33319 33.8528 3.47498C33.8535 3.61612 33.7993 3.74824 33.7007 3.84684Z" fill="black" stroke="black" stroke-width="1.20064"/>
<path d="M10.2681 15.2456C7.68548 15.2456 5.25816 16.2516 3.43219 18.0775C1.60622 19.9033 0.600098 22.3311 0.600098 24.9129C0.600098 27.4953 1.60622 29.9224 3.43219 31.7482C5.25816 33.5741 7.68548 34.5801 10.2681 34.5801C12.8508 34.5801 15.2781 33.5741 17.1047 31.7482C18.9307 29.9224 19.9362 27.4953 19.9362 24.9129C19.9362 22.3311 18.9301 19.9033 17.1041 18.0775C15.2781 16.251 12.8508 15.2456 10.2681 15.2456ZM16.1934 30.8369C14.6104 32.4191 12.5066 33.2911 10.2681 33.2911C8.03031 33.2911 5.9259 32.4191 4.34356 30.8369C2.76123 29.2547 1.88917 27.1505 1.88917 24.9129C1.88917 22.6752 2.76123 20.5716 4.34356 18.9888C5.92654 17.4066 8.03031 16.5346 10.2681 16.5346C12.5066 16.5346 14.6104 17.4066 16.1934 18.9888C17.7757 20.571 18.6471 22.6752 18.6471 24.9129C18.6471 27.1505 17.7757 29.2547 16.1934 30.8369Z" fill="black" stroke="black" stroke-width="1.20064"/>
<path d="M10.2681 21.6909C9.40699 21.6909 8.5981 22.0267 7.98901 22.6351C7.37992 23.2435 7.04541 24.0523 7.04541 24.9133C7.04541 25.7744 7.38057 26.5832 7.98901 27.1916C8.59745 27.8 9.40699 28.1358 10.2681 28.1358C11.1285 28.1358 11.9381 27.8 12.5465 27.1916C13.155 26.5832 13.4908 25.7744 13.4908 24.9133C13.4908 24.0523 13.1556 23.2435 12.5472 22.6351C11.9387 22.0267 11.1292 21.6909 10.2681 21.6909ZM11.6358 26.2803C10.9049 27.0105 9.63193 27.0105 8.90103 26.2803C8.53622 25.9149 8.33448 25.4296 8.33448 24.9133C8.33448 24.3971 8.53558 23.9112 8.90039 23.5464C9.26584 23.1816 9.75117 22.9799 10.2681 22.9799C10.7844 22.9799 11.2697 23.1816 11.6352 23.5464C12.0006 23.9112 12.2017 24.3965 12.2017 24.9133C12.2017 25.4302 12.0006 25.9149 11.6358 26.2803Z" fill="black" stroke="black" stroke-width="1.20064"/>
</svg>
