<svg width="28" height="24" viewBox="0 0 28 24" fill="none" xmlns="http://www.w3.org/2000/svg">
<path d="M26.4446 22.287C26.4446 19.8735 24.1308 17.8203 20.9013 17.0592M18.1297 22.2872C18.1297 19.2258 14.407 16.7439 9.81486 16.7439C5.22269 16.7439 1.5 19.2258 1.5 22.2872M18.1297 12.5865C21.1911 12.5865 23.673 10.1046 23.673 7.04324C23.673 3.98179 21.1911 1.5 18.1297 1.5M9.81486 12.5865C6.75341 12.5865 4.27162 10.1046 4.27162 7.04324C4.27162 3.98179 6.75341 1.5 9.81486 1.5C12.8763 1.5 15.3581 3.98179 15.3581 7.04324C15.3581 10.1046 12.8763 12.5865 9.81486 12.5865Z" stroke="#FDF8E2" stroke-opacity="1" stroke-width="3" stroke-linecap="round" stroke-linejoin="round"/>
</svg>
