<?xml version="1.0" encoding="UTF-8"?>
<svg version="1.1" xmlns="http://www.w3.org/2000/svg" width="1024" height="1024">
<path d="M0 0 C1.0828125 0.26151855 2.165625 0.52303711 3.28125 0.79248047 C52.60817965 12.89447508 100.28974061 35.10844447 142 64 C142.66805664 64.45697266 143.33611328 64.91394531 144.02441406 65.38476562 C157.69809833 74.74544434 170.68836631 84.90107541 183 96 C184.07314453 96.95326172 184.07314453 96.95326172 185.16796875 97.92578125 C190.46664037 102.65395968 195.68097216 107.4700563 200.875 112.3125 C201.51767822 112.9113501 202.16035645 113.5102002 202.82250977 114.12719727 C204.55389327 115.7456892 206.27806217 117.37147169 208 119 C208.80695312 119.75667969 209.61390625 120.51335937 210.4453125 121.29296875 C212 123 212 123 212 125 C212.99 125.33 213.98 125.66 215 126 C216.47265625 127.4609375 216.47265625 127.4609375 218.0625 129.375 C220.88013056 132.70653802 223.7776669 135.93056888 226.75 139.125 C244.40893398 158.53918947 259.91379934 180.61114102 273.1340332 203.25488281 C274.60702848 205.76597279 275.93151588 207.93151588 278 210 C279.19240545 212.23538665 280.32875083 214.47350502 281.4375 216.75 C282.15821949 218.21775974 282.87960974 219.68519024 283.6015625 221.15234375 C283.98860352 221.9397998 284.37564453 222.72725586 284.77441406 223.53857422 C286.02016172 226.04049213 287.29845638 228.52323167 288.5859375 231.00390625 C306.12868853 264.98980834 318.74640145 301.67886745 327 339 C327.22155762 340.0012793 327.44311523 341.00255859 327.67138672 342.03417969 C328.27604162 344.8114222 328.8637593 347.5912184 329.4375 350.375 C329.60185547 351.17164063 329.76621094 351.96828125 329.93554688 352.7890625 C330.74152653 356.92377428 331.16810033 360.7638716 331 365 C331.66 365.33 332.32 365.66 333 366 C333.34375 368.3515625 333.34375 368.3515625 333.5 371.625 C333.74545439 376.01249723 334.01832981 380.37473057 334.46875 384.74609375 C337.24205086 412.03537421 337.64390483 439.63011048 336 467 C335.95536621 467.90057129 335.91073242 468.80114258 335.86474609 469.72900391 C333.37199551 518.63223803 319.58564453 568.31773795 300 613 C299.58137695 613.96067383 299.16275391 614.92134766 298.73144531 615.91113281 C282.44676173 653.03151977 261.15483352 688.40220997 234.52734375 719.0703125 C232.03670312 721.95745387 229.63817759 724.90286667 227.25 727.875 C224.13588699 731.71163204 220.90023618 735.2634338 217.3125 738.66015625 C215.87900567 739.98662929 215.87900567 739.98662929 215 742 C214.34 742 213.68 742 213 742 C212.74492676 742.58031982 212.48985352 743.16063965 212.22705078 743.75854492 C210.87263534 746.23265718 209.36587734 747.87721002 207.3671875 749.86328125 C206.64273438 750.58580078 205.91828125 751.30832031 205.171875 752.05273438 C204.41390625 752.79845703 203.6559375 753.54417969 202.875 754.3125 C201.77285156 755.41368164 201.77285156 755.41368164 200.6484375 756.53710938 C196.4764501 760.67604406 192.2065254 764.64646356 187.75537109 768.4831543 C185.58473846 770.35883448 183.48227058 772.30364827 181.375 774.25 C175.77135604 779.29924996 169.88204807 783.92225934 163.90820312 788.52001953 C161.9926375 790.00571027 160.09697421 791.51410213 158.203125 793.02734375 C140.39306411 807.12486631 120.85943861 819.02100088 101 830 C100.20803223 830.44118164 99.41606445 830.88236328 98.60009766 831.33691406 C66.29683041 849.20680658 31.53891552 861.38249502 -4 871 C-4.86157715 871.23477051 -5.7231543 871.46954102 -6.61083984 871.71142578 C-10.73406992 872.83328187 -14.86156238 873.93531474 -19 875 C-19.65355469 875.18046875 -20.30710937 875.3609375 -20.98046875 875.546875 C-24.40578491 876.31541789 -27.88692098 876.64333197 -31.36987305 877.05664062 C-36.16148718 877.63378326 -40.94062683 878.2686295 -45.71875 878.94921875 C-72.82119586 882.7472753 -99.76406987 884.16909888 -127.125 884.1875 C-128.01822968 884.18858765 -128.91145935 884.18967529 -129.83175659 884.1907959 C-132.34886581 884.1904463 -134.86574254 884.18144204 -137.3828125 884.16796875 C-138.14144089 884.16675522 -138.90006927 884.16554169 -139.6816864 884.16429138 C-144.88310096 884.11689904 -144.88310096 884.11689904 -146 883 C-148.32006367 882.6851944 -150.62379532 882.42733692 -152.953125 882.203125 C-154.44048522 882.05083435 -155.92778753 881.89797737 -157.41503906 881.74462891 C-158.59700867 881.62441376 -158.59700867 881.62441376 -159.80285645 881.50177002 C-185.27212902 878.88140913 -210.30735706 874.91249154 -235 868 C-236.53938232 867.56929199 -236.53938232 867.56929199 -238.10986328 867.12988281 C-272.85237626 857.24619082 -308.01268839 843.156506 -338.8828125 824.1796875 C-340.88723886 822.83775423 -340.88723886 822.83775423 -343 823 C-344.00993771 822.01003747 -345.00800932 821.00794568 -346 820 C-347.46618941 818.99677236 -348.96053058 818.0341144 -350.47265625 817.1015625 C-351.3632373 816.54654053 -352.25381836 815.99151855 -353.17138672 815.41967773 C-354.60248779 814.53131226 -354.60248779 814.53131226 -356.0625 813.625 C-371.5952447 803.8487469 -386.1538361 793.1457394 -400.26904297 781.42675781 C-401.79202839 780.17142258 -403.33405915 778.93926912 -404.87890625 777.7109375 C-417.61545526 767.57484634 -429.16902394 756.0271576 -440.50439453 744.37109375 C-441.17970215 743.68402344 -441.85500977 742.99695313 -442.55078125 742.2890625 C-443.14544189 741.67756348 -443.74010254 741.06606445 -444.3527832 740.43603516 C-446.05174742 738.76883457 -446.05174742 738.76883457 -449 738 C-449 737.01 -449 736.02 -449 735 C-450.61553359 733.04888682 -452.24089844 731.25027296 -454 729.4375 C-455.02441819 728.34980171 -456.04653707 727.25993352 -457.06640625 726.16796875 C-457.57059082 725.62833496 -458.07477539 725.08870117 -458.59423828 724.53271484 C-463.12442421 719.59341174 -467.11635376 714.20886988 -471.08984375 708.8203125 C-471.6319751 708.08780273 -472.17410645 707.35529297 -472.73266602 706.60058594 C-473.81639155 705.13199043 -474.89385728 703.65875224 -475.96459961 702.18066406 C-476.45839111 701.5100293 -476.95218262 700.83939453 -477.4609375 700.1484375 C-477.90228027 699.54177246 -478.34362305 698.93510742 -478.79833984 698.31005859 C-479.1948877 697.87773926 -479.59143555 697.44541992 -480 697 C-480.66 697 -481.32 697 -482 697 C-482.11754639 696.41476562 -482.23509277 695.82953125 -482.35620117 695.2265625 C-483.03475967 692.87978453 -483.91148844 691.37375299 -485.30078125 689.375 C-485.77725098 688.67890625 -486.2537207 687.9828125 -486.74462891 687.265625 C-487.26202637 686.51796875 -487.77942383 685.7703125 -488.3125 685 C-494.94455453 675.2285468 -501.05234149 665.19953987 -507 655 C-507.42490723 654.27941406 -507.84981445 653.55882812 -508.28759766 652.81640625 C-514.06516093 642.97874798 -519.10344248 632.82662129 -523.9375 622.5 C-524.4936499 621.31857422 -525.0497998 620.13714844 -525.62280273 618.91992188 C-528.37028395 612.96402638 -530.7547926 607.17827471 -532.36157227 600.81054688 C-532.83774473 598.79162657 -532.83774473 598.79162657 -535 598 C-535.7109375 596.35546875 -535.7109375 596.35546875 -536.375 594.1875 C-536.63152344 593.3728125 -536.88804687 592.558125 -537.15234375 591.71875 C-537.57193359 590.37296875 -537.57193359 590.37296875 -538 589 C-538.64183712 587.06117251 -539.28784643 585.1237224 -539.9375 583.1875 C-541.3125 579.0625 -542.6875 574.9375 -544.0625 570.8125 C-544.39121094 569.8328125 -544.71992187 568.853125 -545.05859375 567.84375 C-545.67070246 565.99472451 -546.26792029 564.14067963 -546.84765625 562.28125 C-547.10417969 561.4665625 -547.36070312 560.651875 -547.625 559.8125 C-547.84414063 559.09707031 -548.06328125 558.38164063 -548.2890625 557.64453125 C-548.88080357 555.79145862 -548.88080357 555.79145862 -551 555 C-551.94842964 552.58581546 -552.05463711 551.23131503 -551.45458984 548.69091797 C-550.9382431 545.63443364 -551.2964808 543.69385208 -552.0390625 540.6953125 C-552.4117627 539.1316394 -552.4117627 539.1316394 -552.79199219 537.53637695 C-553.06688477 536.41062256 -553.34177734 535.28486816 -553.625 534.125 C-558.99325843 511.0204059 -562.6933286 487.69532386 -564 464 C-564.06171387 462.93845703 -564.12342773 461.87691406 -564.18701172 460.78320312 C-566.98757328 410.1205244 -561.82582326 358.9658592 -547.92993164 310.1171875 C-547.67977295 309.23289062 -547.42961426 308.34859375 -547.171875 307.4375 C-546.9459668 306.65246094 -546.72005859 305.86742187 -546.48730469 305.05859375 C-545.88482432 302.86602696 -545.88482432 302.86602696 -546 300 C-545.34 300 -544.68 300 -544 300 C-543.88785156 299.16855469 -543.77570313 298.33710938 -543.66015625 297.48046875 C-542.92743431 293.61741996 -541.74281767 290.00907188 -540.4375 286.3125 C-538.60295541 281.28648982 -538.60295541 281.28648982 -538 276 C-537.34 276 -536.68 276 -536 276 C-535.83636963 275.40501709 -535.67273926 274.81003418 -535.50415039 274.19702148 C-533.6134663 267.58765216 -531.20351399 261.35115065 -528.4375 255.0625 C-527.99913818 254.06178467 -527.56077637 253.06106934 -527.10913086 252.0300293 C-523.21082045 243.25517555 -518.89266029 234.76238192 -514.27978516 226.34472656 C-512.97533345 223.9548078 -511.69518574 221.55300622 -510.41796875 219.1484375 C-500.75533731 201.09166261 -489.89086332 183.89972462 -477.32568359 167.72265625 C-475.33835917 165.14023247 -473.42618691 162.5031904 -471.5 159.875 C-463.64274348 149.39865797 -454.81616868 139.67033036 -446 130 C-445.17242187 129.07960937 -444.34484375 128.15921875 -443.4921875 127.2109375 C-433.8852532 116.59569522 -423.95503824 106.23581691 -413 97 C-412.04609375 96.15695313 -411.0921875 95.31390625 -410.109375 94.4453125 C-386.07337176 73.28169433 -359.20062049 55.39232933 -331.08740234 40.14208984 C-329.24106031 39.13189241 -327.41026331 38.09339588 -325.58203125 37.05078125 C-293.42404549 19.06794513 -257.05170756 6.75866145 -221.19970703 -1.2956543 C-220.11085205 -1.64430542 -220.11085205 -1.64430542 -219 -2 C-218.67 -2.66 -218.34 -3.32 -218 -4 C-216.42798828 -3.92652344 -216.42798828 -3.92652344 -214.82421875 -3.8515625 C-208.69960088 -3.85425523 -202.7990544 -5.19296264 -196.8125 -6.375 C-188.80860143 -7.92792787 -180.81851107 -9.38556433 -172.7487793 -10.55712891 C-170.12619597 -10.93134686 -170.12619597 -10.93134686 -168.11071777 -11.50811768 C-165.86385603 -12.03172703 -163.78357005 -12.2056727 -161.47973633 -12.31298828 C-160.58428604 -12.35611649 -159.68883575 -12.39924469 -158.76625061 -12.44367981 C-157.79795822 -12.4854686 -156.82966583 -12.52725739 -155.83203125 -12.5703125 C-154.30980202 -12.63921944 -154.30980202 -12.63921944 -152.75682068 -12.70951843 C-149.44231082 -12.85538894 -146.12754937 -12.99197114 -142.8125 -13.125 C-141.68187134 -13.17046967 -140.55124268 -13.21593933 -139.38635254 -13.26278687 C-92.21509451 -15.1040426 -45.93815156 -11.15583324 0 0 Z M-550 551 C-549 554 -549 554 -549 554 Z " fill="#FEC96C" transform="translate(626,76)"/>
<path d="M0 0 C1.0828125 0.26151855 2.165625 0.52303711 3.28125 0.79248047 C52.60817965 12.89447508 100.28974061 35.10844447 142 64 C142.66805664 64.45697266 143.33611328 64.91394531 144.02441406 65.38476562 C157.69809833 74.74544434 170.68836631 84.90107541 183 96 C184.07314453 96.95326172 184.07314453 96.95326172 185.16796875 97.92578125 C190.46664037 102.65395968 195.68097216 107.4700563 200.875 112.3125 C201.51767822 112.9113501 202.16035645 113.5102002 202.82250977 114.12719727 C204.55389327 115.7456892 206.27806217 117.37147169 208 119 C208.80695312 119.75667969 209.61390625 120.51335937 210.4453125 121.29296875 C212 123 212 123 212 125 C212.99 125.33 213.98 125.66 215 126 C216.47265625 127.4609375 216.47265625 127.4609375 218.0625 129.375 C220.88013056 132.70653802 223.7776669 135.93056888 226.75 139.125 C244.40893398 158.53918947 259.91379934 180.61114102 273.1340332 203.25488281 C274.60702848 205.76597279 275.93151588 207.93151588 278 210 C279.19240545 212.23538665 280.32875083 214.47350502 281.4375 216.75 C282.15821949 218.21775974 282.87960974 219.68519024 283.6015625 221.15234375 C283.98860352 221.9397998 284.37564453 222.72725586 284.77441406 223.53857422 C286.02016172 226.04049213 287.29845638 228.52323167 288.5859375 231.00390625 C306.12868853 264.98980834 318.74640145 301.67886745 327 339 C327.22155762 340.0012793 327.44311523 341.00255859 327.67138672 342.03417969 C328.27604162 344.8114222 328.8637593 347.5912184 329.4375 350.375 C329.60185547 351.17164063 329.76621094 351.96828125 329.93554688 352.7890625 C330.74152653 356.92377428 331.16810033 360.7638716 331 365 C331.66 365.33 332.32 365.66 333 366 C333.34375 368.3515625 333.34375 368.3515625 333.5 371.625 C333.74545439 376.01249723 334.01832981 380.37473057 334.46875 384.74609375 C337.24205086 412.03537421 337.64390483 439.63011048 336 467 C335.95536621 467.90057129 335.91073242 468.80114258 335.86474609 469.72900391 C333.37199551 518.63223803 319.58564453 568.31773795 300 613 C299.58137695 613.96067383 299.16275391 614.92134766 298.73144531 615.91113281 C282.44676173 653.03151977 261.15483352 688.40220997 234.52734375 719.0703125 C232.03670312 721.95745387 229.63817759 724.90286667 227.25 727.875 C224.13588699 731.71163204 220.90023618 735.2634338 217.3125 738.66015625 C215.87900567 739.98662929 215.87900567 739.98662929 215 742 C214.34 742 213.68 742 213 742 C212.74492676 742.58031982 212.48985352 743.16063965 212.22705078 743.75854492 C210.87263534 746.23265718 209.36587734 747.87721002 207.3671875 749.86328125 C206.64273438 750.58580078 205.91828125 751.30832031 205.171875 752.05273438 C204.41390625 752.79845703 203.6559375 753.54417969 202.875 754.3125 C201.77285156 755.41368164 201.77285156 755.41368164 200.6484375 756.53710938 C196.4764501 760.67604406 192.2065254 764.64646356 187.75537109 768.4831543 C185.58473846 770.35883448 183.48227058 772.30364827 181.375 774.25 C175.77135604 779.29924996 169.88204807 783.92225934 163.90820312 788.52001953 C161.9926375 790.00571027 160.09697421 791.51410213 158.203125 793.02734375 C140.39306411 807.12486631 120.85943861 819.02100088 101 830 C100.20803223 830.44118164 99.41606445 830.88236328 98.60009766 831.33691406 C66.29683041 849.20680658 31.53891552 861.38249502 -4 871 C-4.86157715 871.23477051 -5.7231543 871.46954102 -6.61083984 871.71142578 C-10.73406992 872.83328187 -14.86156238 873.93531474 -19 875 C-19.65355469 875.18046875 -20.30710937 875.3609375 -20.98046875 875.546875 C-24.40578491 876.31541789 -27.88692098 876.64333197 -31.36987305 877.05664062 C-36.16148718 877.63378326 -40.94062683 878.2686295 -45.71875 878.94921875 C-72.82119586 882.7472753 -99.76406987 884.16909888 -127.125 884.1875 C-128.01822968 884.18858765 -128.91145935 884.18967529 -129.83175659 884.1907959 C-132.34886581 884.1904463 -134.86574254 884.18144204 -137.3828125 884.16796875 C-138.14144089 884.16675522 -138.90006927 884.16554169 -139.6816864 884.16429138 C-144.88310096 884.11689904 -144.88310096 884.11689904 -146 883 C-148.32006367 882.6851944 -150.62379532 882.42733692 -152.953125 882.203125 C-154.44048522 882.05083435 -155.92778753 881.89797737 -157.41503906 881.74462891 C-158.59700867 881.62441376 -158.59700867 881.62441376 -159.80285645 881.50177002 C-185.27212902 878.88140913 -210.30735706 874.91249154 -235 868 C-236.53938232 867.56929199 -236.53938232 867.56929199 -238.10986328 867.12988281 C-272.85237626 857.24619082 -308.01268839 843.156506 -338.8828125 824.1796875 C-340.88723886 822.83775423 -340.88723886 822.83775423 -343 823 C-344.00993771 822.01003747 -345.00800932 821.00794568 -346 820 C-347.46618941 818.99677236 -348.96053058 818.0341144 -350.47265625 817.1015625 C-351.3632373 816.54654053 -352.25381836 815.99151855 -353.17138672 815.41967773 C-354.60248779 814.53131226 -354.60248779 814.53131226 -356.0625 813.625 C-371.5952447 803.8487469 -386.1538361 793.1457394 -400.26904297 781.42675781 C-401.79202839 780.17142258 -403.33405915 778.93926912 -404.87890625 777.7109375 C-417.61545526 767.57484634 -429.16902394 756.0271576 -440.50439453 744.37109375 C-441.17970215 743.68402344 -441.85500977 742.99695313 -442.55078125 742.2890625 C-443.14544189 741.67756348 -443.74010254 741.06606445 -444.3527832 740.43603516 C-446.05174742 738.76883457 -446.05174742 738.76883457 -449 738 C-449 737.01 -449 736.02 -449 735 C-450.61553359 733.04888682 -452.24089844 731.25027296 -454 729.4375 C-455.02441819 728.34980171 -456.04653707 727.25993352 -457.06640625 726.16796875 C-457.57059082 725.62833496 -458.07477539 725.08870117 -458.59423828 724.53271484 C-463.12442421 719.59341174 -467.11635376 714.20886988 -471.08984375 708.8203125 C-471.6319751 708.08780273 -472.17410645 707.35529297 -472.73266602 706.60058594 C-473.81639155 705.13199043 -474.89385728 703.65875224 -475.96459961 702.18066406 C-476.45839111 701.5100293 -476.95218262 700.83939453 -477.4609375 700.1484375 C-477.90228027 699.54177246 -478.34362305 698.93510742 -478.79833984 698.31005859 C-479.1948877 697.87773926 -479.59143555 697.44541992 -480 697 C-480.66 697 -481.32 697 -482 697 C-482.11754639 696.41476562 -482.23509277 695.82953125 -482.35620117 695.2265625 C-483.03475967 692.87978453 -483.91148844 691.37375299 -485.30078125 689.375 C-485.77725098 688.67890625 -486.2537207 687.9828125 -486.74462891 687.265625 C-487.26202637 686.51796875 -487.77942383 685.7703125 -488.3125 685 C-494.94455453 675.2285468 -501.05234149 665.19953987 -507 655 C-507.42490723 654.27941406 -507.84981445 653.55882812 -508.28759766 652.81640625 C-514.06516093 642.97874798 -519.10344248 632.82662129 -523.9375 622.5 C-524.4936499 621.31857422 -525.0497998 620.13714844 -525.62280273 618.91992188 C-528.37028395 612.96402638 -530.7547926 607.17827471 -532.36157227 600.81054688 C-532.83774473 598.79162657 -532.83774473 598.79162657 -535 598 C-535.7109375 596.35546875 -535.7109375 596.35546875 -536.375 594.1875 C-536.63152344 593.3728125 -536.88804687 592.558125 -537.15234375 591.71875 C-537.57193359 590.37296875 -537.57193359 590.37296875 -538 589 C-538.64183712 587.06117251 -539.28784643 585.1237224 -539.9375 583.1875 C-541.3125 579.0625 -542.6875 574.9375 -544.0625 570.8125 C-544.39121094 569.8328125 -544.71992187 568.853125 -545.05859375 567.84375 C-545.67070246 565.99472451 -546.26792029 564.14067963 -546.84765625 562.28125 C-547.10417969 561.4665625 -547.36070312 560.651875 -547.625 559.8125 C-547.84414063 559.09707031 -548.06328125 558.38164063 -548.2890625 557.64453125 C-548.88080357 555.79145862 -548.88080357 555.79145862 -551 555 C-551.94842964 552.58581546 -552.05463711 551.23131503 -551.45458984 548.69091797 C-550.9382431 545.63443364 -551.2964808 543.69385208 -552.0390625 540.6953125 C-552.4117627 539.1316394 -552.4117627 539.1316394 -552.79199219 537.53637695 C-553.06688477 536.41062256 -553.34177734 535.28486816 -553.625 534.125 C-558.99325843 511.0204059 -562.6933286 487.69532386 -564 464 C-564.06171387 462.93845703 -564.12342773 461.87691406 -564.18701172 460.78320312 C-566.98757328 410.1205244 -561.82582326 358.9658592 -547.92993164 310.1171875 C-547.67977295 309.23289062 -547.42961426 308.34859375 -547.171875 307.4375 C-546.9459668 306.65246094 -546.72005859 305.86742187 -546.48730469 305.05859375 C-545.88482432 302.86602696 -545.88482432 302.86602696 -546 300 C-545.34 300 -544.68 300 -544 300 C-543.88785156 299.16855469 -543.77570313 298.33710938 -543.66015625 297.48046875 C-542.92743431 293.61741996 -541.74281767 290.00907188 -540.4375 286.3125 C-538.60295541 281.28648982 -538.60295541 281.28648982 -538 276 C-537.34 276 -536.68 276 -536 276 C-535.83636963 275.40501709 -535.67273926 274.81003418 -535.50415039 274.19702148 C-533.6134663 267.58765216 -531.20351399 261.35115065 -528.4375 255.0625 C-527.99913818 254.06178467 -527.56077637 253.06106934 -527.10913086 252.0300293 C-523.21082045 243.25517555 -518.89266029 234.76238192 -514.27978516 226.34472656 C-512.97533345 223.9548078 -511.69518574 221.55300622 -510.41796875 219.1484375 C-500.75533731 201.09166261 -489.89086332 183.89972462 -477.32568359 167.72265625 C-475.33835917 165.14023247 -473.42618691 162.5031904 -471.5 159.875 C-463.64274348 149.39865797 -454.81616868 139.67033036 -446 130 C-445.17242187 129.07960937 -444.34484375 128.15921875 -443.4921875 127.2109375 C-433.8852532 116.59569522 -423.95503824 106.23581691 -413 97 C-412.04609375 96.15695313 -411.0921875 95.31390625 -410.109375 94.4453125 C-386.07337176 73.28169433 -359.20062049 55.39232933 -331.08740234 40.14208984 C-329.24106031 39.13189241 -327.41026331 38.09339588 -325.58203125 37.05078125 C-293.42404549 19.06794513 -257.05170756 6.75866145 -221.19970703 -1.2956543 C-220.11085205 -1.64430542 -220.11085205 -1.64430542 -219 -2 C-218.67 -2.66 -218.34 -3.32 -218 -4 C-216.42798828 -3.92652344 -216.42798828 -3.92652344 -214.82421875 -3.8515625 C-208.69960088 -3.85425523 -202.7990544 -5.19296264 -196.8125 -6.375 C-188.80860143 -7.92792787 -180.81851107 -9.38556433 -172.7487793 -10.55712891 C-170.12619597 -10.93134686 -170.12619597 -10.93134686 -168.11071777 -11.50811768 C-165.86385603 -12.03172703 -163.78357005 -12.2056727 -161.47973633 -12.31298828 C-160.58428604 -12.35611649 -159.68883575 -12.39924469 -158.76625061 -12.44367981 C-157.79795822 -12.4854686 -156.82966583 -12.52725739 -155.83203125 -12.5703125 C-154.30980202 -12.63921944 -154.30980202 -12.63921944 -152.75682068 -12.70951843 C-149.44231082 -12.85538894 -146.12754937 -12.99197114 -142.8125 -13.125 C-141.68187134 -13.17046967 -140.55124268 -13.21593933 -139.38635254 -13.26278687 C-92.21509451 -15.1040426 -45.93815156 -11.15583324 0 0 Z M-188.125 59.25 C-188.87727875 59.39962189 -189.6295575 59.54924377 -190.40463257 59.70339966 C-227.51145292 67.10435534 -264.81807997 79.29295482 -297.90478516 97.83105469 C-299.9185375 98.9545511 -301.94609469 100.04720708 -303.98046875 101.1328125 C-329.77867224 115.05565248 -353.4626207 133.19002142 -375 153 C-376.66624255 154.47964441 -378.33291702 155.95880256 -380 157.4375 C-387.8436686 164.50542116 -395.15229676 171.96976166 -402 180 C-402.84820312 180.9590625 -403.69640625 181.918125 -404.5703125 182.90625 C-472.5426378 260.13803512 -499.56970175 357.65390504 -496.57421875 467.95703125 C-494.50645725 496.0785876 -488.44631769 524.12842948 -480 551 C-479.73783691 551.83885742 -479.47567383 552.67771484 -479.20556641 553.54199219 C-464.19196982 600.71683731 -438.28216806 648.55313701 -404.08984375 684.76953125 C-402.32077094 686.65764447 -400.63959595 688.58271266 -398.95703125 690.546875 C-394.59629392 695.5467309 -389.93899489 700.24707285 -385.24951172 704.93579102 C-383.76106763 706.42641615 -382.28082723 707.92487017 -380.80078125 709.42382812 C-374.52732407 715.73363979 -367.97210908 721.45735205 -361 727 C-359.97240151 727.86333059 -358.94898628 728.7317211 -357.93359375 729.609375 C-303.36631806 776.4057241 -233.39283662 804.29373892 -162.625 813.875 C-161.86520844 813.97863861 -161.10541687 814.08227722 -160.32260132 814.1890564 C-105.45594761 821.55889259 -49.6966573 815.30640108 3 799 C4.66908991 798.50329787 6.33833478 798.00711584 8.0078125 797.51171875 C42.33740758 787.00501532 75.58240145 769.45030299 105 749 C106.60294922 747.90171875 106.60294922 747.90171875 108.23828125 746.78125 C121.11836294 737.85051945 133.16246792 727.80575261 144.65625 717.16015625 C146.75560943 715.22524664 148.89299313 713.35527274 151.0625 711.5 C157.83225399 705.60421015 164.14865333 699.1898697 169.9765625 692.36328125 C171.59946927 690.46780134 173.2412552 688.59572537 174.8984375 686.73046875 C192.23348816 667.13272674 206.79744548 645.56068703 220 623 C220.47937012 622.18112305 220.95874023 621.36224609 221.45263672 620.51855469 C247.44863456 575.62338928 264.54126318 521.92018928 268 470 C268.12701294 468.20985474 268.12701294 468.20985474 268.2565918 466.38354492 C269.00299023 455.31597742 269.20267667 444.27814573 269.1875 433.1875 C269.18656342 432.29470337 269.18562683 431.40190674 269.18466187 430.48205566 C269.04408443 368.24295622 253.84128441 310.52610218 226 255 C225.39889404 253.7939209 225.39889404 253.7939209 224.78564453 252.56347656 C213.52019815 230.11078212 199.23625991 209.14680211 183 190 C181.76056641 188.50146484 181.76056641 188.50146484 180.49609375 186.97265625 C168.71580825 172.77985514 156.1514602 158.86682007 142 147 C141.46407227 146.55027832 140.92814453 146.10055664 140.37597656 145.63720703 C114.00621635 123.6101142 85.13295628 104.61713843 54 90 C53.16210938 89.59990723 52.32421875 89.19981445 51.4609375 88.78759766 C25.84042874 76.64796557 -1.4073184 67.48891247 -29.14257812 61.60839844 C-31.18116621 61.17434499 -33.21600103 60.72250608 -35.24804688 60.25878906 C-44.03219995 58.28446024 -52.81816458 56.96829332 -61.75 55.875 C-63.09511829 55.70495 -64.44017073 55.53437827 -65.78515625 55.36328125 C-69.52210075 54.89385301 -73.2584346 54.43112088 -77 54 C-77.74125626 53.91117554 -78.48251251 53.82235107 -79.24623108 53.73083496 C-85.93048706 52.98494048 -92.55518638 52.82311776 -99.27734375 52.796875 C-100.4421376 52.79117493 -101.60693146 52.78547485 -102.80702209 52.77960205 C-105.27034613 52.77019437 -107.73368252 52.763635 -110.19702148 52.75976562 C-113.8679173 52.75018167 -117.53822248 52.71916796 -121.20898438 52.6875 C-143.82152266 52.58437325 -165.96770952 54.74838355 -188.125 59.25 Z M-550 551 C-549 554 -549 554 -549 554 Z " fill="#F5A746" transform="translate(626,76)"/>
<path d="M0 0 C1.25224365 0.23323975 1.25224365 0.23323975 2.52978516 0.47119141 C66.58532525 12.57848446 126.87283721 43.08931914 177.39501953 83.71240234 C179.02633952 85.02113091 180.66691645 86.31757928 182.30859375 87.61328125 C183.32050781 88.42152344 184.33242188 89.22976562 185.375 90.0625 C186.26960937 90.77535156 187.16421875 91.48820312 188.0859375 92.22265625 C188.71757813 92.80917969 189.34921875 93.39570313 190 94 C190 94.66 190 95.32 190 96 C190.59678055 96.27211807 191.1935611 96.54423615 191.8084259 96.82460022 C193.95295816 97.97477021 195.35147403 99.09817246 197.06518555 100.80639648 C197.92209236 101.65384682 197.92209236 101.65384682 198.79631042 102.51841736 C199.40364517 103.12980057 200.01097992 103.74118378 200.63671875 104.37109375 C201.27559525 105.00805679 201.91447174 105.64501984 202.57270813 106.30128479 C203.92585208 107.65306837 205.27647609 109.00737846 206.62475586 110.36401367 C208.65592203 112.40575758 210.69735716 114.43677884 212.74023438 116.46679688 C219.95317724 123.67195414 226.72705914 130.95203058 233 139 C234.02399924 140.25533977 235.05099127 141.508249 236.08203125 142.7578125 C251.55747402 161.76662563 265.17740101 182.14411269 276.77490234 203.73486328 C277.97197486 205.9481831 279.19612842 208.14449498 280.42578125 210.33984375 C293.84521348 234.638084 303.20242585 261.11765624 311.1875 287.625 C311.66944824 289.21465576 311.66944824 289.21465576 312.16113281 290.83642578 C316.71450673 306.27881438 319.64253855 321.79145766 321.625 337.75 C321.73016937 338.58259338 321.83533875 339.41518677 321.94369507 340.27301025 C322.56101952 345.16244409 323.16121653 350.05371673 323.75006104 354.94665527 C323.96475351 356.71043651 324.18918597 358.47302734 324.41552734 360.23535156 C328.88008139 395.18355318 326.90769306 432.37108408 321 467 C320.80349854 468.16595703 320.80349854 468.16595703 320.60302734 469.35546875 C311.29534915 523.10815445 290.37539522 575.16338486 261 621 C260.5467334 621.71430176 260.0934668 622.42860352 259.62646484 623.16455078 C249.70487901 638.74254591 238.24602155 653.19394018 226 667 C225.05519775 668.07616577 225.05519775 668.07616577 224.09130859 669.17407227 C218.21843344 675.79592274 212.07368182 682.11252638 205.81689453 688.3684082 C204.12892145 690.05857346 202.44914276 691.75660834 200.76953125 693.45507812 C194.15557231 700.10286604 187.36184729 706.17880731 180 712 C178.97214458 712.86302468 177.94872011 713.73141326 176.93359375 714.609375 C147.7380644 739.64716856 112.62733257 760.57228176 77 775 C76.07364746 775.37624512 75.14729492 775.75249023 74.19287109 776.14013672 C44.26194963 788.19571317 13.47910938 797.29092756 -18.4375 802.3125 C-19.36884766 802.45977539 -20.30019531 802.60705078 -21.25976562 802.75878906 C-41.47196966 805.70439013 -61.66417348 806.37423879 -82.0625 806.3125 C-83.31557953 806.31067719 -84.56865906 806.30885437 -85.85971069 806.30697632 C-104.41537157 806.26156817 -122.63270595 805.84688892 -141 803 C-142.71630615 802.74259033 -142.71630615 802.74259033 -144.46728516 802.47998047 C-193.57344623 794.92674415 -241.85038587 778.82540483 -285 754 C-285.80743652 753.53674316 -286.61487305 753.07348633 -287.44677734 752.59619141 C-298.99946323 745.91705433 -310.15810017 738.77683664 -321 731 C-321.76199707 730.45585449 -322.52399414 729.91170898 -323.30908203 729.35107422 C-333.97697896 721.70463303 -344.21491661 713.74745433 -354 705 C-354.71889404 704.36795654 -355.43778809 703.73591309 -356.1784668 703.0847168 C-362.69908294 697.30411233 -368.90387353 691.25047745 -375.05102539 685.0793457 C-376.69239796 683.43258596 -378.33908819 681.79127905 -379.98632812 680.15039062 C-385.53437325 674.6061049 -390.93233614 668.99186309 -396 663 C-396.86882812 662.01257813 -397.73765625 661.02515625 -398.6328125 660.0078125 C-411.26689687 645.39346412 -421.99017182 629.49761658 -432 613 C-432.45584473 612.25202148 -432.91168945 611.50404297 -433.38134766 610.73339844 C-446.83334465 588.51509466 -457.6228509 565.19367034 -467 541 C-467.34256836 540.1332666 -467.68513672 539.2665332 -468.03808594 538.37353516 C-480.20845102 507.54900252 -486.60525662 474.88041574 -490 442 C-490.08692108 441.19949219 -490.17384216 440.39898438 -490.26339722 439.57421875 C-491.02447073 432.05015714 -491.19346405 424.57460967 -491.23828125 417.015625 C-491.24439454 416.02966969 -491.24439454 416.02966969 -491.25063133 415.02379608 C-491.27136749 411.52563312 -491.28570673 408.0275076 -491.29516602 404.52929688 C-491.30390141 401.71201105 -491.32449056 398.89523871 -491.35668945 396.078125 C-491.58433658 375.69136623 -490.13953001 356.16035984 -487 336 C-486.82108719 334.83155548 -486.64217438 333.66311096 -486.45783997 332.45925903 C-479.76798003 288.96401485 -465.39863684 248.41523579 -446 209 C-445.64035156 208.26845703 -445.28070313 207.53691406 -444.91015625 206.78320312 C-433.38313861 183.60959298 -418.51997431 161.44430165 -401.52734375 141.92578125 C-399.21611909 139.25019041 -397.00911774 136.51964845 -394.8125 133.75 C-383.21079262 119.49826233 -370.01100534 105.88587931 -356 94 C-355.11441406 93.22527344 -354.22882813 92.45054687 -353.31640625 91.65234375 C-333.12739487 74.10559611 -311.04587607 59.46973578 -288 46 C-287.26442871 45.566875 -286.52885742 45.13375 -285.77099609 44.6875 C-259.60768187 29.3642137 -231.12673478 17.38950005 -202 9 C-201.02724121 8.71914551 -200.05448242 8.43829102 -199.05224609 8.14892578 C-175.67541479 1.47347294 -152.17810811 -3.40567669 -128 -6 C-127.06381836 -6.10441406 -126.12763672 -6.20882812 -125.16308594 -6.31640625 C-83.41482523 -10.82356388 -41.14258925 -7.91028067 0 0 Z M-157.125 24.25 C-157.87727875 24.39962189 -158.6295575 24.54924377 -159.40463257 24.70339966 C-196.51145292 32.10435534 -233.81807997 44.29295482 -266.90478516 62.83105469 C-268.9185375 63.9545511 -270.94609469 65.04720708 -272.98046875 66.1328125 C-298.77867224 80.05565248 -322.4626207 98.19002142 -344 118 C-345.66624255 119.47964441 -347.33291702 120.95880256 -349 122.4375 C-356.8436686 129.50542116 -364.15229676 136.96976166 -371 145 C-371.84820312 145.9590625 -372.69640625 146.918125 -373.5703125 147.90625 C-441.5426378 225.13803512 -468.56970175 322.65390504 -465.57421875 432.95703125 C-463.50645725 461.0785876 -457.44631769 489.12842948 -449 516 C-448.73783691 516.83885742 -448.47567383 517.67771484 -448.20556641 518.54199219 C-433.19196982 565.71683731 -407.28216806 613.55313701 -373.08984375 649.76953125 C-371.32077094 651.65764447 -369.63959595 653.58271266 -367.95703125 655.546875 C-363.59629392 660.5467309 -358.93899489 665.24707285 -354.24951172 669.93579102 C-352.76106763 671.42641615 -351.28082723 672.92487017 -349.80078125 674.42382812 C-343.52732407 680.73363979 -336.97210908 686.45735205 -330 692 C-328.97240151 692.86333059 -327.94898628 693.7317211 -326.93359375 694.609375 C-272.36631806 741.4057241 -202.39283662 769.29373892 -131.625 778.875 C-130.86520844 778.97863861 -130.10541687 779.08227722 -129.32260132 779.1890564 C-74.45594761 786.55889259 -18.6966573 780.30640108 34 764 C35.66908991 763.50329787 37.33833478 763.00711584 39.0078125 762.51171875 C73.33740758 752.00501532 106.58240145 734.45030299 136 714 C137.60294922 712.90171875 137.60294922 712.90171875 139.23828125 711.78125 C152.11836294 702.85051945 164.16246792 692.80575261 175.65625 682.16015625 C177.75560943 680.22524664 179.89299313 678.35527274 182.0625 676.5 C188.83225399 670.60421015 195.14865333 664.1898697 200.9765625 657.36328125 C202.59946927 655.46780134 204.2412552 653.59572537 205.8984375 651.73046875 C223.23348816 632.13272674 237.79744548 610.56068703 251 588 C251.47937012 587.18112305 251.95874023 586.36224609 252.45263672 585.51855469 C278.44863456 540.62338928 295.54126318 486.92018928 299 435 C299.12701294 433.20985474 299.12701294 433.20985474 299.2565918 431.38354492 C300.00299023 420.31597742 300.20267667 409.27814573 300.1875 398.1875 C300.18656342 397.29470337 300.18562683 396.40190674 300.18466187 395.48205566 C300.04408443 333.24295622 284.84128441 275.52610218 257 220 C256.39889404 218.7939209 256.39889404 218.7939209 255.78564453 217.56347656 C244.52019815 195.11078212 230.23625991 174.14680211 214 155 C212.76056641 153.50146484 212.76056641 153.50146484 211.49609375 151.97265625 C199.71580825 137.77985514 187.1514602 123.86682007 173 112 C172.46407227 111.55027832 171.92814453 111.10055664 171.37597656 110.63720703 C145.00621635 88.6101142 116.13295628 69.61713843 85 55 C84.16210938 54.59990723 83.32421875 54.19981445 82.4609375 53.78759766 C56.84042874 41.64796557 29.5926816 32.48891247 1.85742188 26.60839844 C-0.18116621 26.17434499 -2.21600103 25.72250608 -4.24804688 25.25878906 C-13.03219995 23.28446024 -21.81816458 21.96829332 -30.75 20.875 C-32.09511829 20.70495 -33.44017073 20.53437827 -34.78515625 20.36328125 C-38.52210075 19.89385301 -42.2584346 19.43112088 -46 19 C-46.74125626 18.91117554 -47.48251251 18.82235107 -48.24623108 18.73083496 C-54.93048706 17.98494048 -61.55518638 17.82311776 -68.27734375 17.796875 C-69.4421376 17.79117493 -70.60693146 17.78547485 -71.80702209 17.77960205 C-74.27034613 17.77019437 -76.73368252 17.763635 -79.19702148 17.75976562 C-82.8679173 17.75018167 -86.53822248 17.71916796 -90.20898438 17.6875 C-112.82152266 17.58437325 -134.96770952 19.74838355 -157.125 24.25 Z " fill="#E88825" transform="translate(595,111)"/>
<path d="M0 0 C1.65588135 0.01353516 1.65588135 0.01353516 3.34521484 0.02734375 C21.58159345 0.41369633 38.1087167 7.49697588 51.02734375 20.453125 C64.51641278 34.80461773 71.50086247 52.99072536 71.03515625 72.671875 C69.49595926 92.99770927 60.55551091 109.72205096 45.31982422 123.17382812 C28.71980398 136.53645717 10.32270647 138.3954309 -10.25 137.4375 C-28.04801828 135.51130755 -42.99943086 124.37976942 -54.125 111 C-66.27629551 94.26609912 -69.25084804 75.22131269 -66.84765625 55.0625 C-63.01465872 36.62402822 -51.20898793 20.99676236 -35.90527344 10.51269531 C-24.58296332 3.15820361 -13.42213236 -0.13136817 0 0 Z " fill="#D8583F" transform="translate(472.25,167.5625)"/>
<path d="M0 0 C15.13535483 11.33243417 27.24131872 27.98142784 30 47 C31.75370964 66.60692536 28.40201394 84.32013689 16.1875 100.25 C4.19309238 114.39029976 -12.0821726 124.3623168 -30.74316406 126.28222656 C-52.1623657 127.72272035 -69.95300574 122.51406256 -86.4375 108.39453125 C-99.83088399 95.87906725 -107.67857767 78.71463521 -108.39819336 60.44384766 C-108.73004242 40.86681429 -101.39677032 23.28058503 -88 9 C-64.42851981 -14.84770848 -27.96646456 -17.58078098 0 0 Z " fill="#D9583F" transform="translate(574,374)"/>
<path d="M0 0 C14.47148534 11.11481209 24.54795625 27.03775516 27.98046875 45.015625 C30.08694146 64.32154968 26.35267476 82.14697093 14.60546875 97.828125 C13.41893516 99.2425359 12.21006088 100.63848182 10.98046875 102.015625 C10.33722656 102.76328125 9.69398438 103.5109375 9.03125 104.28125 C-2.08462175 116.36282595 -17.98702973 123.52133473 -34.2890625 124.4921875 C-46.73659968 124.90930233 -57.66826441 124.37752994 -69.01953125 119.015625 C-69.98375 118.5928125 -70.94796875 118.17 -71.94140625 117.734375 C-89.09066314 109.4019677 -100.79228285 93.62833357 -107.01953125 76.015625 C-109.04348384 69.49997696 -109.35439148 63.50510825 -109.33203125 56.703125 C-109.34814453 55.73439453 -109.36425781 54.76566406 -109.38085938 53.76757812 C-109.39118928 38.28305585 -103.36488898 24.16240144 -94.01953125 12.015625 C-93.29765625 11.005 -92.57578125 9.994375 -91.83203125 8.953125 C-68.14311864 -18.37428072 -28.54032395 -18.75612493 0 0 Z " fill="#D8583F" transform="translate(721.01953125,228.984375)"/>
<path d="M0 0 C14.1684386 10.84231124 23.04722885 24.82370799 27.25 42.0859375 C27.54003906 43.23642578 27.54003906 43.23642578 27.8359375 44.41015625 C29.30063698 53.87543118 29.28375989 64.96732207 26.25 74.0859375 C25.99347656 74.92898438 25.73695313 75.77203125 25.47265625 76.640625 C19.47998619 94.79867248 7.41716502 109.11168081 -9.5625 117.8359375 C-25.63784451 125.61378039 -45.53439194 127.26497271 -62.61328125 121.4140625 C-80.82423482 113.70332251 -95.01025865 102.08753461 -103.75 84.0859375 C-110.82582075 66.17056155 -111.31545082 46.89877143 -103.75 29.0859375 C-95.65990343 10.89491112 -81.18109989 -2.0083838 -62.9921875 -9.53125 C-41.45346066 -17.6291966 -18.57707759 -12.93006821 0 0 Z " fill="#D9583F" transform="translate(670.75,561.9140625)"/>
<path d="M0 0 C14.57555136 11.61874803 24.92483073 29.12202963 27.24316406 47.72021484 C28.52557909 66.16045851 23.72748918 83.2075687 12.24316406 97.72021484 C11.59734375 98.55423828 10.95152344 99.38826172 10.28613281 100.24755859 C-0.79415865 113.58913403 -17.52528835 122.02762081 -34.75683594 123.72021484 C-54.51069838 125.04185917 -72.66638743 119.65013659 -87.75683594 106.72021484 C-88.72234375 105.96353516 -89.68785156 105.20685547 -90.68261719 104.42724609 C-102.45919147 94.58842696 -108.74265532 78.51669553 -110.75683594 63.72021484 C-112.18543395 46.38539744 -108.47293773 28.12947925 -97.13964844 14.42724609 C-94.47684891 11.38258126 -91.65419486 8.54188079 -88.75683594 5.72021484 C-88.06460937 5.03056641 -87.37238281 4.34091797 -86.65917969 3.63037109 C-63.06449746 -18.51083994 -25.55259368 -18.61404893 0 0 Z " fill="#D8583F" transform="translate(452.7568359375,566.27978515625)"/>
<path d="M0 0 C16.00080245 13.17252605 26.30095492 30.03514598 28.62890625 50.796875 C29.94108141 67.84689941 24.58837067 84.88189237 13.75292969 98.13085938 C2.63916099 110.96606488 -12.39598638 121.55608888 -29.59863281 123.76757812 C-50.11637355 124.87716724 -69.55248481 122.63702454 -85.63305664 108.73461914 C-99.61149073 95.88625178 -108.49683828 79.85576436 -109.98144531 60.75195312 C-110.57421913 40.59764345 -103.42920743 22.51083026 -89.59863281 7.76757812 C-66.70867864 -15.74551454 -26.58210402 -20.49273993 0 0 Z " fill="#D9583F" transform="translate(345.5986328125,280.232421875)"/>
<path d="M0 0 C1.49720581 0.00858032 1.49720581 0.00858032 3.0246582 0.01733398 C21.6131399 0.46101952 36.70966017 8.46576143 49.8125 21.5 C50.43769531 22.09039062 51.06289063 22.68078125 51.70703125 23.2890625 C63.69790797 35.57768108 69.45853942 54.22245286 69.28564453 70.97753906 C68.63094191 89.65602796 60.78659338 106.38376659 47.125 119.125 C29.71380917 133.48753874 10.96644183 137.74373007 -11.1875 136.5 C-15.38085196 135.89715025 -19.20007395 134.91234022 -23.1875 133.5 C-24.04214844 133.2215625 -24.89679687 132.943125 -25.77734375 132.65625 C-41.21887814 127.13631783 -54.62152389 114.67051557 -61.87890625 100.10546875 C-69.67764497 82.76032216 -71.12940188 63.38324782 -64.73046875 45.3046875 C-60.77867433 35.16758607 -54.81851716 27.17001724 -47.1875 19.5 C-46.52363281 18.80132812 -45.85976563 18.10265625 -45.17578125 17.3828125 C-40.69681972 12.99769587 -35.85749048 10.01052278 -30.3125 7.1875 C-29.67691162 6.86185059 -29.04132324 6.53620117 -28.38647461 6.20068359 C-19.24104796 1.7769242 -10.12596424 -0.06841283 0 0 Z " fill="#D8583F" transform="translate(776.1875,402.5)"/>
<path d="M0 0 C3.61866023 2.76135983 6.81221797 5.75879146 10 9 C10.62003906 9.53882813 11.24007812 10.07765625 11.87890625 10.6328125 C22.07268543 19.7091528 28.32397279 34.68576515 30 48 C31.12366189 69.10109482 28.40275787 86.63322969 14 103 C13.35546875 103.75023437 12.7109375 104.50046875 12.046875 105.2734375 C0.47620228 117.82976012 -17.06873995 125.57711789 -34.078125 126.3359375 C-54.48832744 126.6926093 -71.78426234 121.32531583 -87 107 C-100.34881299 93.30574638 -106.53175922 75.48083036 -106.42236328 56.64355469 C-105.91781463 39.10636704 -99.6488859 24.14233281 -88 11 C-87.48050781 10.38640625 -86.96101563 9.7728125 -86.42578125 9.140625 C-64.44170954 -15.00309103 -26.66553163 -17.04447846 0 0 Z " fill="#D8583F" transform="translate(280,471)"/>
<path d="M0 0 C14.23247446 12.0410886 23.0288228 28.87433599 24.97314453 47.37304688 C26.34642699 66.2632143 20.18134626 84.61074493 7.82421875 99.015625 C-4.55286378 112.34837681 -20.46667215 120.53666501 -38.74609375 121.66015625 C-57.38885333 122.35005592 -74.05353349 118.48800188 -88.4375 105.9375 C-90.05898732 104.39298201 -91.6638883 102.83082466 -93.25 101.25 C-93.9615625 100.56164062 -94.673125 99.87328125 -95.40625 99.1640625 C-107.24574488 86.91473895 -111.84326282 71.06860388 -111.6875 54.375 C-111.67920166 53.22749268 -111.67090332 52.07998535 -111.66235352 50.89770508 C-111.49765283 42.65622362 -110.8018106 35.78446213 -107.25 28.25 C-106.75242187 27.17105469 -106.25484375 26.09210937 -105.7421875 24.98046875 C-96.03173834 5.58215287 -80.39960114 -6.85222525 -60.0625 -13.75 C-38.67203329 -18.68626155 -17.30658483 -13.0132718 0 0 Z " fill="#D8573E" transform="translate(583.25,729.75)"/>
<path d="M0 0 C4.33729795 2.25205855 7.13397371 4.4386024 9 9 C9.53204782 13.78843042 9.49783872 15.98517492 7.375 20.3125 C4.66496599 23.37911743 2.89316622 24.72723412 -1 26 C-5.29213444 26.20237962 -8.23180443 25.48429721 -11.875 23.1875 C-15.24675119 19.71657965 -15.90154889 18.01732817 -16.375 13.125 C-16.25402647 8.79414779 -14.84802823 6.30987065 -12 3 C-8.07324125 -0.18385844 -4.98824428 -0.6125914 0 0 Z " fill="#485B4B" transform="translate(427,352)"/>
<path d="M0 0 C3.88961245 1.98837622 6.39527933 4.95820354 8 9 C8.23974502 13.46724889 7.53895094 17.09533235 5.25 20.9375 C1.68113817 24.20895668 -0.57843822 25.05169316 -5.4375 24.875 C-10.02770215 23.74758193 -13.4173289 22.01430867 -16.375 18.25 C-17.83243811 13.00322281 -17.72165056 9.34376312 -15.1875 4.625 C-10.78445107 -0.65865872 -6.51931653 -1.00375169 0 0 Z " fill="#465949" transform="translate(711,723)"/>
<path d="M0 0 C3.43761572 2.12108204 5.77560839 4.1042085 7 8 C7.45778685 13.03565533 7.0454675 15.93937667 4 20 C1.93532144 22.40879165 1.11005341 22.96331553 -2 24 C-8.07402456 24.44992774 -11.18071372 23.4165311 -15.75 19.5 C-18.60668997 16.07197204 -18.35912029 12.23761939 -18 8 C-13.77365745 -0.1396227 -8.66866317 -2.32842495 0 0 Z " fill="#485B4A" transform="translate(372,737)"/>
<path d="M0 0 C3.9396246 2.39803236 5.829361 4.53028746 7 9 C7.51470398 13.83821742 6.70460267 16.94309599 4 21 C-0.32518976 23.94899302 -3.81962079 24.6475474 -9 24 C-13.33976986 21.74665796 -16.09688482 19.54633071 -18 15 C-18.53751218 10.77669003 -18.28625223 8.57250446 -16.375 4.75 C-11.62312926 -0.75216612 -6.82886454 -2.06977956 0 0 Z " fill="#4A5D4B" transform="translate(209,409)"/>
<path d="M0 0 C4.28412208 3.52250038 5.63279636 5.69516721 6.25 11.25 C6.08089443 15.50984994 4.60110181 18.05913122 1.8125 21.3125 C-1.17562362 23.66031141 -4.40661188 23.73075081 -8.15625 23.6328125 C-11.54179158 23.09893864 -13.62930448 21.50523902 -16.1875 19.3125 C-18.73677287 15.1250346 -19.00801202 11.0946761 -18.1875 6.3125 C-16.50664939 3.14500064 -14.17585778 1.0139152 -11.25 -1.0625 C-6.84540333 -2.39722626 -4.08298236 -2.1615789 0 0 Z " fill="#4F604C" transform="translate(593.1875,185.6875)"/>
<path d="M0 0 C4.09613637 1.80992072 6.73195328 4.1359204 9 8 C9.69913436 12.27248776 9.45269709 15.84310743 7.875 19.875 C4.7685724 23.39561795 1.6093583 24.76530191 -3 25.4375 C-7.64418473 24.76022306 -10.45673981 22.38893417 -13.875 19.3125 C-15.70065186 15.55977117 -15.86870112 12.06989893 -15 8 C-11.09108931 1.55687198 -7.5657794 -0.5129342 0 0 Z " fill="#4B5C4B" transform="translate(648,486)"/>
<path d="M0 0 C3.07974073 1.69520817 5.24988244 4.01120867 7.375 6.8125 C8.36186931 10.26654259 8.68115809 13.48630333 8 17 C6.2524257 20.02089981 4.16782234 22.41608883 1 24 C-3.82911 24.52137294 -7.74166846 24.73402673 -12 22.25 C-15.72365566 18.06088738 -16.44694147 14.68681522 -16.3203125 9.1875 C-15.72493499 5.12150724 -13.40819333 3.056145 -10.25 0.6875 C-6.77872487 -0.3731674 -3.54897536 -0.67567031 0 0 Z " fill="#465A4A" transform="translate(758,594)"/>
<path d="M0 0 C3.49996383 2.04164557 5.80555258 4.09089936 7 8 C7.42568872 13.36367791 7.46490261 16.63678931 4 21 C-0.65462186 24.10308124 -5.55192328 23.74993769 -11 23 C-13.44863987 21.5729101 -14.32745889 20.36462709 -16 18 C-16.33 17.67 -16.66 17.34 -17 17 C-17.67293083 12.51124546 -18.15118953 7.96073572 -15.7890625 3.9375 C-11.20448626 -0.53945708 -6.16838951 -1.2336779 0 0 Z " fill="#485C4B" transform="translate(232,652)"/>
<path d="M0 0 C2.84124653 1.23532458 4.42097859 2.2555439 6.3125 4.6875 C7.70825988 9.38232868 7.6759863 13.44523152 5.75 17.875 C3.83591553 20.19924543 2.86897932 21.12336743 0 22 C-4.98245604 22.45295055 -8.05923481 22.1745053 -12 19 C-14.73452784 15.90086845 -15.24280806 13.52020189 -15.0625 9.5 C-14.49135604 5.86047622 -13.92997604 4.91631282 -11.4375 1.9375 C-6.9815756 -0.57402103 -5.05010467 -0.64128313 0 0 Z " fill="#485A4A" transform="translate(520,663)"/>
<path d="M0 0 C3.56202683 2.16819024 5.45294033 4.16385204 7 8 C7.21443385 11.12303656 6.87310734 13.99385827 6 17 C3.02917583 20.04699915 0.49010511 21.83066987 -3.75 22.3125 C-7.83266269 21.91993628 -9.81816032 20.53100884 -13 18 C-15.47361688 14.28957469 -15.54607278 11.30137325 -15 7 C-13.76467542 4.15875347 -12.7444561 2.57902141 -10.3125 0.6875 C-6.84416773 -0.34362581 -3.55274495 -0.57917512 0 0 Z " fill="#45594A" transform="translate(292,713)"/>
<path d="M0 0 C2.8364952 1.87431154 4.49198002 3.96621863 6 7 C6.62502862 11.02796219 6.40477377 13.13262763 4.6875 16.8125 C2.74100461 19.33573477 1.14313805 20.83516549 -2.0859375 21.30078125 C-6.85597478 21.32520124 -10.20112257 21.22328994 -14 18 C-16.34113009 14.98997559 -16.41216607 11.72258458 -16.328125 7.96875 C-15.80947233 4.85683396 -14.21445226 3.14932131 -12 1 C-8.22010728 -0.88994636 -4.0957871 -0.75778324 0 0 Z " fill="#475A49" transform="translate(664,790)"/>
<path d="M0 0 C3.6578218 2.03993908 5.66946174 3.50419262 8 7 C8.265625 9.12109375 8.265625 9.12109375 8.25 11.4375 C8.25515625 12.19933594 8.2603125 12.96117187 8.265625 13.74609375 C7.96666019 16.28289809 7.36987133 17.84930201 6 20 C1.76447144 22.82368571 -2.02477314 22.66653757 -7 22 C-9.93423195 20.20353146 -11.47205355 19.0558929 -13 16 C-13.53118173 12.20584481 -13.85089348 8.53668822 -11.953125 5.109375 C-8.2235631 0.59002352 -5.78727544 -0.55646879 0 0 Z " fill="#4A5C4B" transform="translate(565,308)"/>
<path d="M0 0 C3.5426931 0.02820616 4.63090304 0.2380644 7.75 2.1875 C11.22581237 5.88055064 11.15702888 8.90860125 11.0859375 13.828125 C10.75 16.3125 10.75 16.3125 8.75 19.375 C5.05493503 21.76139613 2.15610397 22.76949317 -2.25 22.3125 C-6.04560358 20.34440926 -7.8788722 18.8691917 -10.25 15.3125 C-10.79522803 12.24774457 -10.79842924 9.37725161 -10.25 6.3125 C-7.8125 3.3125 -7.8125 3.3125 -5.25 1.3125 C-3.69014791 -0.24735209 -2.16093902 0.06797656 0 0 Z " fill="#485B4A" transform="translate(293.25,623.6875)"/>
<path d="M0 0 C3.55937825 2.16657806 5.45946468 4.16266657 7 8 C7.22088148 12.18202276 6.60565181 15.87128527 4.625 19.5625 C0.26821335 21.94835936 -4.16695343 21.85204821 -9 21 C-11.89683868 18.7984026 -13.39297231 17.21405538 -15 14 C-15.2262475 8.9930445 -14.69507747 5.83070234 -11.4375 1.9375 C-6.96300932 -0.58448566 -5.06911706 -0.72415958 0 0 Z " fill="#475A4A" transform="translate(423,799)"/>
<path d="M0 0 C3 2.4375 3 2.4375 5 5 C5.33 5.33 5.66 5.66 6 6 C6.58169863 10.61544489 6.6241677 14.00133167 4.125 18 C0.59185943 21.32530877 -2.04661263 21.33074386 -6.73828125 21.29296875 C-10.0542278 20.86344199 -11.74987627 19.39075646 -14 17 C-15.72869779 13.54260443 -15.48966895 9.78024432 -15 6 C-11.16984281 -0.12825151 -6.93056085 -1.11319889 0 0 Z " fill="#45594A" transform="translate(803,349)"/>
<path d="M0 0 C3.41184222 1.92303834 5.42958014 3.34059677 6.73046875 7.125 C7.46823313 11.44932192 7.24497853 13.52693801 5.1875 17.5 C3.01300647 19.98513546 2.21988159 20.85380594 -0.98828125 21.23828125 C-5.05070018 21.36800555 -7.37166461 21.37432746 -10.9375 19.25 C-14.31349026 15.56710154 -15 14.19549688 -15 9.0625 C-14.43999084 5.61876552 -13.85809118 4.83386285 -11.4375 2 C-7.33424756 -0.38734687 -4.62402705 -1.1123405 0 0 Z " fill="#475A4A" transform="translate(510,543)"/>
<path d="M0 0 C3.58355703 2.05722718 5.42464702 3.22251286 6.69921875 7.16015625 C7.27542009 10.87138853 7.25362413 13.35184946 5.875 16.875 C2.89812802 20.24878824 0.5004406 21.81244492 -4 22.375 C-7.42422442 21.94697195 -9.25223913 21.06082066 -12 19 C-14.68121076 14.97818385 -14.81344335 11.72763609 -14 7 C-10.61326369 0.91898276 -6.78851293 -0.67885129 0 0 Z " fill="#495B4B" transform="translate(671,396)"/>
<path d="M0 0 C2.92837797 2.45027545 4.56680768 4.19920878 5.47265625 7.96484375 C5.77283988 11.97498923 5.06160551 13.89411553 3 17.4375 C-0.20685721 20.17669053 -1.88823275 21.01265832 -6.00390625 21.23828125 C-9.44405138 20.82761813 -11.45378542 19.2430938 -14 17 C-16.59107284 13.58449489 -16.50288306 10.16674536 -16 6 C-11.88013507 -0.86133639 -7.45088234 -2.05541582 0 0 Z " fill="#46594A" transform="translate(398,494)"/>
<path d="M0 0 C2.46615278 1.84961459 3.49544028 3.48974064 4.75 6.3125 C5.28575611 11.31289033 4.83910768 14.30810116 1.75 18.3125 C-2.26858595 20.9915573 -5.52641721 21.00860694 -10.25 20.3125 C-13.12029869 18.51856332 -14.74131638 17.32986724 -16.25 14.3125 C-16.67071592 11.25329426 -16.73514117 8.3657254 -16.25 5.3125 C-11.7239422 -0.40462564 -7.20586758 -2.20179287 0 0 Z " fill="#465949" transform="translate(831.25,579.6875)"/>
<path d="M0 0 C2.75569447 2.18159145 4.43588747 3.87177494 6 7 C6.3751455 11.97067782 6.15878799 15.05151502 3 19 C-0.41928194 21.56446145 -3.8501922 21.29641484 -8 21 C-10.90651969 20.11189676 -11.8417835 19.19777062 -13.75 16.8125 C-15.32923797 13.25921457 -15.41323619 10.85687108 -15 7 C-11.8046425 0.15280536 -7.12433526 -1.26238221 0 0 Z " fill="#485B4A" transform="translate(387,413)"/>
<path d="M0 0 C2.8100346 1.79363911 4.50940468 3.01880935 6 6 C6.42071592 9.05920574 6.48514117 11.9467746 6 15 C3.81840855 17.75569447 2.12822506 19.43588747 -1 21 C-5.37959914 21.50533836 -7.51443013 21.27875307 -11.375 19.0625 C-14.39866894 16.19368203 -15.09394423 13.31374699 -15.3125 9.22265625 C-14.76471499 5.32653534 -12.83898983 3.64092077 -10 1 C-6.79826746 -0.60086627 -3.47422941 -0.49917089 0 0 Z " fill="#455949" transform="translate(783,677)"/>
<path d="M0 0 C3.125 1.875 3.125 1.875 5 5 C5.87040408 9.11586423 6.18527888 13.06045274 3.92578125 16.7578125 C1.24137215 19.33190342 -1.45115808 20.33636284 -5.0625 20.5625 C-9.36116046 19.94840565 -11.01296996 19.0775461 -14 16 C-15.7473737 12.50525261 -15.55225821 8.81321144 -15 5 C-11.39079954 -0.89502741 -6.36205027 -1.25155087 0 0 Z " fill="#45584A" transform="translate(362,220)"/>
<path d="M0 0 C2.44606039 0.61813801 3.54840808 1.3006503 5.2890625 3.109375 C7.1640625 6.546875 7.1640625 6.546875 7.2890625 10.171875 C5.93576184 14.23177699 4.91285393 15.50948835 1.1640625 17.546875 C-3.8615118 18.17507179 -6.76296827 17.54170531 -10.8359375 14.546875 C-11.8359375 13.546875 -11.8359375 13.546875 -12.2109375 9.796875 C-12.14424947 6.42609813 -11.82428595 5.52883388 -9.8984375 2.546875 C-6.3423663 0.22454279 -4.18549592 -0.25196965 0 0 Z " fill="#B5462E" transform="translate(454.8359375,261.453125)"/>
<path d="M0 0 C2.5 1.4375 2.5 1.4375 4 4 C4.54674353 7.10390858 4.58135149 9.89945872 4 13 C2.12379387 15.50160818 0.76108697 16.61945652 -2 18 C-5.99390436 18.53252058 -7.51741242 18.35389756 -10.8125 15.9375 C-13.43828382 12.41144744 -14.07836758 10.38858425 -14 6 C-10.34109231 0.19621539 -6.71422259 -0.90230659 0 0 Z " fill="#B4452E" transform="translate(619,573)"/>
<path d="M0 0 C3.75378563 1.24882752 4.97806343 3.30619685 7.0078125 6.66796875 C7.6328125 9.73046875 7.6328125 9.73046875 7.0078125 12.66796875 C5.01962655 15.52598606 3.53176919 17.28697958 0.0703125 18.15234375 C-3.91685453 18.42419605 -5.62445077 17.93399107 -8.9296875 15.54296875 C-11.22800676 12.33925099 -11.9921875 10.60174591 -11.9921875 6.66796875 C-9.3648337 0.8877904 -6.41160368 -1.0055098 0 0 Z " fill="#B6472F" transform="translate(278.9921875,356.33203125)"/>
<path d="M0 0 C3.97245401 0.70936679 5.67231707 1.79731707 8.5 4.625 C10.04586876 7.71673752 9.79359521 10.21929552 9.5 13.625 C7.63291495 15.98997439 6.17938569 17.28530715 3.5 18.625 C-1.1478538 19.03814256 -3.74440152 18.41487316 -7.5 15.625 C-9.07455739 12.47588521 -8.84799118 10.10491184 -8.5 6.625 C-6.57115632 2.65486883 -4.43598703 0.79214054 0 0 Z " fill="#B5462D" transform="translate(496.5,194.375)"/>
<path d="M0 0 C4.09015406 1.36338469 5.35317289 2.32396503 7.375 6.125 C8.01231884 9.1552707 7.83117041 10.93180714 7.375 14.125 C4.6430826 17.43641503 3.07838879 18.05095907 -1.1875 18.5 C-6.14952026 17.9586887 -6.14952026 17.9586887 -8.625 16.125 C-10.64236184 13.53124906 -10.625 12.01481916 -10.625 8.6875 C-9.00777834 2.92614785 -6.04462935 0.20843549 0 0 Z " fill="#B5462E" transform="translate(570.625,436.875)"/>
<path d="M0 0 C3.66622909 1.10873864 5.0548901 3.4090333 6.9375 6.5859375 C7.67240789 10.58710267 7.32564018 12.00372724 5.0625 15.3984375 C2.56730912 17.96701634 1.65580363 18.49016368 -1.875 18.9609375 C-5.0625 18.5859375 -5.0625 18.5859375 -7.875 16.5234375 C-10.52791435 12.96095252 -11.21837894 11.02848715 -11.0625 6.5859375 C-8.23603435 1.57124038 -5.67910145 -0.45174671 0 0 Z " fill="#B4452D" transform="translate(683.0625,315.4140625)"/>
<path d="M0 0 C3.53494505 0.9336246 4.94397547 2.52143196 6.9375 5.51171875 C7.68122859 8.59026742 7.45662368 10.24123959 6.9375 13.51171875 C4.81884472 16.16003785 3.31532575 17.24979544 -0.03515625 17.88671875 C-3.40941045 18.0885433 -5.64815215 17.77732635 -8.5 15.94921875 C-10.6290223 12.62794397 -11.13067573 10.4659108 -11.0625 6.51171875 C-8.2164831 1.46233393 -5.69622849 -0.48547402 0 0 Z " fill="#B4452E" transform="translate(676.0625,239.48828125)"/>
<path d="M0 0 C2.875 1.4375 2.875 1.4375 5 4 C5.9062275 8.29473032 5.77983707 11.75226069 3.4375 15.5 C0.15734501 17.51855692 -2.1477443 18 -6 18 C-8.80189446 16.23358828 -10.51524911 14.96950178 -12 12 C-12.4375 8.6875 -12.4375 8.6875 -12 5 C-8.32600983 0.88863005 -5.54784976 -1.06235421 0 0 Z " fill="#B6462E" transform="translate(268,492)"/>
<path d="M0 0 C3.5 0.625 3.5 0.625 6.4375 2.625 C9.29117716 6.77580314 9.2099846 8.6551078 8.5 13.625 C6.45694308 16.68958538 5.05920198 17.44653128 1.5625 18.5625 C-2.12880732 18.6378328 -3.6126081 17.87074926 -6.5 15.625 C-9.00031654 11.87452518 -9.03603554 10.06643734 -8.5 5.625 C-5.90783917 1.93313458 -4.45850936 0.79616239 0 0 Z " fill="#B4452E" transform="translate(645.5,646.375)"/>
<path d="M0 0 C4.10198969 1.34246935 5.88827306 2.64878144 8.4375 6.125 C9.0625 9.125 9.0625 9.125 8.4375 12.125 C6.39449788 15.15655153 4.88364806 16.80592107 1.2421875 17.609375 C-2.84185781 17.85199155 -4.88059024 17.6738542 -8.125 15.0625 C-9.95410679 11.32476004 -10.29647997 9.23528784 -9.5625 5.125 C-6.45637371 1.48855946 -4.82394721 0.16926131 0 0 Z " fill="#B5462E" transform="translate(215.5625,549.875)"/>
<path d="M0 0 C4.08048338 0.39235417 5.52096457 1.27157481 8.25 4.3125 C9.375 7.6875 9.375 7.6875 9.25 11.3125 C6.90604292 15.60975465 6.90604292 15.60975465 4.25 17.3125 C1.07869406 18.10110183 -1.57852174 18.09945263 -4.75 17.3125 C-7.81018871 14.77478253 -8.58450185 13.19515681 -9.3125 9.3125 C-8.56714299 5.33726263 -6.77318049 3.89326383 -3.75 1.3125 C-2.75 0.3125 -2.75 0.3125 0 0 Z " fill="#B5462E" transform="translate(382.75,639.6875)"/>
<path d="M0 0 C3.65907504 0.68607657 5.35167676 1.98984314 8 4.5625 C9.44430855 7.45111709 9.37688506 9.35897701 9 12.5625 C6.39210172 16.19775215 4.9297642 17.39647068 0.5 18.1875 C-3.95850936 17.39133761 -5.40783917 16.25436542 -8 12.5625 C-8.625 9.0625 -8.625 9.0625 -8 5.5625 C-5.54999553 2.17572911 -4.13607554 0.77551416 0 0 Z " fill="#B5462E" transform="translate(802,433.4375)"/>
<path d="M0 0 C2.5625 1.5 2.5625 1.5 4 4 C4.50350771 6.90980618 4.33546025 8.98085779 4 12 C2.45661909 14.17476401 1.36334727 14.81832637 -1 16 C-8.0521327 16.56872038 -8.0521327 16.56872038 -11.5 14.5 C-13.62410234 10.95982944 -13.7835909 8.02518275 -13 4 C-10.08414807 -1.07104684 -5.28764261 -0.93140127 0 0 Z " fill="#B4462E" transform="translate(755,496)"/>
<path d="M0 0 C3.44150865 2.43773529 4.762119 3.85817119 5.625 8 C4.762119 12.14182881 3.44150865 13.56226471 0 16 C-3.87554073 16.88254888 -7.00057583 16.5746689 -10.5 14.5625 C-12.72560073 10.76043208 -12.78118314 7.29650724 -12 3 C-9.16622385 -0.89644221 -4.46827463 -0.93789527 0 0 Z " fill="#B5462E" transform="translate(442,588)"/>
<path d="M0 0 C2.4375 1.4375 2.4375 1.4375 4 4 C4.60471978 7.80698591 5.06304594 11.47698227 2.78125 14.74609375 C-0.71937456 17.21034919 -4.93006124 16.69827381 -9 16 C-11.6875 13.9375 -11.6875 13.9375 -13 11 C-13.07449923 6.75354391 -12.67977595 4.779743 -9.875 1.5625 C-6.24082335 -0.41259601 -4.08125936 -0.59363772 0 0 Z " fill="#B5452E" transform="translate(338,302)"/>
<path d="M0 0 C2.5 1.4375 2.5 1.4375 4 4 C4.70619585 8.07533854 4.92958534 11.62583037 2.5625 15.125 C-1.32383461 16.45204109 -5.07007951 16.14351278 -9 15 C-11.63635874 12.93415169 -12.00881979 11.97023322 -13 8.625 C-13 5 -13 5 -11.0625 2.0625 C-6.86229946 -0.76620649 -4.99614519 -0.71373503 0 0 Z " fill="#B4462E" transform="translate(391,589)"/>
<path d="M0 0 C3.80470451 0.7133821 5.41196019 1.67868421 8 4.5625 C9.125 8 9.125 8 9 11.5625 C6.63802424 14.85495106 4.86672751 16.24900281 1.0625 17.625 C-3.19480991 17.53811612 -4.96163936 16.52851872 -8 13.5625 C-8.58451773 10.21480757 -8.82417142 8.69187269 -8 5.5625 C-5.55871269 2.11597674 -4.17033126 0.78193711 0 0 Z " fill="#B5462E" transform="translate(540,738.4375)"/>
<path d="M0 0 C4.4297642 0.79102932 5.89210172 1.98974785 8.5 5.625 C9.1646293 9.24353729 8.96543651 10.85601795 7.0625 14 C3.27767083 16.40013557 -0.1387226 16.4092297 -4.5 15.625 C-7.0625 14 -7.0625 14 -8.5 11.625 C-9.0625 8.6875 -9.0625 8.6875 -8.5 5.625 C-5.89210172 1.98974785 -4.4297642 0.79102932 0 0 Z " fill="#B4452D" transform="translate(524.5,815.375)"/>
<path d="M0 0 C2.68650909 1.70145576 2.95634757 2.84217969 3.8125 5.9375 C4.01028636 9.16801051 3.92199114 10.43734514 2 13 C-1.21372779 15.29551985 -4.12984535 15.48376933 -8 15 C-10.93507943 12.93751175 -11.84435488 11.45720755 -13 8.0625 C-13 4.08077829 -11.76634634 2.76634634 -9 0 C-5.85000502 -1.57499749 -3.36459118 -0.70833498 0 0 Z " fill="#B5462E" transform="translate(651,285)"/>
<path d="M0 0 C1.9375 1.0625 1.9375 1.0625 3 3 C3.39309578 6.09562931 3.62338668 8.04336605 3 11 C0.9375 13.5625 0.9375 13.5625 -2 15 C-5.46758942 14.94021398 -7.88826749 14.60965977 -10.9375 12.9375 C-12.70141999 9.72094003 -12.73924763 6.50614591 -12 3 C-8.3655827 -1.51548816 -5.40521016 -1.50144727 0 0 Z " fill="#B4462E" transform="translate(506,413)"/>
<path d="M0 0 C1.91015625 0.4453125 1.91015625 0.4453125 4.47265625 2.5078125 C6.3396726 6.32301981 6.05503457 8.40007576 4.91015625 12.4453125 C0.90571386 15.11494076 -2.38364947 15.14642152 -7.08984375 14.4453125 C-9.85080004 12.27001361 -10.02357588 10.89972075 -10.52734375 7.4453125 C-10.08984375 4.4453125 -10.08984375 4.4453125 -8.58984375 2.0703125 C-5.55625142 0.09847749 -3.57053359 -0.20021684 0 0 Z " fill="#B5462E" transform="translate(448.08984375,212.5546875)"/>
<path d="M0 0 C2 1.0625 2 1.0625 3 3 C3.65439093 9.10764873 3.65439093 9.10764873 1.625 11.875 C-1.68110802 14.16384402 -3.98260302 14.48208764 -8 14 C-10.4375 11.875 -10.4375 11.875 -12 9 C-11.93689022 5.84451076 -11.48864121 3.86230802 -9.9375 1.125 C-6.76463704 -0.71730752 -3.56774951 -0.52772961 0 0 Z " fill="#B4462D" transform="translate(443,645)"/>
<path d="M0 0 C4.91511194 1.34048507 4.91511194 1.34048507 6.4375 3.9375 C6.85366519 7.19746064 6.7141188 9.28053035 5.4375 12.3125 C2.73205964 14.5106703 0.7287076 14.5087063 -2.6875 14.3203125 C-4.5625 13.9375 -4.5625 13.9375 -6.5625 12.3125 C-7.85868989 9.234049 -8.04538863 7.24873632 -7.5625 3.9375 C-5.26874134 0.3592365 -4.28872478 -0.07524079 0 0 Z " fill="#B4452E" transform="translate(275.5625,302.0625)"/>
<path d="M0 0 C2.375 1.625 2.375 1.625 4 4 C4.60975382 7.65852292 4.44543026 9.30512879 2.4375 12.4375 C0 14 0 14 -3.5625 14 C-7 13 -7 13 -8.9375 11.25 C-10.23370853 8.50508782 -10.52487013 6.99925788 -10 4 C-7.16979976 -0.02759265 -4.82432618 -0.80405436 0 0 Z " fill="#B6472F" transform="translate(329,356)"/>
<path d="M0 0 C2.4375 1.625 2.4375 1.625 4 4 C4.45319325 7.17235276 4.52990283 9.06487736 2.9375 11.875 C-0.15097604 13.66830867 -2.51143969 13.42841969 -6 13 C-8.4375 11.375 -8.4375 11.375 -10 9 C-10.45319325 5.82764724 -10.52990283 3.93512264 -8.9375 1.125 C-5.84902396 -0.66830867 -3.48856031 -0.42841969 0 0 Z " fill="#B6462E" transform="translate(528,467)"/>
<path d="M0 0 C3.0625 0.5 3.0625 0.5 5.4375 2.1875 C7.0625 4.5 7.0625 4.5 7.5 7.0625 C7.0625 9.5 7.0625 9.5 6.0625 11.3125 C2.73892865 13.28587049 -0.11808245 12.80312838 -3.9375 12.5 C-5.9375 10.5 -5.9375 10.5 -6.25 7.625 C-5.77994835 2.9244835 -4.81591608 0.8197304 0 0 Z " fill="#B5462E" transform="translate(573.9375,777.5)"/>
<path d="M0 0 C3.5625 0.3125 3.5625 0.3125 5.5 1.375 C7.17171702 4.42342516 6.93283222 6.91778797 6.5625 10.3125 C3.09326119 12.62532587 1.64044425 12.73728586 -2.4375 12.3125 C-4.3125 11.25 -4.3125 11.25 -5.4375 9.3125 C-5.75 5.75 -5.75 5.75 -5.4375 2.3125 C-3.4375 0.3125 -3.4375 0.3125 0 0 Z " fill="#B5452E" transform="translate(271.4375,546.6875)"/>
<path d="M0 0 C3.4375 0.75 3.4375 0.75 5.4375 2.75 C5.25 6.25 5.25 6.25 4.4375 9.75 C1.4375 11.75 1.4375 11.75 -1.5625 11.5625 C-6.03816183 10.35034159 -6.03816183 10.35034159 -7.5625 7.75 C-7.4375 4.6875 -7.4375 4.6875 -6.5625 1.75 C-3.5625 -0.25 -3.5625 -0.25 0 0 Z " fill="#B5462E" transform="translate(512.5625,775.25)"/>
<path d="M0 0 C0.99 0.66 1.98 1.32 3 2 C3.36328125 3.875 3.36328125 3.875 3.3125 6 C3.30863281 6.70125 3.30476562 7.4025 3.30078125 8.125 C3 10 3 10 1 12 C-4.97716895 12.543379 -4.97716895 12.543379 -8 10.9375 C-9.63378851 7.77203476 -8.85267564 5.34979714 -8 2 C-4.75366476 -0.1642235 -3.75698557 -0.37569856 0 0 Z " fill="#B7472F" transform="translate(213,497)"/>
<path d="M0 0 C2 1.6875 2 1.6875 3 4 C2.75925978 7.37036311 2.41201979 8.58798021 0 11 C-1.875 11.265625 -1.875 11.265625 -4 11.25 C-4.70125 11.25515625 -5.4025 11.2603125 -6.125 11.265625 C-8 11 -8 11 -10 9 C-10.3267107 5.92891945 -10.48138276 3.84949899 -8.9375 1.125 C-5.85928089 -0.66235303 -3.47093932 -0.43386742 0 0 Z " fill="#B5452E" transform="translate(599,629)"/>
<path d="M0 0 C3.5625 0.3125 3.5625 0.3125 5.5 1.5 C6.94968434 3.97299093 6.98567323 5.49134512 6.5625 8.3125 C5.5 10.125 5.5 10.125 3.5625 11.3125 C0.0625 11.75 0.0625 11.75 -3.4375 11.3125 C-5.4375 9.625 -5.4375 9.625 -6.4375 7.3125 C-6.08998358 2.44727019 -5.07951449 0.46177404 0 0 Z " fill="#B6472E" transform="translate(720.4375,270.6875)"/>
<path d="M0 0 C2 1.6875 2 1.6875 3 4 C2.875 6.625 2.875 6.625 2 9 C-1 11 -1 11 -4.5625 10.75 C-8 10 -8 10 -10 8 C-10.35571424 5.22542896 -10.36405327 3.62103204 -8.9375 1.1875 C-5.87386726 -0.69021039 -3.49835955 -0.43729494 0 0 Z " fill="#B6472F" transform="translate(484,237)"/>
<path d="M0 0 C3.5625 0.3125 3.5625 0.3125 5.5 1.5 C6.94968434 3.97299093 6.98567323 5.49134512 6.5625 8.3125 C5.5 10.125 5.5 10.125 3.5625 11.3125 C0 11.625 0 11.625 -3.4375 11.3125 C-5.4375 9.3125 -5.4375 9.3125 -5.6875 5.8125 C-5.34943772 1.07962813 -4.72246521 0.42931502 0 0 Z " fill="#B5462E" transform="translate(239.4375,522.6875)"/>
<path d="M0 0 C3.5625 0.375 3.5625 0.375 5.5625 2.0625 C6.82576211 4.98379364 6.58266252 6.39298647 5.5625 9.375 C3.5625 11.375 3.5625 11.375 0.0625 11.625 C-3.4375 11.375 -3.4375 11.375 -5.4375 9.375 C-5.6875 5.875 -5.6875 5.875 -5.4375 2.375 C-3.4375 0.375 -3.4375 0.375 0 0 Z " fill="#B6462E" transform="translate(803.4375,486.625)"/>
<path d="M0 0 C2 2 2 2 2.3125 4.4375 C2 7 2 7 0.9375 8.8125 C-2.05550269 10.646921 -4.57816663 10.31107576 -8 10 C-10 8 -10 8 -10.3125 5.0625 C-10 2 -10 2 -8.9375 0.0625 C-5.81651045 -1.6490104 -3.35466116 -0.79291991 0 0 Z " fill="#B7472F" transform="translate(552,393)"/>
<path d="M0 0 C3.4375 0.9375 3.4375 0.9375 4.9375 2.6875 C5.54705829 5.4305123 5.23382508 7.25895201 4.4375 9.9375 C2.54621658 11.82878342 -0.13317726 11.1741852 -2.65234375 11.265625 C-3.28269531 11.15734375 -3.91304687 11.0490625 -4.5625 10.9375 C-6.71752531 7.70496204 -7.03106135 6.68599077 -6.5625 2.9375 C-4.75279557 -0.25609605 -3.70782148 -0.0650495 0 0 Z " fill="#B6462E" transform="translate(775.5625,466.0625)"/>
<path d="M0 0 C3.5 0.25 3.5 0.25 5.5 2.25 C5.83302312 5.3804173 5.97671956 7.42898298 4.375 10.1875 C2.5 11.25 2.5 11.25 -0.5 11.125 C-4.93218807 9.83227848 -4.93218807 9.83227848 -6.5 7.25 C-6.14091954 2.34256699 -5.1331469 0.36665335 0 0 Z " fill="#B5462E" transform="translate(545.5,791.75)"/>
<path d="M0 0 C3.0625 0.25 3.0625 0.25 6.0625 2.25 C6.5625 5.1875 6.5625 5.1875 6.0625 8.25 C3.40379322 10.60485457 1.93348055 11.29051072 -1.625 11.125 C-3.9375 10.25 -3.9375 10.25 -5.9375 7.25 C-5.50255443 2.79180787 -4.8294944 0.4110208 0 0 Z " fill="#B6462E" transform="translate(661.9375,595.75)"/>
<path d="M0 0 C1.8125 1.125 1.8125 1.125 3 3 C3.4375 6 3.4375 6 3 9 C1.3125 10.9375 1.3125 10.9375 -1 12 C-4.37036311 11.75925978 -5.58798021 11.41201979 -8 9 C-8.333728 5.86295684 -8.52849028 3.83445834 -6.8125 1.125 C-4.34492892 -0.40659584 -2.85480169 -0.42822025 0 0 Z " fill="#B6472F" transform="translate(746,443)"/>
<path d="M0 0 C1.8125 1.125 1.8125 1.125 3 3 C3.375 6.0625 3.375 6.0625 3 9 C-0.46923881 11.31282587 -1.92205575 11.42478586 -6 11 C-7.9375 9.8125 -7.9375 9.8125 -9 8 C-8.85873193 5.17463858 -8.3554723 3.51543484 -6.75 1.1875 C-4.3314673 -0.45364719 -2.86449123 -0.42967368 0 0 Z " fill="#B5462E" transform="translate(414,620)"/>
<path d="M0 0 C1 1 1 1 1.1875 4.4375 C1 8 1 8 -1 10 C-4.5 10.25 -4.5 10.25 -8 10 C-10 8 -10 8 -10.3125 5.0625 C-10 2 -10 2 -8.9375 0.0625 C-5.84787273 -1.63181173 -3.32782582 -0.73951685 0 0 Z " fill="#B5462D" transform="translate(511,256)"/>
<path d="M0 0 C3.0625 0.3125 3.0625 0.3125 4.9375 1.5 C6.46909584 3.96757108 6.49072025 5.45769831 6.0625 8.3125 C4.9375 10.125 4.9375 10.125 3.0625 11.3125 C0 11.625 0 11.625 -2.9375 11.3125 C-4.9375 9.3125 -4.9375 9.3125 -5.1875 5.8125 C-4.87458101 1.43163414 -4.40975115 0.46912246 0 0 Z " fill="#B6472E" transform="translate(630.9375,612.6875)"/>
<path d="M0 0 C3.0625 0.3125 3.0625 0.3125 4.9375 1.5 C6.46909584 3.96757108 6.49072025 5.45769831 6.0625 8.3125 C5 10.1875 5 10.1875 3.0625 11.3125 C-0.5625 11.125 -0.5625 11.125 -3.9375 10.3125 C-5.31875018 7.54999964 -5.12829306 5.36518901 -4.9375 2.3125 C-2.9375 0.3125 -2.9375 0.3125 0 0 Z " fill="#B4452E" transform="translate(686.9375,281.6875)"/>
<path d="M0 0 C1.875 1.0625 1.875 1.0625 3 3 C2.6875 6.6875 2.6875 6.6875 2 10 C-4.42548263 11.33359073 -4.42548263 11.33359073 -6.9375 9.875 C-8.36066991 7.36352369 -8.42674516 5.84496772 -8 3 C-5.85607122 -0.27231235 -3.76836426 -0.56525464 0 0 Z " fill="#B5462E" transform="translate(305,329)"/>
<path d="M0 0 C3 0.25 3 0.25 5 2.25 C5.25 5.25 5.25 5.25 5 8.25 C3 10.25 3 10.25 0 10.5 C-3 10.25 -3 10.25 -5 8.25 C-5.25 5.25 -5.25 5.25 -5 2.25 C-3 0.25 -3 0.25 0 0 Z " fill="#B5462E" transform="translate(537,427.75)"/>
<path d="M0 0 C4.31455798 2.28417775 7.13452098 4.43994016 9 9 C9.54333853 13.89004676 9.52109104 15.99503871 7.25 20.375 C4 24.16666667 4 24.16666667 1 25 C-1.69087876 25.14489347 -4.30035311 25.08998823 -7 25 C-7 24.34 -7 23.68 -7 23 C-6.07767578 22.92652344 -6.07767578 22.92652344 -5.13671875 22.8515625 C-4.32847656 22.77679688 -3.52023437 22.70203125 -2.6875 22.625 C-1.88699219 22.55539063 -1.08648438 22.48578125 -0.26171875 22.4140625 C2.27224441 22.10435574 2.27224441 22.10435574 5 20 C6.24271559 16.04590495 6.43986635 12.10541929 6 8 C4.14658666 4.89649551 4.14658666 4.89649551 1 3 C-3.03720696 2.30448118 -7.11160262 2.70386754 -11 4 C-7.43363078 0.27152309 -5.24493402 -0.50432058 0 0 Z " fill="#334441" transform="translate(590,184)"/>
<path d="M0 0 C0.66 0.33 1.32 0.66 2 1 C-0.82902876 3.85846007 -3.66400779 6.71094984 -6.5 9.5625 C-7.29148438 10.36236328 -8.08296875 11.16222656 -8.8984375 11.98632812 C-20.59254808 23.72836538 -20.59254808 23.72836538 -27 28 C-25.64941886 24.98611927 -24.14395225 22.8965323 -21.8046875 20.57421875 C-21.17457764 19.94539795 -20.54446777 19.31657715 -19.89526367 18.66870117 C-18.89523315 17.68800659 -18.89523315 17.68800659 -17.875 16.6875 C-16.86046753 15.6826355 -16.86046753 15.6826355 -15.82543945 14.6574707 C-11.80583114 10.69966537 -7.73706592 6.8318369 -3.41796875 3.19921875 C-1.85892049 1.91444826 -1.85892049 1.91444826 0 0 Z " fill="#FEDC80" transform="translate(258,222)"/>
<path d="M0 0 C0.66 0.33 1.32 0.66 2 1 C3.38983734 5.16951202 3.89395378 8.79346042 2.19921875 12.9765625 C0.47865229 15.85008586 -0.92217067 17.61166443 -4.125 18.765625 C-9.16507255 19.54887952 -12.73789548 19.0146593 -17 16 C-18.375 13.8125 -18.375 13.8125 -19 12 C-17.7625 12.99 -17.7625 12.99 -16.5 14 C-12.5218269 16.63330607 -9.70598109 16.5975849 -5 16 C-1.79545952 14.9700931 -1.79545952 14.9700931 0 12 C0.41300474 7.96649916 0.28580211 4.03933644 0 0 Z " fill="#F6DF76" transform="translate(366,223)"/>
<path d="M0 0 C0.66 0.66 1.32 1.32 2 2 C-0.64 2 -3.28 2 -6 2 C-6.2475 2.61875 -6.495 3.2375 -6.75 3.875 C-8.20628639 6.35068687 -9.37812506 6.95125002 -12 8 C-12 10.31 -12 12.62 -12 15 C-12.33 15 -12.66 15 -13 15 C-13.66964286 7.23214286 -13.66964286 7.23214286 -10.625 3.5625 C-6.93528857 -0.03936116 -5.09942339 -0.31871396 0 0 Z " fill="#314642" transform="translate(565,308)"/>
<path d="M0 0 C0.33 0 0.66 0 1 0 C1.125 6.625 1.125 6.625 0 10 C-0.38503552 12.72897438 -0.7398891 15.45128163 -1.0625 18.1875 C-1.15337891 18.93708984 -1.24425781 19.68667969 -1.33789062 20.45898438 C-1.5613731 22.30565535 -1.78105513 24.15278554 -2 26 C-2.33 26 -2.66 26 -3 26 C-3.02716824 23.45826023 -3.04691969 20.91681585 -3.0625 18.375 C-3.07087891 17.66214844 -3.07925781 16.94929688 -3.08789062 16.21484375 C-3.11432438 10.45228488 -2.94880017 5.11125362 0 0 Z " fill="#F9AF4D" transform="translate(69,432)"/>
<path d="M0 0 C-1.90354807 2.50828536 -3.00579726 3.00135005 -6.13671875 3.73046875 C-7.30847656 3.88128906 -8.48023438 4.03210938 -9.6875 4.1875 C-10.86699219 4.34605469 -12.04648437 4.50460938 -13.26171875 4.66796875 C-14.16535156 4.77753906 -15.06898438 4.88710937 -16 5 C-10.90668624 1.01060188 -6.49497022 -0.3092843 0 0 Z " fill="#D03D31" transform="translate(462,169)"/>
<path d="M0 0 C0.33 0 0.66 0 1 0 C1.09706112 6.11485027 0.77040851 11.93303301 0 18 C-0.33 18 -0.66 18 -1 18 C-2.51708428 5.33029613 -2.51708428 5.33029613 0 0 Z " fill="#FAB34E" transform="translate(65,461)"/>
<path d="M0 0 C0.66 0.33 1.32 0.66 2 1 C1.67 1.99 1.34 2.98 1 4 C0.34 4 -0.32 4 -1 4 C-1.12375 5.299375 -1.2475 6.59875 -1.375 7.9375 C-1.5859375 10.15234375 -1.5859375 10.15234375 -2 12 C-2.99 12.495 -2.99 12.495 -4 13 C-4.45732667 7.28341664 -3.52273754 4.51350747 0 0 Z " fill="#465145" transform="translate(195,411)"/>
<path d="M0 0 C-0.66 0 -1.32 0 -2 0 C-2 0.66 -2 1.32 -2 2 C-2.60328125 2.13277344 -3.2065625 2.26554688 -3.828125 2.40234375 C-4.62734375 2.57894531 -5.4265625 2.75554687 -6.25 2.9375 C-7.43335938 3.19853516 -7.43335938 3.19853516 -8.640625 3.46484375 C-10.76878703 3.947556 -12.88532842 4.46163178 -15 5 C-12.86699672 2.63442627 -11.04050601 1.37032472 -8.0625 0.25 C-7.39347656 -0.01296875 -6.72445312 -0.2759375 -6.03515625 -0.546875 C-3.68352509 -1.07046274 -2.26382477 -0.74954377 0 0 Z " fill="#CF3830" transform="translate(663,220)"/>
<path d="M0 0 C2.01270624 1.66128134 2.91655268 2.54840272 3.3984375 5.15625 C3.39070312 5.9296875 3.38296875 6.703125 3.375 7.5 C3.38273438 8.2734375 3.39046875 9.046875 3.3984375 9.84375 C2.91655268 12.45159728 2.01270624 13.33871866 0 15 C0.185625 13.96875 0.37125 12.9375 0.5625 11.875 C0.97514176 8.22017298 0.74629522 5.56563273 0 2 C0 1.34 0 0.68 0 0 Z " fill="#29403F" transform="translate(654,491)"/>
<path d="M0 0 C0.33 0 0.66 0 1 0 C1.33 3.96 1.66 7.92 2 12 C-1 9 -1 9 -1.25 5.4375 C-1 2 -1 2 0 0 Z " fill="#2B4342" transform="translate(373,418)"/>
<path d="M0 0 C5.445 1.485 5.445 1.485 11 3 C11 3.66 11 4.32 11 5 C11.66 5.33 12.32 5.66 13 6 C7.71862571 5.48474397 4.42778844 3.74522883 0 1 C0 0.67 0 0.34 0 0 Z " fill="#D13C32" transform="translate(269,394)"/>
<path d="M0 0 C0.33 0 0.66 0 1 0 C1.40178571 8.03571429 1.40178571 8.03571429 -2 12 C-1.85962479 10.18706911 -1.71255111 8.3746557 -1.5625 6.5625 C-1.48128906 5.55316406 -1.40007813 4.54382813 -1.31640625 3.50390625 C-1 1 -1 1 0 0 Z " fill="#324643" transform="translate(598,193)"/>
<path d="M0 0 C1 3 1 3 0.00390625 5.48046875 C-0.47175781 6.37378906 -0.94742188 7.26710938 -1.4375 8.1875 C-1.91058594 9.08855469 -2.38367188 9.98960937 -2.87109375 10.91796875 C-3.24363281 11.60503906 -3.61617187 12.29210937 -4 13 C-4.33 13 -4.66 13 -5 13 C-4.67 10.69 -4.34 8.38 -4 6 C-3.34 6 -2.68 6 -2 6 C-1.34 4.02 -0.68 2.04 0 0 Z " fill="#EFA03E" transform="translate(917,704)"/>
<path d="M0 0 C-1.32 0.33 -2.64 0.66 -4 1 C-4 1.66 -4 2.32 -4 3 C-6.31 3.33 -8.62 3.66 -11 4 C-7.84441727 0.34616736 -4.73375145 -1.57791715 0 0 Z " fill="#FDDC81" transform="translate(365,159)"/>
<path d="M0 0 C-0.66 0 -1.32 0 -2 0 C-2 0.66 -2 1.32 -2 2 C-5.28696233 2.79953138 -6.71023192 3.09658936 -10 2 C-3.375 -1.125 -3.375 -1.125 0 0 Z " fill="#E37613" transform="translate(650,869)"/>
<path d="M0 0 C0.33 0 0.66 0 1 0 C1 1.65 1 3.3 1 5 C0.34 5 -0.32 5 -1 5 C-1 6.98 -1 8.96 -1 11 C-1.33 11 -1.66 11 -2 11 C-2.05399736 9.54207116 -2.09279177 8.08357288 -2.125 6.625 C-2.15980469 5.40683594 -2.15980469 5.40683594 -2.1953125 4.1640625 C-2 2 -2 2 0 0 Z " fill="#253F3F" transform="translate(217,656)"/>
<path d="M0 0 C0.33 0 0.66 0 1 0 C1.33 3.96 1.66 7.92 2 12 C1.67 10.68 1.34 9.36 1 8 C0.34 8 -0.32 8 -1 8 C-0.67 5.36 -0.34 2.72 0 0 Z " fill="#FAB14D" transform="translate(68,576)"/>
<path d="M0 0 C0.66 0.33 1.32 0.66 2 1 C0.25 3.0625 0.25 3.0625 -2 5 C-4.25 4.75 -4.25 4.75 -6 4 C-4.02 2.68 -2.04 1.36 0 0 Z " fill="#CF3831" transform="translate(377,562)"/>
<path d="M0 0 C0.66 0.33 1.32 0.66 2 1 C0.68 2.65 -0.64 4.3 -2 6 C-3.32 5.67 -4.64 5.34 -6 5 C-4.02 3.35 -2.04 1.7 0 0 Z " fill="#FCDF76" transform="translate(579,484)"/>
<path d="M0 0 C0.66 0.33 1.32 0.66 2 1 C0.35 2.65 -1.3 4.3 -3 6 C-3.99 5.67 -4.98 5.34 -6 5 C-4.02 3.35 -2.04 1.7 0 0 Z " fill="#FDDC81" transform="translate(282,203)"/>
<path d="M0 0 C0 0.33 0 0.66 0 1 C-7.42857143 1.28571429 -7.42857143 1.28571429 -11 -1 C-6.70700357 -2.26264601 -4.12168689 -1.62950412 0 0 Z " fill="#FAAF4A" transform="translate(585,69)"/>
<path d="M0 0 C0.66 1.32 1.32 2.64 2 4 C1.34 3.67 0.68 3.34 0 3 C0 2.01 0 1.02 0 0 Z " fill="#EDA648" transform="translate(80,645)"/>
<path d="M0 0 C0.33 0 0.66 0 1 0 C1 1.65 1 3.3 1 5 C0.67 5 0.34 5 0 5 C0 3.35 0 1.7 0 0 Z " fill="#EEA749" transform="translate(72,614)"/>
<path d="M0 0 C4 1 4 1 4 1 Z " fill="#F2A94A" transform="translate(547,959)"/>
<path d="M0 0 C4 1 4 1 4 1 Z " fill="#F1A949" transform="translate(459,958)"/>
<path d="M0 0 C0.99 1.485 0.99 1.485 2 3 C1.34 3 0.68 3 0 3 C0 2.01 0 1.02 0 0 Z " fill="#E59E43" transform="translate(192,829)"/>
<path d="M0 0 C0.33 0.66 0.66 1.32 1 2 C0.01 1.67 -0.98 1.34 -2 1 C-1.34 0.67 -0.68 0.34 0 0 Z " fill="#E7A043" transform="translate(297,112)"/>
<path d="M0 0 C3 1 3 1 3 1 Z " fill="#F0A84A" transform="translate(473,959)"/>
<path d="M0 0 C3 1 3 1 3 1 Z " fill="#F1AA49" transform="translate(568,957)"/>
<path d="M0 0 C0.66 0.66 1.32 1.32 2 2 C1.34 2 0.68 2 0 2 C0 1.34 0 0.68 0 0 Z " fill="#E79E42" transform="translate(274,893)"/>
<path d="M0 0 C0.66 0 1.32 0 2 0 C1.67 0.66 1.34 1.32 1 2 C0.67 1.34 0.34 0.68 0 0 Z " fill="#EAA445" transform="translate(97,692)"/>
<path d="" fill="#EEA849" transform="translate(0,0)"/>
<path d="" fill="#EFA84B" transform="translate(0,0)"/>
<path d="" fill="#E59F42" transform="translate(0,0)"/>
<path d="M0 0 C0.99 0.495 0.99 0.495 2 1 C1.01 1.495 1.01 1.495 0 2 C0 1.34 0 0.68 0 0 Z " fill="#E6A043" transform="translate(164,221)"/>
<path d="M0 0 C3 1 3 1 3 1 Z " fill="#E7A044" transform="translate(257,136)"/>
<path d="M0 0 C3 1 3 1 3 1 Z " fill="#EBA343" transform="translate(677,91)"/>
<path d="M0 0 C3 1 3 1 3 1 Z " fill="#E9A345" transform="translate(344,91)"/>
<path d="M0 0 C3 1 3 1 3 1 Z " fill="#EDA647" transform="translate(353,88)"/>
<path d="M0 0 C3 1 3 1 3 1 Z " fill="#EBA548" transform="translate(645,80)"/>
<path d="M0 0 C3 1 3 1 3 1 Z " fill="#F2AA48" transform="translate(590,67)"/>
<path d="M0 0 C2 1 2 1 2 1 Z " fill="#F3AB4B" transform="translate(560,958)"/>
<path d="M0 0 C2 1 2 1 2 1 Z " fill="#F1A948" transform="translate(439,955)"/>
<path d="M0 0 C2 1 2 1 2 1 Z " fill="#F2A749" transform="translate(611,950)"/>
<path d="M0 0 C2 1 2 1 2 1 Z " fill="#EFA646" transform="translate(400,947)"/>
<path d="M0 0 C2 1 2 1 2 1 Z " fill="#EDA446" transform="translate(638,943)"/>
<path d="M0 0 C2 1 2 1 2 1 Z " fill="#EFA448" transform="translate(378,941)"/>
<path d="M0 0 C2 1 2 1 2 1 Z " fill="#E9A043" transform="translate(360,935)"/>
<path d="" fill="#EBA245" transform="translate(0,0)"/>
<path d="M0 0 C2 1 2 1 2 1 Z " fill="#EDA344" transform="translate(684,927)"/>
<path d="M0 0 C2 1 2 1 2 1 Z " fill="#EBA244" transform="translate(702,919)"/>
<path d="" fill="#E79E43" transform="translate(0,0)"/>
<path d="M0 0 C2 1 2 1 2 1 Z " fill="#E59F44" transform="translate(201,838)"/>
<path d="" fill="#E7A144" transform="translate(0,0)"/>
<path d="" fill="#EDA647" transform="translate(0,0)"/>
<path d="M0 0 C2 1 2 1 2 1 Z " fill="#EFAA48" transform="translate(949,623)"/>
<path d="" fill="#EFA749" transform="translate(0,0)"/>
<path d="" fill="#EFAA4B" transform="translate(0,0)"/>
<path d="" fill="#F0A84A" transform="translate(0,0)"/>
<path d="M0 0 C2 1 2 1 2 1 Z " fill="#F1AB4B" transform="translate(956,590)"/>
<path d="" fill="#F0AA4C" transform="translate(0,0)"/>
<path d="" fill="#F2AB4E" transform="translate(0,0)"/>
<path d="" fill="#F1AB4D" transform="translate(0,0)"/>
<path d="" fill="#F2AC4C" transform="translate(0,0)"/>
<path d="" fill="#F3AE4D" transform="translate(0,0)"/>
<path d="" fill="#F2AC4F" transform="translate(0,0)"/>
<path d="" fill="#F3AC4E" transform="translate(0,0)"/>
<path d="" fill="#F1AD4D" transform="translate(0,0)"/>
<path d="" fill="#EFA94B" transform="translate(0,0)"/>
<path d="" fill="#E9A345" transform="translate(0,0)"/>
<path d="" fill="#EEA649" transform="translate(0,0)"/>
<path d="" fill="#EBA547" transform="translate(0,0)"/>
<path d="M0 0 C2 1 2 1 2 1 Z " fill="#E8A145" transform="translate(96,321)"/>
<path d="" fill="#E8A245" transform="translate(0,0)"/>
<path d="" fill="#E9A145" transform="translate(0,0)"/>
<path d="" fill="#EAA346" transform="translate(0,0)"/>
<path d="" fill="#E69F42" transform="translate(0,0)"/>
<path d="M0 0 C2 1 2 1 2 1 Z " fill="#E59D43" transform="translate(268,129)"/>
<path d="M0 0 C2 1 2 1 2 1 Z " fill="#E9A242" transform="translate(692,97)"/>
<path d="M0 0 C2 1 2 1 2 1 Z " fill="#E9A342" transform="translate(680,92)"/>
<path d="M0 0 C2 1 2 1 2 1 Z " fill="#EFA849" transform="translate(378,80)"/>
<path d="M0 0 C2 1 2 1 2 1 Z " fill="#EEA546" transform="translate(614,72)"/>
<path d="M0 0 C2 1 2 1 2 1 Z " fill="#F4AB4B" transform="translate(449,64)"/>
<path d="M0 0 C2 1 2 1 2 1 Z " fill="#F4AF4E" transform="translate(488,61)"/>
<path d="" fill="#1A0E00" transform="translate(0,0)"/>
<path d="" fill="#F0AB4B" transform="translate(0,0)"/>
<path d="" fill="#F1A94A" transform="translate(0,0)"/>
<path d="" fill="#F3AB4C" transform="translate(0,0)"/>
<path d="" fill="#F1A84A" transform="translate(0,0)"/>
<path d="" fill="#EFA94B" transform="translate(0,0)"/>
<path d="" fill="#F1A94A" transform="translate(0,0)"/>
<path d="" fill="#F2A94B" transform="translate(0,0)"/>
<path d="" fill="#F2AA49" transform="translate(0,0)"/>
<path d="" fill="#F0A949" transform="translate(0,0)"/>
<path d="" fill="#F0A946" transform="translate(0,0)"/>
<path d="" fill="#EDA748" transform="translate(0,0)"/>
<path d="" fill="#EFA749" transform="translate(0,0)"/>
<path d="" fill="#ECA748" transform="translate(0,0)"/>
<path d="" fill="#F0A546" transform="translate(0,0)"/>
<path d="" fill="#ECA548" transform="translate(0,0)"/>
<path d="" fill="#F1A546" transform="translate(0,0)"/>
<path d="" fill="#EEA648" transform="translate(0,0)"/>
<path d="" fill="#EAA547" transform="translate(0,0)"/>
<path d="" fill="#EDA546" transform="translate(0,0)"/>
<path d="" fill="#EDA644" transform="translate(0,0)"/>
<path d="" fill="#EAA244" transform="translate(0,0)"/>
<path d="" fill="#CA8B37" transform="translate(0,0)"/>
<path d="" fill="#EDA246" transform="translate(0,0)"/>
<path d="" fill="#E9A143" transform="translate(0,0)"/>
<path d="" fill="#EAA245" transform="translate(0,0)"/>
<path d="" fill="#352106" transform="translate(0,0)"/>
<path d="" fill="#E69F43" transform="translate(0,0)"/>
<path d="" fill="#E9A244" transform="translate(0,0)"/>
<path d="" fill="#EAA244" transform="translate(0,0)"/>
<path d="" fill="#EBA144" transform="translate(0,0)"/>
<path d="" fill="#E9A343" transform="translate(0,0)"/>
<path d="" fill="#EAA343" transform="translate(0,0)"/>
<path d="" fill="#E9A243" transform="translate(0,0)"/>
<path d="" fill="#EBA142" transform="translate(0,0)"/>
<path d="" fill="#E89F42" transform="translate(0,0)"/>
<path d="" fill="#E8A144" transform="translate(0,0)"/>
<path d="" fill="#EBA140" transform="translate(0,0)"/>
<path d="" fill="#E9A145" transform="translate(0,0)"/>
<path d="" fill="#E59F43" transform="translate(0,0)"/>
<path d="" fill="#E8A041" transform="translate(0,0)"/>
<path d="" fill="#E59E42" transform="translate(0,0)"/>
<path d="" fill="#EBA041" transform="translate(0,0)"/>
<path d="" fill="#E89F42" transform="translate(0,0)"/>
<path d="" fill="#E99F42" transform="translate(0,0)"/>
<path d="" fill="#E49E42" transform="translate(0,0)"/>
<path d="" fill="#E69C42" transform="translate(0,0)"/>
<path d="" fill="#E49D41" transform="translate(0,0)"/>
<path d="" fill="#E79E41" transform="translate(0,0)"/>
<path d="" fill="#E89F43" transform="translate(0,0)"/>
<path d="" fill="#E39D40" transform="translate(0,0)"/>
<path d="" fill="#DF9A41" transform="translate(0,0)"/>
<path d="" fill="#E39E41" transform="translate(0,0)"/>
<path d="" fill="#E79F42" transform="translate(0,0)"/>
<path d="" fill="#E39D43" transform="translate(0,0)"/>
<path d="" fill="#E49F40" transform="translate(0,0)"/>
<path d="" fill="#E59C41" transform="translate(0,0)"/>
<path d="" fill="#E5A043" transform="translate(0,0)"/>
<path d="" fill="#E6A042" transform="translate(0,0)"/>
<path d="" fill="#E79D41" transform="translate(0,0)"/>
<path d="" fill="#E79D41" transform="translate(0,0)"/>
<path d="" fill="#E49C3F" transform="translate(0,0)"/>
<path d="" fill="#E59F42" transform="translate(0,0)"/>
<path d="" fill="#E69E42" transform="translate(0,0)"/>
<path d="" fill="#E49E42" transform="translate(0,0)"/>
<path d="" fill="#E59D41" transform="translate(0,0)"/>
<path d="" fill="#E69F45" transform="translate(0,0)"/>
<path d="" fill="#E29D41" transform="translate(0,0)"/>
<path d="" fill="#E69C41" transform="translate(0,0)"/>
<path d="" fill="#E39B41" transform="translate(0,0)"/>
<path d="" fill="#E59F41" transform="translate(0,0)"/>
<path d="" fill="#E69A42" transform="translate(0,0)"/>
<path d="" fill="#DE9940" transform="translate(0,0)"/>
<path d="" fill="#E59B40" transform="translate(0,0)"/>
<path d="" fill="#E29C40" transform="translate(0,0)"/>
<path d="" fill="#E59D41" transform="translate(0,0)"/>
<path d="" fill="#E69F44" transform="translate(0,0)"/>
<path d="" fill="#E59D40" transform="translate(0,0)"/>
<path d="" fill="#E79F45" transform="translate(0,0)"/>
<path d="" fill="#E6A046" transform="translate(0,0)"/>
<path d="" fill="#E89F41" transform="translate(0,0)"/>
<path d="" fill="#E69D43" transform="translate(0,0)"/>
<path d="" fill="#E69F42" transform="translate(0,0)"/>
<path d="" fill="#E69E42" transform="translate(0,0)"/>
<path d="" fill="#E89D44" transform="translate(0,0)"/>
<path d="" fill="#E89F42" transform="translate(0,0)"/>
<path d="" fill="#E79C45" transform="translate(0,0)"/>
<path d="" fill="#E69C40" transform="translate(0,0)"/>
<path d="" fill="#E49E42" transform="translate(0,0)"/>
<path d="" fill="#E7A042" transform="translate(0,0)"/>
<path d="" fill="#E59E41" transform="translate(0,0)"/>
<path d="" fill="#E8A144" transform="translate(0,0)"/>
<path d="" fill="#E59E41" transform="translate(0,0)"/>
<path d="" fill="#E9A044" transform="translate(0,0)"/>
<path d="" fill="#E7A145" transform="translate(0,0)"/>
<path d="" fill="#E7A244" transform="translate(0,0)"/>
<path d="" fill="#E9A345" transform="translate(0,0)"/>
<path d="" fill="#E8A144" transform="translate(0,0)"/>
<path d="" fill="#E7A043" transform="translate(0,0)"/>
<path d="" fill="#E9A146" transform="translate(0,0)"/>
<path d="" fill="#EAA345" transform="translate(0,0)"/>
<path d="" fill="#E79D42" transform="translate(0,0)"/>
<path d="" fill="#E9A442" transform="translate(0,0)"/>
<path d="" fill="#EBA248" transform="translate(0,0)"/>
<path d="" fill="#E8A343" transform="translate(0,0)"/>
<path d="" fill="#EAA145" transform="translate(0,0)"/>
<path d="" fill="#ECA546" transform="translate(0,0)"/>
<path d="" fill="#ECA447" transform="translate(0,0)"/>
<path d="" fill="#EBA446" transform="translate(0,0)"/>
<path d="" fill="#EDA448" transform="translate(0,0)"/>
<path d="" fill="#ECA447" transform="translate(0,0)"/>
<path d="" fill="#EAA445" transform="translate(0,0)"/>
<path d="" fill="#EAA445" transform="translate(0,0)"/>
<path d="" fill="#EBA646" transform="translate(0,0)"/>
<path d="" fill="#ECA546" transform="translate(0,0)"/>
<path d="" fill="#EEA645" transform="translate(0,0)"/>
<path d="" fill="#EBA449" transform="translate(0,0)"/>
<path d="" fill="#EBA646" transform="translate(0,0)"/>
<path d="" fill="#EFA647" transform="translate(0,0)"/>
<path d="" fill="#EFA747" transform="translate(0,0)"/>
<path d="" fill="#EEA749" transform="translate(0,0)"/>
<path d="" fill="#F1A849" transform="translate(0,0)"/>
<path d="" fill="#EEA94C" transform="translate(0,0)"/>
<path d="" fill="#F2AA4E" transform="translate(0,0)"/>
<path d="" fill="#F0A94B" transform="translate(0,0)"/>
<path d="" fill="#F1AA4D" transform="translate(0,0)"/>
<path d="" fill="#F1AC4D" transform="translate(0,0)"/>
<path d="" fill="#F2AC4B" transform="translate(0,0)"/>
<path d="" fill="#F2AC4C" transform="translate(0,0)"/>
<path d="" fill="#F4AE4E" transform="translate(0,0)"/>
<path d="" fill="#F1AC4E" transform="translate(0,0)"/>
<path d="" fill="#F2AD4E" transform="translate(0,0)"/>
<path d="" fill="#F3AE50" transform="translate(0,0)"/>
<path d="" fill="#F3AE4F" transform="translate(0,0)"/>
<path d="" fill="#F2AE4E" transform="translate(0,0)"/>
<path d="" fill="#F0AA4E" transform="translate(0,0)"/>
<path d="" fill="#F2AB4E" transform="translate(0,0)"/>
<path d="" fill="#F3AB4E" transform="translate(0,0)"/>
<path d="" fill="#F5AD51" transform="translate(0,0)"/>
<path d="" fill="#F1AE50" transform="translate(0,0)"/>
<path d="" fill="#F0AA49" transform="translate(0,0)"/>
<path d="" fill="#EFAB4B" transform="translate(0,0)"/>
<path d="" fill="#EEAB4E" transform="translate(0,0)"/>
<path d="" fill="#EDA74A" transform="translate(0,0)"/>
<path d="" fill="#F0A94C" transform="translate(0,0)"/>
<path d="" fill="#EDA74A" transform="translate(0,0)"/>
<path d="" fill="#EDA84B" transform="translate(0,0)"/>
<path d="" fill="#EFA94D" transform="translate(0,0)"/>
<path d="" fill="#EEA949" transform="translate(0,0)"/>
<path d="" fill="#ECA849" transform="translate(0,0)"/>
<path d="" fill="#EEA548" transform="translate(0,0)"/>
<path d="" fill="#EAA648" transform="translate(0,0)"/>
<path d="" fill="#EDA64A" transform="translate(0,0)"/>
<path d="" fill="#EBA54A" transform="translate(0,0)"/>
<path d="" fill="#EDA749" transform="translate(0,0)"/>
<path d="" fill="#ECA54A" transform="translate(0,0)"/>
<path d="" fill="#E8A245" transform="translate(0,0)"/>
<path d="" fill="#EBA546" transform="translate(0,0)"/>
<path d="" fill="#E8A346" transform="translate(0,0)"/>
<path d="" fill="#E7A345" transform="translate(0,0)"/>
<path d="" fill="#E9A345" transform="translate(0,0)"/>
<path d="" fill="#E8A346" transform="translate(0,0)"/>
<path d="" fill="#EBA247" transform="translate(0,0)"/>
<path d="" fill="#E8A346" transform="translate(0,0)"/>
<path d="" fill="#EBA547" transform="translate(0,0)"/>
<path d="" fill="#E7A346" transform="translate(0,0)"/>
<path d="" fill="#EAA547" transform="translate(0,0)"/>
<path d="" fill="#E79F45" transform="translate(0,0)"/>
<path d="" fill="#E8A348" transform="translate(0,0)"/>
<path d="" fill="#E7A144" transform="translate(0,0)"/>
<path d="" fill="#E8A043" transform="translate(0,0)"/>
<path d="" fill="#E5A144" transform="translate(0,0)"/>
<path d="" fill="#E8A045" transform="translate(0,0)"/>
<path d="" fill="#E69E46" transform="translate(0,0)"/>
<path d="" fill="#E7A144" transform="translate(0,0)"/>
<path d="" fill="#E49D42" transform="translate(0,0)"/>
<path d="" fill="#E9A242" transform="translate(0,0)"/>
<path d="" fill="#E69F43" transform="translate(0,0)"/>
<path d="" fill="#E8A242" transform="translate(0,0)"/>
<path d="" fill="#E79E44" transform="translate(0,0)"/>
<path d="" fill="#E7A043" transform="translate(0,0)"/>
<path d="" fill="#E6A044" transform="translate(0,0)"/>
<path d="" fill="#E89F44" transform="translate(0,0)"/>
<path d="" fill="#E6A043" transform="translate(0,0)"/>
<path d="" fill="#E6A144" transform="translate(0,0)"/>
<path d="" fill="#E5A043" transform="translate(0,0)"/>
<path d="" fill="#E5A043" transform="translate(0,0)"/>
<path d="" fill="#E7A044" transform="translate(0,0)"/>
<path d="" fill="#E69F44" transform="translate(0,0)"/>
<path d="" fill="#EBA043" transform="translate(0,0)"/>
<path d="" fill="#E59D41" transform="translate(0,0)"/>
<path d="" fill="#E59C41" transform="translate(0,0)"/>
<path d="" fill="#E29C3F" transform="translate(0,0)"/>
<path d="" fill="#E59E41" transform="translate(0,0)"/>
<path d="" fill="#E49F3F" transform="translate(0,0)"/>
<path d="" fill="#E59F42" transform="translate(0,0)"/>
<path d="" fill="#E39D3F" transform="translate(0,0)"/>
<path d="" fill="#E9A141" transform="translate(0,0)"/>
<path d="" fill="#EBA143" transform="translate(0,0)"/>
<path d="" fill="#E7A244" transform="translate(0,0)"/>
<path d="" fill="#E69E43" transform="translate(0,0)"/>
<path d="" fill="#E89E42" transform="translate(0,0)"/>
<path d="" fill="#E59D40" transform="translate(0,0)"/>
<path d="" fill="#E69F43" transform="translate(0,0)"/>
<path d="" fill="#E7A043" transform="translate(0,0)"/>
<path d="" fill="#E59F3F" transform="translate(0,0)"/>
<path d="" fill="#E6A042" transform="translate(0,0)"/>
<path d="" fill="#EAA142" transform="translate(0,0)"/>
<path d="" fill="#E69E43" transform="translate(0,0)"/>
<path d="" fill="#E59D3E" transform="translate(0,0)"/>
<path d="" fill="#E5A141" transform="translate(0,0)"/>
<path d="" fill="#E9A142" transform="translate(0,0)"/>
<path d="" fill="#E79F40" transform="translate(0,0)"/>
<path d="" fill="#E6A042" transform="translate(0,0)"/>
<path d="" fill="#E89F42" transform="translate(0,0)"/>
<path d="" fill="#E89F41" transform="translate(0,0)"/>
<path d="" fill="#E5A041" transform="translate(0,0)"/>
<path d="" fill="#E9A144" transform="translate(0,0)"/>
<path d="" fill="#EBA142" transform="translate(0,0)"/>
<path d="" fill="#EAA342" transform="translate(0,0)"/>
<path d="" fill="#E6A240" transform="translate(0,0)"/>
<path d="" fill="#E9A143" transform="translate(0,0)"/>
<path d="" fill="#E8A144" transform="translate(0,0)"/>
<path d="" fill="#150C00" transform="translate(0,0)"/>
<path d="" fill="#E8A343" transform="translate(0,0)"/>
<path d="" fill="#EAA345" transform="translate(0,0)"/>
<path d="" fill="#ECA444" transform="translate(0,0)"/>
<path d="" fill="#E9A143" transform="translate(0,0)"/>
<path d="" fill="#EBA141" transform="translate(0,0)"/>
<path d="" fill="#EAA346" transform="translate(0,0)"/>
<path d="" fill="#EFA646" transform="translate(0,0)"/>
<path d="" fill="#ECA646" transform="translate(0,0)"/>
<path d="" fill="#F0A749" transform="translate(0,0)"/>
<path d="" fill="#EEA748" transform="translate(0,0)"/>
<path d="" fill="#EEA946" transform="translate(0,0)"/>
<path d="" fill="#EFA947" transform="translate(0,0)"/>
<path d="" fill="#F0A948" transform="translate(0,0)"/>
<path d="" fill="#F0A848" transform="translate(0,0)"/>
<path d="" fill="#F0AA4A" transform="translate(0,0)"/>
<path d="" fill="#F0A949" transform="translate(0,0)"/>
<path d="" fill="#F3AB4C" transform="translate(0,0)"/>
<path d="" fill="#EFAA49" transform="translate(0,0)"/>
<path d="" fill="#F3AD4A" transform="translate(0,0)"/>
<path d="" fill="#F3AC4B" transform="translate(0,0)"/>
<path d="" fill="#F3AB48" transform="translate(0,0)"/>
<path d="" fill="#F4AE4C" transform="translate(0,0)"/>
<path d="" fill="#F0AD4B" transform="translate(0,0)"/>
<path d="" fill="#F3AC4D" transform="translate(0,0)"/>
<path d="" fill="#F3AE4E" transform="translate(0,0)"/>
<path d="" fill="#F5AF4F" transform="translate(0,0)"/>
<path d="" fill="#F2AD4E" transform="translate(0,0)"/>
<path d="" fill="#F3AD4B" transform="translate(0,0)"/>
<path d="" fill="#000000" transform="translate(0,0)"/>
</svg>
