<svg width="34" height="31" viewBox="0 0 34 31" fill="none" xmlns="http://www.w3.org/2000/svg">
<path d="M26.7662 29.0158C28.4642 29.0158 29.8406 27.6395 29.8406 25.9415C29.8406 24.2435 28.4642 22.8671 26.7662 22.8671C25.0683 22.8671 23.6919 24.2435 23.6919 25.9415C23.6919 27.6395 25.0683 29.0158 26.7662 29.0158Z" stroke="#FDF8E2" stroke-width="2.5" stroke-linecap="round" stroke-linejoin="round"/>
<path d="M11.3947 29.0158C13.0926 29.0158 14.469 27.6395 14.469 25.9415C14.469 24.2435 13.0926 22.8671 11.3947 22.8671C9.69674 22.8671 8.32031 24.2435 8.32031 25.9415C8.32031 27.6395 9.69674 29.0158 11.3947 29.0158Z" stroke="#FDF8E2" stroke-width="2.5" stroke-linecap="round" stroke-linejoin="round"/>
<path d="M1.25 1.3313C1.25 1.3313 8.38249 1.23907 7.3987 7.48L6.33814 13.721C6.18085 14.4693 6.19629 15.2435 6.38345 15.9851C6.5706 16.7265 6.92451 17.4154 7.41811 17.9995C7.91173 18.5835 8.5321 19.0471 9.23197 19.3553C9.93185 19.6634 10.6928 19.8077 11.4568 19.7774H23.7542C25.4573 19.7269 27.0928 19.1005 28.3939 18.0005C29.6948 16.9005 30.5845 15.3917 30.9175 13.721L31.9783 7.40316C32.1461 6.64644 32.1378 5.86123 31.9541 5.10819C31.7703 4.35516 31.4158 3.65442 30.9182 3.06016C30.4205 2.46589 29.7929 1.99398 29.0838 1.68089C28.3747 1.3678 27.603 1.22192 26.8286 1.25446H13.4552" stroke="#FDF8E2" stroke-width="2.5" stroke-linecap="round" stroke-linejoin="round"/>
</svg>
