<svg xmlns="http://www.w3.org/2000/svg" width="291" height="190" viewBox="0 0 291 190">
  <defs>
    <linearGradient id="a" x1="48.743%" x2="52.403%" y1="76.002%" y2="-.583%">
      <stop stop-color="#504678" offset="0%"/>
      <stop stop-color="#504678" stop-opacity=".616" offset="30.2%"/>
      <stop stop-color="#504678" stop-opacity=".283" offset="60.8%"/>
      <stop stop-color="#504678" stop-opacity=".076" offset="85.2%"/>
      <stop stop-color="#504678" stop-opacity="0" offset="100%"/>
    </linearGradient>
    <linearGradient id="b" x1="13.702%" x2="57.382%" y1="66.341%" y2="41.255%">
      <stop stop-color="#504678" offset="0%"/>
      <stop stop-color="#504678" stop-opacity=".872" offset="17.9%"/>
      <stop stop-color="#504678" stop-opacity=".536" offset="52.6%"/>
      <stop stop-color="#504678" stop-opacity="0" offset="100%"/>
    </linearGradient>
    <linearGradient id="c" x1="47.724%" x2="45.261%" y1="34.971%" y2="18.375%">
      <stop stop-color="#504678" offset="0%"/>
      <stop stop-color="#504678" stop-opacity=".332" offset="64.3%"/>
      <stop stop-color="#504678" stop-opacity="0" offset="100%"/>
    </linearGradient>
  </defs>
  <g fill="none" transform="translate(20)">
    <path fill="#5A78FF" d="M.204521739 179.978503L9.4226087 150.87167C9.52220907 150.468529 9.87081251 150.175529 10.2856174 150.146315L14.9154783 150.146315C15.3282546 150.203967 15.6765094 150.482191 15.8234087 150.87167L22.9977391 169.233474C23.1343304 169.596334 23.4973565 169.642284 23.6328522 169.233474L30.7618957 150.87167C30.9082045 150.48206 31.2563658 150.203686 31.6690957 150.146315L36.3026087 150.146315C36.7173225 150.175754 37.0658112 150.468657 37.1656174 150.87167L46.2 179.978503C46.3826087 180.567831 46.0645043 180.976276 45.5196 180.976276L40.0241739 180.976276C39.6321949 180.994734 39.285302 180.724996 39.2071826 180.340998L33.3501913 161.435816C33.258887 161.072956 32.8505739 161.072956 32.7139826 161.435816L25.8113739 180.204607C25.5845739 180.749443 25.2664696 180.975912 24.8128696 180.975912L21.5890957 180.975912C21.0894783 180.975912 20.8173913 180.703493 20.6358783 180.204607L13.5068348 161.435816C13.3713391 161.072956 13.0079478 161.072956 12.9166435 161.435816L6.92452174 180.341363C6.8336571 180.736542 6.46757109 181.006368 6.0626087 180.976641L.885652174 180.976641C.341113043 180.976641-.0222782609 180.613781.204521739 179.978503zM47.9683826 169.596334C47.9683826 162.841305 53.1442435 157.627063 60.1366957 157.627063 67.1748 157.627063 72.3050087 162.842035 72.3050087 169.596334 72.3050087 176.306507 67.1744348 181.565605 60.1366957 181.565605 53.1442435 181.565605 47.9683826 176.307236 47.9683826 169.596334zM66.1302783 169.596334C66.1302783 166.058906 63.4510435 163.250845 60.1366957 163.250845 56.8676348 163.250845 54.143113 166.058906 54.143113 169.596334 54.143113 173.087083 56.8672696 175.944376 60.1366957 175.944376 63.4514087 175.944741 66.1302783 173.087083 66.1302783 169.596334L66.1302783 169.596334zM83.2016348 179.117121C82.7473043 178.754261 82.3386261 178.890653 82.3386261 179.525931L82.3386261 180.115259C82.34378 180.575857 81.9817846 180.957341 81.5209043 180.977006L77.2537043 180.977006C76.7837321 180.961334 76.4063901 180.584544 76.3906957 180.115259L76.3906957 151.008061C76.4063901 150.538776 76.7837321 150.161986 77.2537043 150.146315L81.7488 150.146315C82.2094777 150.166174 82.571151 150.54766 82.5657913 151.008061L82.5657913 159.304242C82.5657913 159.89357 82.9741043 160.075547 83.610313 159.62261 85.3257544 158.335194 87.4115947 157.635175 89.557513 157.626699 95.7786261 157.626699 100.545809 162.886891 100.545809 169.595969 100.545809 176.305048 95.6884174 181.56524 89.3767304 181.56524 86.6978609 181.565605 84.8816348 180.47739 83.2016348 179.117121zM94.3721739 169.596334C94.3721739 166.058906 91.6929391 163.250845 88.3336696 163.250845 85.0646087 163.250845 82.3853739 166.016238 82.3853739 169.596334 82.3853739 173.133762 85.0193217 175.898426 88.3336696 175.898426 91.6918435 175.898426 94.3721739 173.087083 94.3721739 169.596334zM104.313026 152.276795C104.313429 150.373776 105.858646 148.831363 107.764452 148.831632 109.670258 148.8319 111.215039 150.374748 111.214904 152.277767 111.21477 154.180786 109.669771 155.723416 107.763965 155.723417 105.870806 155.692377 104.34371 154.167192 104.313026 152.276795zM104.63113 180.114894L104.63113 159.077774C104.625771 158.617372 104.987444 158.235886 105.448122 158.216027L109.943217 158.216027C110.41319 158.231698 110.790532 158.608489 110.806226 159.077774L110.806226 180.114894C110.790532 180.584179 110.41319 180.96097 109.943217 180.976641L105.447757 180.976641C104.987223 180.956591 104.625764 180.57516 104.63113 180.114894zM115.863391 173.269424L115.863391 151.008061C115.858032 150.54766 116.219705 150.166174 116.680383 150.146315L121.175478 150.146315C121.64545 150.161986 122.022793 150.538776 122.038487 151.008061L122.038487 173.40691C122.038487 174.85762 122.6736 175.809808 124.263026 175.809808 124.49194 175.809711 124.711506 175.900471 124.873372 176.062101 125.035239 176.223731 125.126132 176.442976 125.126035 176.671555L125.126035 180.388772C125.106146 180.848776 124.724102 181.20992 124.263026 181.204568 118.269443 181.203109 115.863391 179.253148 115.863391 173.269424zM126.766957 169.68714C126.766957 162.794626 131.852243 157.627428 138.663548 157.627428 145.42847 157.627428 150.37753 162.88762 150.37753 169.77904 150.37753 170.594837 150.15073 171.274242 149.333739 171.274242L133.715583 171.274242C133.306174 171.274242 133.170678 171.50071 133.215965 171.86357 133.53407 174.448445 135.803896 176.352092 138.754852 176.352092 140.411902 176.376941 141.993602 175.662065 143.068435 174.402495 143.411497 173.945987 143.949691 173.677284 144.52127 173.67714L148.698626 173.67714C149.425043 173.67714 149.743148 174.176027 149.471061 174.901382 147.97367 178.75499 143.704278 181.566334 138.57407 181.566334 131.672557 181.565605 126.766957 176.533704 126.766957 169.68714zM143.340157 167.602975C143.658261 167.602975 143.793757 167.466583 143.74847 167.104088 143.268619 164.628648 141.097688 162.840998 138.572609 162.842035 136.10403 162.87026 133.97069 164.570649 133.396017 166.968061 133.304713 167.284971 133.35073 167.60334 133.759409 167.60334L143.340157 167.602975zM154.146574 180.114894L154.146574 151.008061C154.141214 150.54766 154.502888 150.166174 154.963565 150.146315L169.266209 150.146315C175.8036 150.146315 180.254504 153.955432 180.254504 160.347965 180.254504 166.604107 175.214504 170.684184 168.948104 170.684184L161.366191 170.684184C161.135126 170.662939 160.907097 170.748881 160.747717 170.917281 160.588336 171.085681 160.515279 171.317865 160.549565 171.547025L160.549565 180.117083C160.533871 180.586367 160.156529 180.963158 159.686557 180.978829L154.961739 180.978829C154.500921 180.957993 154.139985 180.575463 154.146574 180.114894L154.146574 180.114894zM168.949565 165.42618C172.08313 165.42618 173.806957 162.750864 173.806957 160.393551 173.806957 157.900576 172.126957 155.543263 168.949565 155.543263L161.320174 155.543263C160.77527 155.543263 160.54847 155.815681 160.54847 156.360518L160.54847 164.610749C160.54847 165.155585 160.77527 165.428004 161.320174 165.428004L168.949565 165.42618zM182.381896 169.596334C182.381896 162.70382 187.558487 157.627063 193.642278 157.627063 196.230209 157.627063 198.046435 158.624837 199.680783 159.93952 200.089096 160.30238 200.543791 160.25643 200.543791 159.713052L200.543791 159.033647C200.542718 158.816697 200.628502 158.608312 200.782067 158.454835 200.935631 158.301358 201.144245 158.215513 201.361513 158.216392L205.629078 158.216392C206.09905 158.232063 206.476393 158.608853 206.492087 159.078138L206.492087 174.085221C206.492087 175.219386 206.9004 175.718273 207.672104 175.762764 208.077839 175.770485 208.411583 176.084184 208.443809 176.488119L208.443809 180.431804C208.445278 180.636687 208.36447 180.833614 208.219448 180.97856 208.074427 181.123506 207.877288 181.204383 207.672104 181.203109 204.677322 181.203109 202.904922 180.341363 201.905322 178.620058 201.633235 178.165298 201.31513 178.075221 200.86153 178.528157 199.045304 180.205701 196.956261 181.565969 193.550609 181.565969 187.466087 181.565605 182.381896 176.443628 182.381896 169.596334zM200.543791 169.596334C200.543791 166.015144 197.909843 163.250845 194.595496 163.250845 191.235496 163.250845 188.601913 166.058906 188.601913 169.596334 188.601913 173.087083 191.235861 175.944376 194.595496 175.944376 197.911304 175.944741 200.543791 173.133033 200.543791 169.596334L200.543791 169.596334zM210.62087 188.955912L210.62087 185.282821C210.640371 184.823076 211.02198 184.461885 211.482783 184.467025 214.479757 184.467025 217.385791 182.879923 218.020174 180.11453 218.189229 179.508709 218.124725 178.861618 217.839391 178.30096L209.488696 159.439539C209.215878 158.714184 209.669478 158.215298 210.215113 158.215298L214.709478 158.215298C215.163809 158.215298 215.435896 158.578157 215.617409 159.032553L220.840017 171.092265C221.203409 172.044088 221.793235 171.998138 222.202643 171.046315L227.196626 158.940653C227.379235 158.487716 227.604939 158.215298 228.059635 158.215298L232.373217 158.215298C232.643816 158.200953 232.902879 158.326169 233.059477 158.546995 233.216075 158.767821 233.24833 159.053406 233.144922 159.303512L224.562313 179.661228C221.429478 187.051536 218.11513 189.816929 211.48753 189.816929 211.016405 189.80316 210.637047 189.426273 210.62087 188.955912zM238.454087 164.472169L238.454087 159.759002C238.459179 159.709256 238.441582 159.659864 238.406172 159.624505 238.370761 159.589147 238.321297 159.571576 238.271478 159.57666L236.636765 159.57666C236.500174 159.57666 236.409965 159.53071 236.409965 159.350192L236.409965 158.442495C236.406424 158.381417 236.42918 158.321736 236.472504 158.278475 236.515829 158.235213 236.575597 158.212491 236.636765 158.216027L241.903565 158.216027C241.964701 158.212609 242.024399 158.23537 242.067696 158.278604 242.110994 158.321838 242.133788 158.381448 242.130365 158.442495L242.130365 159.350192C242.130365 159.53071 242.039061 159.57666 241.903565 159.57666L240.223565 159.57666C240.133357 159.57666 240.08807 159.666737 240.08807 159.759002L240.08807 164.472169C240.091093 164.545302 240.063321 164.616361 240.011488 164.668118 239.959655 164.719875 239.888493 164.747606 239.815252 164.744587L238.680522 164.744587C238.544002 164.72928 238.444005 164.608975 238.454087 164.472169L238.454087 164.472169zM242.086539 164.382092L243.992974 158.398369C244.025675 158.278175 244.142045 158.200397 244.265791 158.216027L245.264296 158.216027C245.382781 158.219374 245.488849 158.290265 245.537113 158.398369L246.851896 161.889117C246.9432 162.025509 246.988487 162.025509 247.078696 161.889117L248.441322 158.398369C248.477787 158.281258 248.591055 158.205351 248.713409 158.216027L249.712643 158.216027C249.836287 158.200127 249.952617 158.278087 249.98473 158.398369L251.847339 164.382092C251.893357 164.60856 251.847339 164.744952 251.620539 164.744952L250.349217 164.744952C250.213722 164.744952 250.166609 164.654875 250.122417 164.564434L249.032609 161.073685C249.021966 161.03201 248.984377 161.002845 248.941304 161.002845 248.898232 161.002845 248.860643 161.03201 248.85 161.073685L247.623965 164.518484C247.533757 164.654875 247.441357 164.744952 247.306591 164.744952L246.580174 164.744952C246.432895 164.757475 246.298221 164.661597 246.26207 164.518484L244.990748 161.117812C244.979584 161.076635 244.942165 161.048042 244.899443 161.048042 244.856722 161.048042 244.819303 161.076635 244.808139 161.117812L243.763617 164.564434C243.673409 164.700825 243.627026 164.744952 243.4908 164.744952L242.310783 164.744952C242.086539 164.744952 241.995235 164.60856 242.086539 164.382092zM109.139037 119.94429C105.029214 119.94453 101.323594 117.474189 99.7489605 113.684422L64.6916308 29.1970683C62.5468189 24.0275496 65.0055192 18.1010215 70.1835452 15.9591861L106.902558.777266962C109.388989-.251384627 112.182951-.251615921 114.669553.776623983 117.156156 1.80486389 119.131618 3.777309 120.161185 6.25986815L155.218515 90.7506996C157.359845 95.9187774 154.901742 101.841531 149.726601 103.983365L113.007588 119.17224C111.781424 119.680888 110.466846 119.94324 109.139037 119.94429zM110.786785 5.4565184C110.171435 5.45752754 109.562342 5.57984864 108.994467 5.81646082L72.2737124 20.9983799C71.1258754 21.4730261 70.2139722 22.3835057 69.7386745 23.5294602 69.2633768 24.6754146 69.2636322 25.9629404 69.7393846 27.1087068L104.796714 111.601277C105.789066 113.985248 108.52692 115.117734 110.917421 114.133046L147.636433 98.9406938 147.636433 98.9406938C148.78427 98.4660476 149.696174 97.555568 150.171471 96.4096135 150.646769 95.2636591 150.646514 93.9761333 150.170761 92.8303669L115.113431 8.34649086C114.387763 6.59962208 112.681122 5.45967554 110.786785 5.4565184z"/>
    <rect width="5.464" height="36.21" x="124.16" y="11.497" fill="url(#a)" opacity=".5" style="mix-blend-mode:multiply" transform="rotate(-22.5 126.892 29.602)"/>
    <rect width="5.464" height="40.988" x="139.775" y="46.747" fill="url(#a)" opacity=".5" style="mix-blend-mode:multiply" transform="rotate(157.5 142.507 67.241)"/>
    <path fill="#5A78FF" d="M141.463473,62.1187582 C130.962124,66.4658889 122.193873,72.4579738 116.45288,79.6811661 L101.651013,43.9929623 C108.402787,36.1619284 116.996809,30.1272162 126.661605,26.4305544 C137.162954,22.0834237 147.772294,19.9794125 156.78614,21.2053033 L171.591492,56.8917683 C161.270151,56.1157689 150.917385,57.9118977 141.463473,62.1187582 Z"/>
    <g opacity=".25" style="mix-blend-mode:multiply" transform="translate(100.491 19.127)">
      <path fill="url(#b)" d="M40.972503,42.9913833 C30.4711545,47.338514 21.702903,53.3305989 15.9619104,60.5537912 L1.16004281,24.8655874 C7.91181665,17.0345536 16.5058392,10.9998413 26.1706355,7.3031795 C36.6719839,2.95604885 47.2813244,0.852037609 56.2951706,2.07792845 L71.1005217,37.7643934 C60.7791809,36.988394 50.4264148,38.7845229 40.972503,42.9913833 Z" opacity=".9"/>
      <path fill="url(#c)" d="M40.972503,42.9913833 C30.4711545,47.338514 21.702903,53.3305989 15.9619104,60.5537912 L1.16004281,24.8655874 C7.91181665,17.0345536 16.5058392,10.9998413 26.1706355,7.3031795 C36.6719839,2.95604885 47.2813244,0.852037609 56.2951706,2.07792845 L71.1005217,37.7643934 C60.7791809,36.988394 50.4264148,38.7845229 40.972503,42.9913833 Z" opacity=".7"/>
    </g>
    <path fill="#5A78FF" d="M146.286534,72.9987568 C134.919508,72.9987568 124.513959,75.1914496 116.449397,79.6672553 L116.449397,43.5825931 C125.688742,38.928119 135.941191,36.6367316 146.286534,36.9140947 C157.65356,36.9140947 168.2629,39.0181059 176.121929,43.5912874 L176.121929,79.6759495 C166.884278,75.0176467 156.632141,72.7232076 146.286534,72.9987568 Z"/>
  </g>
</svg>
