<svg width="119" height="37" viewBox="0 0 119 37" fill="none" xmlns="http://www.w3.org/2000/svg">
<path d="M27.0645 26.9455H21.9703L25.1541 7.37868H30.2489L27.0645 26.9455ZM17.6847 7.37868L12.828 20.8369L12.2533 17.9388L12.2539 17.9399L10.5397 9.14045C10.5397 9.14045 10.3325 7.37868 8.12319 7.37868H0.0942124L0 7.71C0 7.71 2.45527 8.22084 5.32875 9.94649L9.75463 26.946H15.0624L23.1673 7.37868H17.6847ZM57.7537 26.9455H62.4313L58.3529 7.37816H54.2579C52.3668 7.37816 51.9062 8.83636 51.9062 8.83636L44.3085 26.9455H49.619L50.6809 24.0391H57.157L57.7537 26.9455ZM52.148 20.0241L54.8247 12.7017L56.3305 20.0241H52.148ZM44.7068 12.0841L45.4338 7.8822C45.4338 7.8822 43.1905 7.02905 40.852 7.02905C38.324 7.02905 32.3205 8.13395 32.3205 13.5067C32.3205 18.5617 39.3666 18.6245 39.3666 21.2797C39.3666 23.9349 33.0465 23.4591 30.9607 21.7848L30.2034 26.1782C30.2034 26.1782 32.4781 27.2831 35.9535 27.2831C39.4299 27.2831 44.6744 25.4831 44.6744 20.5841C44.6744 15.4966 37.565 15.023 37.565 12.8111C37.5655 10.5986 42.5269 10.8829 44.7068 12.0841Z" fill="#2566AF"/>
<path d="M12.2539 17.9394L10.5397 9.13994C10.5397 9.13994 10.3325 7.37817 8.12319 7.37817H0.0942124L0 7.70949C0 7.70949 3.85904 8.50924 7.56053 11.5057C11.0998 14.3698 12.2539 17.9394 12.2539 17.9394Z" fill="#E6A540"/>
<path d="M117.995 35.7454V35.8386H118.081C118.098 35.8389 118.114 35.8348 118.128 35.8267C118.134 35.8227 118.138 35.8174 118.141 35.8111C118.144 35.8049 118.146 35.798 118.145 35.7911C118.146 35.7843 118.144 35.7775 118.141 35.7715C118.138 35.7654 118.134 35.7602 118.128 35.7564C118.114 35.748 118.098 35.7438 118.081 35.7445H117.995V35.7454ZM118.082 35.6795C118.12 35.6772 118.156 35.6879 118.187 35.7098C118.199 35.7197 118.208 35.7324 118.215 35.7467C118.221 35.761 118.224 35.7766 118.223 35.7922C118.224 35.8057 118.221 35.8191 118.216 35.8316C118.211 35.8441 118.204 35.8554 118.194 35.8647C118.171 35.8849 118.141 35.8971 118.111 35.8994L118.227 36.0321H118.137L118.03 35.9003H117.995V36.0321H117.92V35.6798H118.084L118.082 35.6795ZM118.059 36.1537C118.098 36.1541 118.137 36.1461 118.173 36.1304C118.208 36.1154 118.24 36.094 118.267 36.0673C118.293 36.0406 118.315 36.009 118.33 35.9741C118.36 35.9003 118.36 35.8174 118.33 35.7436C118.315 35.7089 118.293 35.6773 118.267 35.6504C118.24 35.6237 118.208 35.6023 118.173 35.5873C118.137 35.5724 118.098 35.565 118.059 35.5654C118.019 35.565 117.98 35.5725 117.943 35.5873C117.907 35.602 117.875 35.6234 117.847 35.6504C117.806 35.6927 117.778 35.7461 117.767 35.8041C117.756 35.8621 117.762 35.922 117.785 35.9765C117.799 36.0114 117.821 36.0431 117.847 36.0696C117.875 36.0966 117.907 36.118 117.943 36.1327C117.979 36.1484 118.019 36.1564 118.059 36.156M118.059 35.4806C118.161 35.4805 118.26 35.5207 118.333 35.5924C118.368 35.6269 118.396 35.668 118.415 35.7133C118.435 35.7599 118.445 35.81 118.445 35.8606C118.445 35.9112 118.435 35.9613 118.415 36.0079C118.395 36.053 118.367 36.094 118.333 36.1288C118.297 36.163 118.255 36.1906 118.21 36.2103C118.162 36.2305 118.111 36.2409 118.059 36.2406C118.007 36.2409 117.955 36.2306 117.906 36.2103C117.86 36.1911 117.818 36.1634 117.783 36.1288C117.748 36.0927 117.72 36.0503 117.701 36.0039C117.681 35.9574 117.671 35.9073 117.671 35.8566C117.671 35.806 117.681 35.7559 117.701 35.7093C117.721 35.664 117.749 35.6229 117.784 35.5885C117.819 35.5532 117.861 35.5255 117.907 35.507C117.956 35.4866 118.008 35.4763 118.06 35.4767M82.3998 34.1199C82.3998 33.448 82.84 32.8961 83.5593 32.8961C84.2468 32.8961 84.7107 33.4243 84.7107 34.1199C84.7107 34.8155 84.2468 35.3437 83.5593 35.3437C82.84 35.3437 82.3998 34.7918 82.3998 34.1199ZM85.4944 34.1199V32.2079H84.6632V32.6737C84.3996 32.3295 83.9997 32.1136 83.4559 32.1136C82.3847 32.1136 81.544 32.9539 81.544 34.1208C81.544 35.2878 82.3842 36.1281 83.4559 36.1281C83.9995 36.1281 84.3996 35.912 84.6632 35.568V36.0321H85.4934V34.1199H85.4944ZM113.578 34.1199C113.578 33.448 114.019 32.8961 114.738 32.8961C115.426 32.8961 115.889 33.4243 115.889 34.1199C115.889 34.8155 115.426 35.3437 114.738 35.3437C114.019 35.3437 113.578 34.7918 113.578 34.1199ZM116.674 34.1199V30.6732H115.842V32.6737C115.578 32.3295 115.179 32.1136 114.635 32.1136C113.563 32.1136 112.723 32.9539 112.723 34.1208C112.723 35.2878 113.563 36.1281 114.635 36.1281C115.179 36.1281 115.578 35.912 115.842 35.568V36.0321H116.674V34.1199ZM95.8102 32.8567C96.3458 32.8567 96.6898 33.1926 96.7776 33.7839H94.7944C94.8831 33.2319 95.2182 32.8567 95.8104 32.8567M95.827 32.1115C94.7068 32.1115 93.9232 32.9266 93.9232 34.1187C93.9232 35.3342 94.7382 36.126 95.8826 36.126C96.4583 36.126 96.9856 35.9823 97.4495 35.5903L97.0422 34.9744C96.7217 35.2305 96.3137 35.3742 95.9301 35.3742C95.3945 35.3742 94.9069 35.1262 94.7869 34.438H97.6251C97.6332 34.3346 97.6416 34.2303 97.6416 34.1185C97.6332 32.9268 96.8964 32.1113 95.8265 32.1113M105.862 34.1185C105.862 33.4466 106.302 32.8947 107.021 32.8947C107.709 32.8947 108.172 33.4229 108.172 34.1185C108.172 34.8141 107.709 35.3423 107.021 35.3423C106.302 35.3423 105.861 34.7904 105.861 34.1185M108.956 34.1185V32.2079H108.125V32.6737C107.861 32.3295 107.462 32.1136 106.918 32.1136C105.847 32.1136 105.006 32.9539 105.006 34.1208C105.006 35.2878 105.846 36.1281 106.918 36.1281C107.462 36.1281 107.861 35.912 108.125 35.568V36.0321H108.956V34.1199L108.956 34.1185ZM101.168 34.1185C101.168 35.278 101.975 36.1257 103.207 36.1257C103.783 36.1257 104.166 35.9977 104.581 35.67L104.182 34.9981C103.87 35.2224 103.542 35.3423 103.18 35.3423C102.517 35.3342 102.029 34.8544 102.029 34.1185C102.029 33.3826 102.517 32.9031 103.18 32.8947C103.541 32.8947 103.869 33.0146 104.182 33.2389L104.581 32.567C104.165 32.2394 103.782 32.1113 103.207 32.1113C101.975 32.1113 101.168 32.9587 101.168 34.1185ZM111.883 32.1113C111.403 32.1113 111.091 32.3355 110.875 32.6714V32.2079H110.051V36.03H110.883V33.8875C110.883 33.255 111.155 32.9036 111.699 32.9036C111.876 32.901 112.053 32.9337 112.218 32.9997L112.474 32.2163C112.291 32.1439 112.051 32.112 111.882 32.112M89.6036 32.5118C89.2038 32.2482 88.6527 32.112 88.0449 32.112C87.0766 32.112 86.4532 32.5761 86.4532 33.3356C86.4532 33.9588 86.9173 34.3432 87.772 34.4632L88.1646 34.5191C88.6204 34.5831 88.8356 34.703 88.8356 34.9189C88.8356 35.2145 88.5328 35.3831 87.9643 35.3831C87.3886 35.3831 86.9732 35.1991 86.693 34.9832L86.3025 35.6313C86.7582 35.9671 87.3339 36.1274 87.9574 36.1274C89.0612 36.1274 89.701 35.6076 89.701 34.8798C89.701 34.2079 89.1975 33.8565 88.3656 33.7366L87.9739 33.6798C87.6141 33.6332 87.3258 33.5608 87.3258 33.3046C87.3258 33.0251 87.5975 32.857 88.0535 32.857C88.5414 32.857 89.0137 33.041 89.2452 33.1846L89.605 32.5128L89.6036 32.5118ZM100.328 32.1127C99.8487 32.1127 99.5364 32.3369 99.3214 32.6728V32.2079H98.4977V36.03H99.3289V33.8875C99.3289 33.255 99.6006 32.9036 100.144 32.9036C100.322 32.901 100.499 32.9337 100.664 32.9997L100.92 32.2163C100.736 32.1439 100.496 32.112 100.328 32.112M93.2354 32.2079H91.8763V31.0484H91.0361V32.2079H90.2608V32.9676H91.0361V34.7112C91.0361 35.598 91.3803 36.1262 92.3635 36.1262C92.7243 36.1262 93.1397 36.0144 93.4034 35.8307L93.1633 35.119C92.9152 35.2627 92.6435 35.3351 92.4273 35.3351C92.0119 35.3351 91.8763 35.0789 91.8763 34.6954V32.9683H93.2354V32.2079ZM80.809 36.031V33.6322C80.809 32.7289 80.2333 32.1211 79.3052 32.1129C78.8173 32.1048 78.3141 32.2566 77.9617 32.7929C77.6981 32.3691 77.2826 32.1129 76.6986 32.1129C76.2903 32.1129 75.8914 32.2328 75.5791 32.6804V32.2079H74.7472V36.03H75.5856V33.9108C75.5856 33.2473 75.9536 32.8947 76.5218 32.8947C77.0737 32.8947 77.353 33.2545 77.353 33.9024V36.0296H78.1932V33.9103C78.1932 33.2468 78.5768 32.8942 79.1285 32.8942C79.696 32.8942 79.9669 33.254 79.9669 33.9019V36.0291L80.809 36.031Z" fill="#231F20"/>
<path d="M118.468 23.3169V22.7579H118.323L118.155 23.1415L117.987 22.7579H117.841V23.3169H117.944V22.8958L118.102 23.2591H118.209L118.366 22.8949V23.3169H118.469H118.468ZM117.545 23.3169V22.8537H117.731V22.7593H117.255V22.8537H117.442V23.3169H117.544H117.545Z" fill="#F79410"/>
<path d="M101.925 25.714H89.3293V3.07764H101.925L101.925 25.714Z" fill="#FF5F00"/>
<path d="M90.1278 14.3962C90.1278 9.80444 92.2778 5.71406 95.6258 3.07805C93.0916 1.07978 89.9571 -0.00475287 86.7298 1.56579e-05C78.7799 1.56579e-05 72.3355 6.44532 72.3355 14.3962C72.3355 22.3471 78.7799 28.7924 86.7298 28.7924C89.9572 28.7973 93.0917 27.7127 95.626 25.7144C92.2783 23.0789 90.1278 18.9882 90.1278 14.3962Z" fill="#EB001B"/>
<path d="M118.918 14.3962C118.918 22.3471 112.474 28.7924 104.524 28.7924C101.296 28.7972 98.1612 27.7127 95.6265 25.7144C98.9753 23.0784 101.125 18.9882 101.125 14.3962C101.125 9.80421 98.9753 5.71406 95.6265 3.07805C98.1612 1.07984 101.296 -0.00466928 104.524 1.51118e-05C112.474 1.51118e-05 118.918 6.44532 118.918 14.3962" fill="#F79E1B"/>
</svg>
