<svg width="17" height="18" viewBox="0 0 17 18" fill="none" xmlns="http://www.w3.org/2000/svg">
<path d="M3.74981 2.77778H16L14.3333 9H4.64726M15.1667 12.5556H5.16667L3.5 1H1M6 16.1111C6 16.602 5.6269 17 5.16667 17C4.70643 17 4.33333 16.602 4.33333 16.1111C4.33333 15.6202 4.70643 15.2222 5.16667 15.2222C5.6269 15.2222 6 15.6202 6 16.1111ZM15.1667 16.1111C15.1667 16.602 14.7936 17 14.3333 17C13.8731 17 13.5 16.602 13.5 16.1111C13.5 15.6202 13.8731 15.2222 14.3333 15.2222C14.7936 15.2222 15.1667 15.6202 15.1667 16.1111Z" stroke="white" stroke-width="2" stroke-linecap="round" stroke-linejoin="round"/>
</svg>
