<svg width="117" height="117" viewBox="0 0 117 117" fill="none" xmlns="http://www.w3.org/2000/svg">
<path d="M116.036 58.3945L107.243 45.1183L108.263 29.1973L94.0523 22.1224L87.0267 7.82329L71.2084 8.84956L58.0178 0L44.8306 8.84956L29.0089 7.82329L21.9833 22.1224L7.77599 29.1973L8.79586 45.1183L0 58.3945L8.79586 71.6674L7.77599 87.5918L21.9833 94.663L29.0089 108.963L44.8306 107.936L58.0178 116.789L71.2084 107.936L87.0267 108.963L94.0559 94.663L108.263 87.5918L107.243 71.6674L116.036 58.3945Z" fill="#E10000"/>
<path d="M18.303 64.2656V59.0117H30.217V64.2656H18.303ZM32.7366 73.8945V69.8906L37.7952 69.2656V51.2969L32.6975 51.2383V47.4492L44.6311 45.457V69.2656L49.6897 69.8906V73.8945H32.7366ZM62.2092 74.3047C59.1233 74.3047 56.6819 73.3281 54.885 71.375C53.0881 69.4219 52.1897 66.5247 52.1897 62.6836V56.6875C52.1897 52.8594 53.0881 49.9622 54.885 47.9961C56.6819 46.0299 59.1103 45.0469 62.1702 45.0469C65.204 45.0469 67.6194 46.0299 69.4163 47.9961C71.2262 49.9622 72.1311 52.8594 72.1311 56.6875V62.6836C72.1311 66.5247 71.2327 69.4219 69.4358 71.375C67.6519 73.3281 65.2431 74.3047 62.2092 74.3047ZM62.2092 69.0898C63.2118 69.0898 63.9801 68.6341 64.5139 67.7227C65.0478 66.7982 65.3147 65.2487 65.3147 63.0742V56.2578C65.3147 54.1224 65.0413 52.5924 64.4944 51.668C63.9475 50.7435 63.1728 50.2812 62.1702 50.2812C61.1285 50.2812 60.3407 50.7435 59.8069 51.668C59.273 52.5794 59.0061 54.1094 59.0061 56.2578V63.0742C59.0061 65.2617 59.273 66.8112 59.8069 67.7227C60.3407 68.6341 61.1415 69.0898 62.2092 69.0898ZM81.8772 71.7852L78.7131 70.2227L92.5999 47.9961L95.7639 49.5586L81.8772 71.7852ZM94.0256 74.2656C92.6584 74.2656 91.4931 74.0117 90.5295 73.5039C89.579 72.9961 88.8499 72.2995 88.342 71.4141C87.8342 70.5286 87.5803 69.526 87.5803 68.4062V66.9219C87.5803 65.8021 87.8277 64.7995 88.3225 63.9141C88.8173 63.0286 89.54 62.332 90.4905 61.8242C91.454 61.3164 92.6194 61.0625 93.9866 61.0625C95.3538 61.0625 96.5061 61.3164 97.4436 61.8242C98.3941 62.319 99.1168 63.0091 99.6116 63.8945C100.106 64.7799 100.354 65.7891 100.354 66.9219V68.4062C100.354 69.5391 100.106 70.5482 99.6116 71.4336C99.1298 72.319 98.4202 73.0156 97.4827 73.5234C96.5452 74.0182 95.3928 74.2656 94.0256 74.2656ZM94.0256 70.6328C94.7939 70.6328 95.3082 70.444 95.5686 70.0664C95.842 69.6758 95.9788 69.1224 95.9788 68.4062V66.9219C95.9788 66.3099 95.8095 65.7891 95.4709 65.3594C95.1324 64.9297 94.6376 64.7148 93.9866 64.7148C93.3095 64.7148 92.8017 64.9297 92.4631 65.3594C92.1246 65.7891 91.9553 66.3099 91.9553 66.9219V68.4062C91.9553 69.0052 92.1571 69.526 92.5608 69.9688C92.9644 70.4115 93.4527 70.6328 94.0256 70.6328ZM80.51 58.2695C79.1428 58.2695 77.9775 58.0221 77.0139 57.5273C76.0634 57.0195 75.3407 56.3294 74.8459 55.457C74.3512 54.5716 74.1038 53.5625 74.1038 52.4297V50.9258C74.1038 49.793 74.3512 48.7839 74.8459 47.8984C75.3407 47.013 76.0569 46.3164 76.9944 45.8086C77.9449 45.3008 79.1038 45.0469 80.4709 45.0469C81.8512 45.0469 83.01 45.3008 83.9475 45.8086C84.898 46.3164 85.6142 47.013 86.0959 47.8984C86.5907 48.7708 86.8381 49.7799 86.8381 50.9258V52.4297C86.8381 53.5625 86.5907 54.5716 86.0959 55.457C85.6142 56.3294 84.9045 57.0195 83.967 57.5273C83.0295 58.0221 81.8772 58.2695 80.51 58.2695ZM80.51 54.6172C81.135 54.6172 81.6233 54.4089 81.9749 53.9922C82.3264 53.5625 82.5022 53.0417 82.5022 52.4297V50.9258C82.5022 50.3008 82.3264 49.7734 81.9749 49.3438C81.6233 48.9141 81.122 48.6992 80.4709 48.6992C79.8199 48.6992 79.3186 48.9141 78.967 49.3438C78.6285 49.7734 78.4592 50.3008 78.4592 50.9258V52.4297C78.4592 53.0547 78.635 53.5755 78.9866 53.9922C79.3381 54.4089 79.8459 54.6172 80.51 54.6172Z" fill="white"/>
</svg>
