<svg width="15" height="15" viewBox="0 0 15 15" fill="none" xmlns="http://www.w3.org/2000/svg">
<path d="M9.6418 2.52362L11.6538 4.53284M0.75 13.5341L0.783754 13.2981C0.903198 12.4632 0.962923 12.0458 1.09877 11.656C1.21932 11.3101 1.38399 10.9812 1.58873 10.6775C1.81946 10.3351 2.11807 10.0368 2.71529 9.4405L11.0011 1.16612C11.5568 0.611292 12.4576 0.611292 13.0132 1.16612C13.5688 1.72095 13.5688 2.62051 13.0132 3.17534L4.57527 11.6015C4.03347 12.1426 3.76257 12.4131 3.45401 12.6282C3.18012 12.8191 2.88473 12.9773 2.5739 13.0995C2.22372 13.2372 1.84816 13.3128 1.09709 13.4642L0.75 13.5341Z" stroke="white" stroke-width="1.5" stroke-linecap="round" stroke-linejoin="round"/>
</svg>
