<svg width="148" height="18" viewBox="0 0 148 18" fill="none" xmlns="http://www.w3.org/2000/svg">
<path d="M8.39233e-05 17.0625V15.0117L1.81649 14.6602V2.41406L8.39233e-05 2.0625V0H1.81649H8.12118C9.42587 0 10.5509 0.230469 11.4962 0.691406C12.4415 1.14453 13.1681 1.78125 13.6759 2.60156C14.1837 3.41406 14.4376 4.36328 14.4376 5.44922C14.4376 6.53516 14.1837 7.48828 13.6759 8.30859C13.1681 9.12109 12.4415 9.75391 11.4962 10.207C10.5509 10.6523 9.42587 10.875 8.12118 10.875H5.23837V14.6602L7.06649 15.0117V17.0625H8.39233e-05ZM5.23837 8.23828H8.12118C9.0743 8.23828 9.79305 7.98047 10.2774 7.46484C10.7696 6.94141 11.0157 6.27734 11.0157 5.47266C11.0157 4.65234 10.7696 3.97656 10.2774 3.44531C9.79305 2.90625 9.0743 2.63672 8.12118 2.63672H5.23837V8.23828ZM17.4591 17.0625V15.0117L19.2756 14.6602V2.41406L17.4591 2.0625V0H24.5138V2.0625L22.6974 2.41406V14.6602L24.5138 15.0117V17.0625H17.4591ZM44.2445 17.0625V14.8125L52.5648 2.63672H47.3734L47.1038 4.81641H44.4906L44.6312 0H56.7718V2.17969L48.4163 14.4375H54.3577L54.639 12.2578H57.2406L57.0296 17.0625H44.2445ZM93.2349 17.0625L89.274 2.23828L87.5279 2.0625V0H94.3951V2.0625L92.5552 2.33203L94.5591 10.6289L94.9224 12.1523H94.9927L95.4263 10.6289L98.8013 0H101.321L104.825 10.9219L105.235 12.2695H105.305L105.657 10.9219L107.731 2.33203L105.786 2.0625V0H112.524V2.0625L110.895 2.23828L106.887 17.0625H103.794L100.559 7.08984L100.149 5.68359H100.079L99.6216 7.13672L96.3521 17.0625H93.2349ZM115.51 17.0625V15.0117L117.327 14.6602V2.41406L115.51 2.0625V0H128.753V4.60547H126.128L125.975 2.63672H120.749V6.92578H126.526V9.5625H120.749V14.4375H126.256L126.409 12.3984H129.01V17.0625H115.51ZM132.759 17.0625V15.0117L134.575 14.6602V2.41406L132.759 2.0625V0H134.575H140.341C142.348 0 143.915 0.390625 145.04 1.17188C146.165 1.95312 146.727 3.12109 146.727 4.67578C146.727 5.46484 146.516 6.17188 146.094 6.79688C145.68 7.41406 145.075 7.87891 144.278 8.19141C144.958 8.33984 145.524 8.60156 145.977 8.97656C146.438 9.35156 146.782 9.80859 147.009 10.3477C147.235 10.8789 147.348 11.4609 147.348 12.0938C147.348 13.7266 146.809 14.9648 145.731 15.8086C144.653 16.6445 143.126 17.0625 141.149 17.0625H132.759ZM137.997 14.4375H141.149C142.055 14.4375 142.747 14.2422 143.223 13.8516C143.7 13.4531 143.938 12.8672 143.938 12.0938C143.938 11.2578 143.735 10.6211 143.329 10.1836C142.923 9.73828 142.282 9.51562 141.407 9.51562H137.997V14.4375ZM137.997 7.14844H140.458C141.372 7.14844 142.075 6.96094 142.567 6.58594C143.059 6.21094 143.305 5.66406 143.305 4.94531C143.305 4.15625 143.055 3.57422 142.555 3.19922C142.063 2.82422 141.325 2.63672 140.341 2.63672H137.997V7.14844Z" fill="#F4EAE1"/>
<path d="M27.9573 17.0625V14.8125L36.2776 2.63672H31.0862L30.8166 4.81641H28.2034L28.344 0H40.4846V2.17969L32.1291 14.4375H38.0706L38.3518 12.2578H40.9534L40.7424 17.0625H27.9573Z" fill="#75A843"/>
<path d="M60.1684 17.0625V15.0117L61.3871 14.8359L66.8129 0H70.3168L75.7074 14.8359L76.9262 15.0117V17.0625H71.1137V15.0117L72.2973 14.8008L71.5473 12.457H65.5473L64.7973 14.8008L65.9809 15.0117V17.0625H60.1684ZM66.3559 9.9375H70.7387L68.7465 4.08984L68.5824 3.57422H68.5121L68.3363 4.125L66.3559 9.9375Z" fill="#ED4C5C"/>
</svg>
