<svg width="160" height="145" viewBox="0 0 160 145" fill="none" xmlns="http://www.w3.org/2000/svg">
<path d="M120.002 120.003C120.002 122.832 121.125 125.544 123.126 127.545C125.127 129.546 127.84 130.669 130.669 130.669C133.498 130.669 136.211 129.546 138.212 127.545C140.213 125.544 141.336 122.832 141.336 120.003C141.336 117.173 140.212 114.461 138.212 112.46C136.211 110.459 133.498 109.336 130.669 109.336C127.84 109.336 125.127 110.459 123.126 112.46C121.125 114.461 120.002 117.173 120.002 120.003ZM130.669 114.669C132.083 114.669 133.44 115.231 134.44 116.231C135.44 117.232 136.003 118.588 136.003 120.003C136.003 121.417 135.44 122.774 134.44 123.774C133.44 124.774 132.083 125.335 130.669 125.335C129.254 125.335 127.898 124.774 126.897 123.774C125.897 122.774 125.336 121.417 125.336 120.003C125.336 118.588 125.897 117.232 126.897 116.231C127.898 115.231 129.254 114.669 130.669 114.669Z" fill="#1C3D19"/>
<path d="M141.333 86.3169V66.6665H144C144.708 66.6665 145.385 66.3859 145.885 65.8857C146.386 65.3855 146.667 64.7067 146.667 64.0001V47.9994C146.667 47.2928 146.386 46.6139 145.885 46.1137C145.385 45.6149 144.708 45.333 144 45.333H132.315L128 36.7039V26.667C128 25.9591 127.72 25.2816 127.22 24.7814C126.719 24.2812 126.041 23.9993 125.334 23.9993H109.333C107.86 23.9993 106.667 25.1942 106.667 26.667V37.3337C106.667 38.0403 106.947 38.7191 107.448 39.2193C107.948 39.7182 108.627 40 109.333 40H123.685L126.352 45.3327H117.334C115.861 45.3327 114.667 46.5263 114.667 47.9991V53.3317L104.001 53.3331C102.528 53.3331 101.334 54.5266 101.334 55.9994V66.6661H106.667V58.6658H114.667V63.9998C114.667 64.7064 114.948 65.3852 115.448 65.8854C115.948 66.3856 116.626 66.6661 117.334 66.6661H120V86.2661C109.495 88.9986 100.923 96.5771 96.9197 106.667H81.7195C74.5883 91.2614 79.4051 82.5174 81.2603 80.0005L82.6669 79.9992C85.5251 79.9992 88.1662 78.4748 89.5954 75.9988C91.0245 73.5243 91.0245 70.4741 89.5954 67.9998C88.1663 65.524 85.5249 63.9995 82.6669 63.9995H53.3328V55.9992C53.3328 55.2925 53.0523 54.6137 52.5521 54.1135C52.0519 53.6133 51.3731 53.3328 50.6665 53.3328H48.0001V47.9988H50.6665C51.3731 47.9988 52.0519 47.7182 52.5521 47.218C53.0523 46.7178 53.3328 46.0403 53.3328 45.3324V2.66637C53.3328 1.95976 53.0523 1.28093 52.5521 0.780727C52.0519 0.281844 51.3731 0 50.6665 0H8.00042C6.52762 0 5.33405 1.19357 5.33405 2.66637V42.6664H2.66769C1.19489 42.6664 0 43.86 0 45.3328V55.9995C0 56.7074 0.281856 57.3849 0.78205 57.8851C1.28225 58.3853 1.95976 58.6658 2.66769 58.6658H5.33405V63.9985L2.66769 63.9998C1.19489 63.9998 0 65.1934 0 66.6662V79.9992H30.353L27.6443 85.4179H27.643C20.1758 85.8533 13.1572 89.1218 8.01898 94.5575C2.88076 99.9934 0.0132114 107.187 0 114.666V120C0 120.706 0.281851 121.385 0.782045 121.885C1.28225 122.385 1.95976 122.666 2.66769 122.666H10.8242C11.7306 130.537 16.4628 137.453 23.4692 141.15C30.4773 144.846 38.8574 144.846 45.8652 141.15C52.8734 137.453 57.6037 130.537 58.5102 122.666H106.823C107.582 129.74 111.44 136.113 117.357 140.064C123.273 144.015 130.637 145.138 137.462 143.13C144.286 141.121 149.869 136.188 152.702 129.662C155.535 123.137 155.326 115.69 152.133 109.333H157.334C158.04 109.333 158.719 109.052 159.219 108.552C159.718 108.052 160 107.373 160 106.666C160 97.1319 152.139 89.0418 141.333 86.3159L141.333 86.3169ZM122.666 34.6671H112V29.3344H122.666V34.6671ZM82.6662 69.3351C84.139 69.3351 85.3326 70.53 85.3326 72.0028C85.3326 73.4756 84.139 74.6692 82.6662 74.6692H47.9982V69.3352L82.6662 69.3351ZM10.6641 64.0025V58.6685H47.9982V64.0011L10.6641 64.0025ZM10.6641 5.3371H47.9982V42.6712H10.6641V5.3371ZM5.33144 48.0031H42.6655V53.3358L5.33144 53.3371V48.0031ZM5.33144 74.6709V69.3368H42.6655V74.6695L5.33144 74.6709ZM34.6655 138.672C30.1811 138.662 25.8501 137.041 22.4612 134.104C19.0737 131.166 16.8558 127.109 16.2115 122.671H24.3772C25.1593 125.742 27.2712 128.304 30.1387 129.655C33.0049 131.006 36.3251 131.006 39.1926 129.655C42.0588 128.304 44.1719 125.742 44.9528 122.671H53.1184C52.474 127.109 50.2562 131.166 46.8688 134.104C43.4799 137.042 39.1489 138.662 34.6658 138.672H34.6655ZM30.0737 122.672H39.257V122.671C38.6377 123.756 37.6545 124.586 36.4808 125.014C35.3084 125.445 34.0208 125.445 32.8483 125.014C31.6746 124.586 30.6914 123.756 30.0721 122.671L30.0737 122.672ZM63.9965 117.338H5.33111V114.671C5.33772 108.308 7.86912 102.208 12.368 97.7078C16.867 93.2088 22.9673 90.6787 29.3308 90.6709H63.9989L63.9965 117.338ZM66.6629 85.3379H33.6449L36.3112 80.0052L75.0816 80.0039C72.6944 84.9368 70.5694 93.8437 75.8517 106.67L69.3321 106.672V88.0045C69.3321 87.2979 69.0502 86.6191 68.55 86.1189C68.0498 85.6187 67.3723 85.3382 66.6644 85.3382L66.6629 85.3379ZM95.9969 117.338H69.3305V112.004H95.9969V117.338ZM133.331 50.6715H141.331V61.3382H133.331V50.6715ZM135.997 66.6709V85.4466C135.121 85.3738 134.233 85.3381 133.331 85.3381H127.998C127.097 85.3381 126.208 85.3712 125.332 85.4374V66.6711L135.997 66.6709ZM119.998 50.6715H127.998V61.3382H119.998V50.6715ZM130.665 138.673C126.173 138.664 121.836 137.037 118.446 134.092C115.056 131.145 112.84 127.076 112.207 122.63C113.587 122.533 114.659 121.389 114.665 120.006V110.44C114.889 110.056 115.119 109.686 115.361 109.339H145.894C148.549 113.071 149.73 117.651 149.213 122.2C148.696 126.749 146.516 130.947 143.093 133.988C139.67 137.027 135.243 138.695 130.665 138.673ZM111.998 104.005C110.525 104.005 109.331 105.2 109.331 106.673V117.339H101.332V109.872C106.398 97.6583 116.079 90.6716 127.999 90.6716H133.331C143.883 90.6716 152.671 96.4476 154.369 104.005L111.998 104.005Z" fill="#1C3D19"/>
<path d="M29.3344 42.6685C34.2846 42.6685 39.0339 40.7021 42.5339 37.2006C46.0353 33.7006 48.0017 28.9527 48.0017 24.0011C48.0017 19.0509 46.0354 14.3029 42.5339 10.8016C39.0339 7.30155 34.2846 5.33508 29.3344 5.33508C24.3841 5.33508 19.6362 7.30145 16.1348 10.8016C12.6348 14.3029 10.667 19.0509 10.667 24.0011C10.6736 28.9499 12.6426 33.6939 16.1412 37.1939C19.6413 40.6925 24.3852 42.6617 29.334 42.6681L29.3344 42.6685ZM29.3344 10.6681C32.8703 10.6681 36.2615 12.0734 38.7626 14.5729C41.2635 17.0739 42.6674 20.4655 42.6674 24.0011C42.6674 27.538 41.2634 30.9296 38.7626 33.4293C36.2616 35.9302 32.8699 37.3355 29.3344 37.3355C25.7988 37.3355 22.4072 35.9302 19.9062 33.4293C17.4065 30.9297 16.0013 27.538 16.0013 24.0011C16.0053 20.4665 17.412 17.0776 19.9116 14.5783C22.4112 12.0787 25.8001 10.6722 29.3344 10.6681Z" fill="#1C3D19"/>
<path d="M21.333 18.6677H26.6657V24.0004H21.333V18.6677Z" fill="#1C3D19"/>
<path d="M32.0005 23.9997H37.3332V29.3324H32.0005V23.9997Z" fill="#1C3D19"/>
</svg>
