<svg width="37" height="37" viewBox="0 0 37 37" fill="none" xmlns="http://www.w3.org/2000/svg">
<path fill-rule="evenodd" clip-rule="evenodd" d="M11.5229 2.59094C11.0644 3.39592 10.6507 4.39311 10.2568 5.56917C7.21457 13.8102 2.50863 25.859 0.236909 31.644C-0.794769 34.271 1.71821 36.9008 4.38957 35.9909C10.2104 34.008 22.2511 29.9342 30.4817 27.3399L30.5067 27.3318C31.6877 26.9387 32.6841 26.5354 33.4839 26.0899C34.2754 25.649 34.9834 25.1073 35.4593 24.3862C36.5452 22.7409 35.9434 21.0184 35.2253 19.6871C30.7067 11.311 25.0581 5.42424 18.0043 0.943755C17.3307 0.515915 16.5764 0.152587 15.7616 0.0377284C14.8881 -0.0853856 14.0305 0.0903747 13.2588 0.600784C12.5362 1.07866 11.9796 1.78903 11.5229 2.59094ZM22.9605 13.3915C20.3442 10.6 17.4953 8.24104 13.7977 5.51526C14.0069 4.98988 14.2074 4.56612 14.3995 4.22901C14.7183 3.66913 14.96 3.44425 15.0849 3.36156C15.1607 3.31143 15.2 3.30135 15.2994 3.31536C15.4572 3.33762 15.7516 3.43435 16.2293 3.73774C22.7996 7.91118 28.0587 13.3747 32.3118 21.2585C32.9042 22.3568 32.7129 22.5468 32.6973 22.562C32.6285 22.6661 32.4242 22.891 31.8727 23.1984C31.5589 23.3731 31.1666 23.5564 30.6812 23.7497C27.9364 19.3859 25.5856 16.1925 22.9605 13.3915ZM20.545 15.6549C22.8445 18.1083 24.9581 20.928 27.4477 24.8307C19.3352 27.4263 8.67771 31.0333 3.32206 32.8576L3.31938 32.8584L3.31723 32.8563L3.31819 32.8538C5.40869 27.5304 9.57324 16.8702 12.6055 8.75292C15.8377 11.1714 18.2973 13.2566 20.545 15.6549ZM14.5338 19.8602C16.3621 19.8602 17.8441 18.3783 17.8441 16.5501C17.8441 14.7221 16.3621 13.2401 14.5338 13.2401C12.7055 13.2401 11.2234 14.7221 11.2234 16.5501C11.2234 18.3783 12.7055 19.8602 14.5338 19.8602ZM14.5338 24.8253C14.5338 26.6534 13.0517 28.1353 11.2234 28.1353C9.39521 28.1353 7.91313 26.6534 7.91313 24.8253C7.91313 22.9971 9.39521 21.5152 11.2234 21.5152C13.0517 21.5152 14.5338 22.9971 14.5338 24.8253ZM19.4992 26.4803C21.3275 26.4803 22.8096 24.9984 22.8096 23.1702C22.8096 21.3421 21.3275 19.8602 19.4992 19.8602C17.671 19.8602 16.1889 21.3421 16.1889 23.1702C16.1889 24.9984 17.671 26.4803 19.4992 26.4803Z" fill="#082109"/>
</svg>
