<svg width="19" height="21" viewBox="0 0 19 21" fill="none" xmlns="http://www.w3.org/2000/svg">
<path d="M15.7778 4.16691L14.9324 16.8472C14.8584 17.9577 14.8213 18.5131 14.5815 18.9341C14.3703 19.3048 14.0517 19.6028 13.6678 19.7889C13.2318 20.0002 12.6752 20.0002 11.5621 20.0002H7.32675C6.21367 20.0002 5.65713 20.0002 5.22105 19.7889C4.83712 19.6028 4.51857 19.3048 4.30739 18.9341C4.06751 18.5131 4.0305 17.9577 3.95646 16.8472L3.11111 4.16691M1 4.16691H17.8889M13.6667 4.16691L13.381 3.30987C13.1041 2.47934 12.9657 2.06407 12.7089 1.75706C12.4822 1.48594 12.1911 1.27608 11.8622 1.14673C11.4897 1.00024 11.052 1.00024 10.1766 1.00024H8.7123C7.83683 1.00024 7.39919 1.00024 7.0267 1.14673C6.6978 1.27608 6.40663 1.48594 6.17991 1.75706C5.92316 2.06407 5.78474 2.47934 5.50789 3.30987L5.22222 4.16691M11.5555 8.38912V15.778M7.33333 8.38912V15.778" stroke="#e10000" stroke-width="2" stroke-linecap="round" stroke-linejoin="round"/>
</svg>
